<svg width="30" height="31" viewBox="0 0 30 31" fill="none" xmlns="http://www.w3.org/2000/svg">
<path d="M25.3963 5.35743C23.4842 4.48008 21.4337 3.83368 19.2899 3.46347C19.2508 3.45632 19.2118 3.47418 19.1917 3.50989C18.928 3.97891 18.6359 4.59078 18.4314 5.07171C16.1255 4.7265 13.8315 4.7265 11.5729 5.07171C11.3683 4.58009 11.0656 3.97891 10.8007 3.50989C10.7806 3.47537 10.7416 3.45751 10.7026 3.46347C8.55989 3.8325 6.50945 4.4789 4.59617 5.35743C4.57961 5.36457 4.56541 5.37649 4.55599 5.39195C0.66674 11.2024 -0.398688 16.87 0.123975 22.4674C0.12634 22.4948 0.141712 22.521 0.162998 22.5376C2.72901 24.4221 5.21463 25.5661 7.6541 26.3243C7.69314 26.3363 7.73451 26.322 7.75935 26.2898C8.33641 25.5018 8.8508 24.6709 9.29185 23.7971C9.31787 23.7459 9.29303 23.6852 9.23983 23.665C8.42391 23.3554 7.647 22.9781 6.89966 22.5495C6.84055 22.515 6.83582 22.4305 6.8902 22.39C7.04747 22.2722 7.20477 22.1495 7.35494 22.0257C7.38211 22.0031 7.41997 21.9983 7.45192 22.0126C12.3616 24.2542 17.6769 24.2542 22.5287 22.0126C22.5606 21.9972 22.5985 22.0019 22.6268 22.0245C22.7771 22.1483 22.9343 22.2722 23.0928 22.39C23.1472 22.4305 23.1436 22.515 23.0845 22.5495C22.3372 22.9864 21.5602 23.3554 20.7431 23.6638C20.6899 23.684 20.6663 23.7459 20.6923 23.7971C21.1428 24.6697 21.6572 25.5006 22.2236 26.2886C22.2473 26.322 22.2898 26.3363 22.3289 26.3243C24.7802 25.5661 27.2658 24.4221 29.8318 22.5376C29.8543 22.521 29.8685 22.496 29.8708 22.4686C30.4964 15.9974 28.8231 10.3763 25.4353 5.39313C25.427 5.37649 25.4128 5.36457 25.3963 5.35743ZM10.025 19.0592C8.54687 19.0592 7.32892 17.7021 7.32892 16.0355C7.32892 14.3689 8.52325 13.0119 10.025 13.0119C11.5386 13.0119 12.7448 14.3808 12.7211 16.0355C12.7211 17.7021 11.5268 19.0592 10.025 19.0592ZM19.9934 19.0592C18.5153 19.0592 17.2974 17.7021 17.2974 16.0355C17.2974 14.3689 18.4917 13.0119 19.9934 13.0119C21.507 13.0119 22.7132 14.3808 22.6896 16.0355C22.6896 17.7021 21.507 19.0592 19.9934 19.0592Z" fill="white"/>
</svg>
