<svg width="30" height="31" viewBox="0 0 30 31" fill="none" xmlns="http://www.w3.org/2000/svg">
<g clip-path="url(#clip0_857_782)">
<path fill-rule="evenodd" clip-rule="evenodd" d="M15.0005 0.788086C11.4396 0.789934 7.99538 2.05116 5.2838 4.34624C2.57222 6.64132 0.770093 9.8206 0.199644 13.3156C-0.370804 16.8106 0.327622 20.3934 2.17005 23.4233C4.01248 26.4533 6.87876 28.7328 10.2564 29.8543C11.0015 29.9926 11.2822 29.5308 11.2822 29.1381C11.2822 28.7454 11.2673 27.6068 11.2623 26.3621C7.08946 27.2636 6.2077 24.6012 6.2077 24.6012C5.52712 22.8724 4.54351 22.418 4.54351 22.418C3.18236 21.4943 4.64536 21.5116 4.64536 21.5116C6.15306 21.6178 6.94541 23.0502 6.94541 23.0502C8.28172 25.3298 10.4551 24.6703 11.3095 24.2851C11.4437 23.3194 11.8336 22.6625 12.2633 22.2895C8.93 21.9141 5.42776 20.6348 5.42776 14.9199C5.4071 13.4377 5.96024 12.0044 6.97273 10.9164C6.81873 10.541 6.30456 9.02463 7.11927 6.96488C7.11927 6.96488 8.37859 6.56478 11.245 8.49364C13.7035 7.82512 16.2975 7.82512 18.7561 8.49364C21.62 6.56478 22.8768 6.96488 22.8768 6.96488C23.694 9.01969 23.1799 10.5361 23.0259 10.9164C24.0416 12.0046 24.5959 13.4404 24.5733 14.9248C24.5733 20.6521 21.0636 21.9141 17.7253 22.2821C18.2618 22.7464 18.7412 23.6528 18.7412 25.0457C18.7412 27.0413 18.7238 28.6466 18.7238 29.1381C18.7238 29.5357 18.9946 30 19.7546 29.8543C23.1327 28.7327 25.9992 26.4527 27.8416 23.4223C29.684 20.3918 30.3821 16.8085 29.811 13.3132C29.2399 9.81784 27.4368 6.63853 24.7244 4.34384C22.0119 2.04916 18.5669 0.788762 15.0055 0.788086H15.0005Z" fill="white"/>
<path d="M5.68045 22.2029C5.64816 22.277 5.52894 22.2992 5.43207 22.2473C5.3352 22.1955 5.26317 22.0992 5.29795 22.0226C5.33272 21.946 5.44946 21.9263 5.54633 21.9781C5.6432 22.03 5.71771 22.1288 5.68045 22.2029Z" fill="white"/>
<path d="M6.28904 22.877C6.2376 22.9028 6.17875 22.91 6.12256 22.8974C6.06638 22.8847 6.01635 22.8531 5.98104 22.8079C5.88417 22.7041 5.86429 22.5609 5.9388 22.4967C6.01332 22.4325 6.14746 22.4621 6.24433 22.5658C6.3412 22.6696 6.36355 22.8128 6.28904 22.877Z" fill="white"/>
<path d="M6.88009 23.7348C6.78819 23.799 6.6317 23.7348 6.54476 23.6064C6.52072 23.5833 6.50161 23.5557 6.48855 23.5252C6.47549 23.4946 6.46875 23.4618 6.46875 23.4286C6.46875 23.3954 6.47549 23.3625 6.48855 23.3319C6.50161 23.3014 6.52072 23.2738 6.54476 23.2507C6.63667 23.189 6.79316 23.2507 6.88009 23.3767C6.96703 23.5026 6.96951 23.6706 6.88009 23.7348Z" fill="white"/>
<path d="M7.68252 24.5637C7.60056 24.655 7.43414 24.6303 7.29753 24.5069C7.16092 24.3834 7.12862 24.2154 7.21058 24.1265C7.29255 24.0376 7.45897 24.0623 7.60055 24.1833C7.74213 24.3043 7.76946 24.4747 7.68252 24.5637Z" fill="white"/>
<path d="M8.80772 25.0481C8.77046 25.1642 8.60156 25.216 8.43265 25.1666C8.26375 25.1172 8.15198 24.9789 8.18427 24.8604C8.21656 24.7418 8.38795 24.6875 8.55933 24.7418C8.73072 24.7962 8.84001 24.9271 8.80772 25.0481Z" fill="white"/>
<path d="M10.0349 25.1324C10.0349 25.2534 9.89582 25.3572 9.71699 25.3596C9.53815 25.3621 9.3916 25.2633 9.3916 25.1423C9.3916 25.0213 9.53069 24.9176 9.70953 24.9151C9.88837 24.9126 10.0349 25.0089 10.0349 25.1324Z" fill="white"/>
<path d="M11.177 24.942C11.1994 25.063 11.0752 25.189 10.8963 25.2186C10.7175 25.2482 10.561 25.1766 10.5387 25.0581C10.5163 24.9395 10.6455 24.8111 10.8193 24.779C10.9932 24.7469 11.1546 24.821 11.177 24.942Z" fill="white"/>
</g>
<defs>
<clipPath id="clip0_857_782">
<rect width="30" height="30" fill="white" transform="translate(0 0.163086)"/>
</clipPath>
</defs>
</svg>
