<?xml version="1.0" standalone="no"?>
<!DOCTYPE svg PUBLIC "-//W3C//DTD SVG 20010904//EN"
 "http://www.w3.org/TR/2001/REC-SVG-20010904/DTD/svg10.dtd">
<svg version="1.0" xmlns="http://www.w3.org/2000/svg"
 width="1255.000000pt" height="692.000000pt" viewBox="0 0 1255.000000 692.000000"
 preserveAspectRatio="xMidYMid meet">

<g transform="translate(0.000000,692.000000) scale(0.100000,-0.100000)"
fill="#000000" stroke="none">
<path d="M6623 6535 c0 -38 2 -55 4 -37 4 30 7 32 43 32 36 0 39 -2 43 -32 2
-18 4 -1 4 37 0 39 -2 55 -4 38 -4 -31 -7 -33 -43 -33 -36 0 -39 2 -43 33 -2
17 -4 1 -4 -38z"/>
<path d="M7462 6533 c0 -38 3 -54 5 -36 4 28 8 32 41 36 l37 4 -37 1 c-33 2
-38 5 -38 26 0 22 5 25 43 29 l42 4 -47 1 -48 2 2 -67z"/>
<path d="M8802 6584 c-18 -12 -22 -24 -20 -52 4 -46 42 -73 79 -54 23 11 23
11 -4 6 -19 -5 -34 -1 -47 11 -42 38 -8 104 47 91 21 -5 24 -4 13 4 -21 14
-42 12 -68 -6z"/>
<path d="M9771 6533 c1 -38 4 -56 6 -40 5 34 26 35 48 1 9 -14 19 -23 22 -20
3 3 0 12 -7 21 -10 13 -10 19 4 33 33 37 13 72 -41 72 l-33 0 1 -67z m69 42
c19 -23 4 -45 -30 -45 -27 0 -30 3 -30 30 0 25 4 30 24 30 13 0 29 -7 36 -15z"/>
<path d="M7772 6574 c-7 -8 -8 -14 -3 -14 5 0 11 -19 13 -42 2 -34 7 -43 23
-46 18 -2 18 -2 3 8 -12 7 -18 23 -18 45 0 26 4 35 18 36 13 0 14 2 2 6 -8 3
-17 9 -20 13 -3 4 -11 2 -18 -6z"/>
<path d="M9122 6574 c-7 -8 -8 -14 -3 -14 5 0 11 -19 13 -42 2 -34 7 -43 23
-46 18 -2 18 -2 3 8 -12 7 -18 23 -18 45 0 26 4 35 18 36 13 0 14 2 2 6 -8 3
-17 9 -20 13 -3 4 -11 2 -18 -6z"/>
<path d="M9379 6578 c-5 -61 8 -108 29 -107 11 0 12 3 5 6 -16 6 -17 83 -2 83
6 0 4 7 -5 15 -18 18 -26 19 -27 3z"/>
<path d="M6766 6554 c-9 -8 -16 -24 -16 -34 0 -20 25 -50 41 -50 27 0 49 22
49 50 0 44 -44 64 -74 34z m52 -6 c17 -17 15 -43 -4 -59 -31 -26 -70 25 -44
56 15 18 32 19 48 3z"/>
<path d="M6872 6516 l1 -51 6 45 c5 36 10 45 26 45 16 0 21 -9 26 -45 l5 -45
5 45 c3 37 8 45 24 45 16 0 21 -9 26 -45 l6 -45 1 48 c1 26 -1 48 -5 48 -5 1
-34 3 -65 4 l-58 1 2 -50z"/>
<path d="M7043 6558 c-19 -25 -21 -46 -7 -67 16 -22 40 -27 63 -12 10 7 4 9
-19 8 -19 -1 -35 3 -37 11 -3 8 7 12 31 12 28 0 36 4 36 18 0 36 -46 57 -67
30z m45 -10 c19 -19 14 -28 -18 -28 -16 0 -30 4 -30 8 0 9 21 32 30 32 3 0 11
-5 18 -12z"/>
<path d="M7583 6558 c-19 -25 -21 -46 -7 -67 16 -22 40 -27 63 -12 10 7 4 9
-19 8 -19 -1 -35 3 -37 11 -3 8 7 12 31 12 28 0 36 4 36 18 0 36 -46 57 -67
30z m45 -10 c19 -19 14 -28 -18 -28 -16 0 -30 4 -30 8 0 9 21 32 30 32 3 0 11
-5 18 -12z"/>
<path d="M7686 6562 c-3 -5 4 -8 16 -8 34 1 32 -21 -2 -28 -26 -5 -31 -10 -28
-28 2 -19 10 -23 41 -25 35 -1 37 1 37 29 0 16 -5 38 -10 49 -11 19 -44 26
-54 11z m44 -57 c0 -9 -7 -18 -16 -22 -18 -7 -39 11 -30 26 11 17 46 13 46 -4z"/>
<path d="M7844 6525 c1 -49 1 -50 34 -51 l32 -1 -2 51 -1 51 -6 -45 c-5 -36
-10 -45 -26 -45 -16 0 -21 9 -26 45 l-7 45 2 -50z"/>
<path d="M7952 6515 c1 -43 2 -45 5 -13 3 23 12 43 24 52 20 14 20 14 -5 12
-25 -1 -26 -4 -24 -51z"/>
<path d="M8026 6554 c-9 -8 -16 -24 -16 -34 0 -36 58 -68 74 -41 3 4 -5 6 -17
4 -14 -3 -29 2 -36 11 -12 14 -9 16 28 16 29 0 41 4 41 14 0 18 -27 46 -45 46
-7 0 -21 -7 -29 -16z m54 -14 c10 -18 8 -20 -25 -20 -33 0 -35 2 -25 20 6 11
17 20 25 20 8 0 19 -9 25 -20z"/>
<path d="M8127 6563 c-14 -14 -6 -34 18 -45 38 -17 33 -42 -7 -34 -24 4 -29 3
-18 -4 38 -25 84 4 55 34 -9 9 -23 16 -32 16 -8 0 -13 6 -10 13 2 6 13 12 25
11 12 0 19 3 16 8 -6 10 -38 11 -47 1z"/>
<path d="M8916 6554 c-9 -8 -16 -24 -16 -34 0 -20 25 -50 41 -50 27 0 49 22
49 50 0 44 -44 64 -74 34z m52 -6 c17 -17 15 -43 -4 -59 -31 -26 -70 25 -44
56 15 18 32 19 48 3z"/>
<path d="M9022 6515 l1 -50 6 45 c5 36 10 45 26 45 16 0 21 -8 23 -42 4 -49
22 -59 22 -12 0 48 -16 70 -50 67 -29 -2 -30 -4 -28 -53z"/>
<path d="M9196 6561 c-4 -5 2 -7 12 -4 10 2 24 -3 31 -11 12 -14 10 -16 -10
-16 -34 0 -52 -14 -47 -36 2 -12 13 -20 28 -21 l25 -3 -23 10 c-29 12 -24 35
9 35 17 0 23 -5 21 -17 -1 -9 2 -19 8 -23 14 -9 13 68 -2 83 -14 14 -44 16
-52 3z"/>
<path d="M9297 6552 c-22 -24 -21 -45 1 -65 21 -19 48 -22 57 -7 4 7 -2 9 -18
5 -33 -9 -54 24 -37 56 9 16 18 19 37 14 16 -4 22 -2 18 5 -10 16 -40 12 -58
-8z"/>
<path d="M9896 6554 c-9 -8 -16 -24 -16 -34 0 -36 58 -68 74 -41 3 4 -5 6 -17
4 -14 -3 -29 2 -36 11 -12 14 -9 16 28 16 29 0 41 4 41 14 0 18 -27 46 -45 46
-7 0 -21 -7 -29 -16z m54 -14 c10 -18 8 -20 -25 -20 -33 0 -35 2 -25 20 6 11
17 20 25 20 8 0 19 -9 25 -20z"/>
<path d="M9997 6563 c-14 -14 -6 -34 18 -45 38 -17 33 -42 -7 -34 -24 4 -29 3
-18 -4 38 -25 84 4 55 34 -9 9 -23 16 -32 16 -8 0 -13 6 -10 13 2 6 13 12 25
11 12 0 19 3 16 8 -6 10 -38 11 -47 1z"/>
<path d="M10086 6554 c-31 -30 -9 -84 34 -84 11 0 27 11 36 25 15 23 15 27 0
50 -19 29 -47 32 -70 9z m58 -16 c13 -21 -2 -51 -27 -56 -23 -5 -40 33 -27 59
13 23 38 22 54 -3z"/>
<path d="M10194 6525 c1 -49 1 -50 34 -51 l32 -1 -2 51 -1 51 -6 -45 c-5 -36
-10 -45 -26 -45 -16 0 -21 9 -26 45 l-7 45 2 -50z"/>
<path d="M10302 6515 c1 -43 2 -45 5 -13 3 23 12 43 24 52 20 14 20 14 -5 12
-25 -1 -26 -4 -24 -51z"/>
<path d="M10377 6552 c-22 -24 -21 -45 1 -65 21 -19 48 -22 57 -7 4 7 -2 9
-18 5 -19 -5 -28 -2 -37 14 -17 32 4 65 37 56 16 -4 22 -2 18 5 -10 16 -40 12
-58 -8z"/>
<path d="M10471 6556 c-16 -20 -10 -66 11 -79 11 -8 23 -7 40 1 14 8 16 10 4
7 -22 -6 -56 3 -56 15 0 5 18 10 40 12 39 3 39 4 27 28 -15 29 -48 37 -66 16z
m57 -19 c3 -13 -3 -17 -27 -17 -33 0 -39 8 -19 28 17 17 42 11 46 -11z"/>
<path d="M10570 6555 c-14 -17 -11 -23 21 -39 29 -15 24 -31 -9 -29 -23 2 -24
1 -9 -8 22 -13 57 -2 57 17 0 8 -11 20 -25 26 -35 16 -34 42 3 34 20 -5 23 -4
12 4 -21 14 -36 12 -50 -5z"/>
<path d="M8325 6520 l29 -30 28 27 c15 15 28 29 28 32 0 2 -11 -6 -25 -19
l-25 -23 -23 21 c-35 33 -45 26 -12 -8z"/>
<path d="M6475 4454 c-14 -31 -24 -62 -22 -67 2 -6 15 18 30 53 15 34 25 65
23 68 -3 2 -17 -22 -31 -54z"/>
<path d="M6110 4486 c0 -8 -7 -12 -17 -10 -27 6 -45 -10 -45 -40 0 -34 5 -39
42 -42 30 -2 30 -2 30 52 0 30 -2 54 -5 54 -3 0 -5 -6 -5 -14z m-5 -51 c0 -23
-4 -30 -20 -30 -21 0 -31 25 -21 51 11 28 41 12 41 -21z"/>
<path d="M6373 4445 c0 -33 2 -45 4 -27 2 18 2 45 0 60 -2 15 -4 0 -4 -33z"/>
<path d="M6568 4453 c-3 -44 -5 -48 -28 -46 -25 2 -25 2 -3 -9 34 -16 53 5 53
58 0 59 -18 56 -22 -3z"/>
<path d="M6625 4491 c15 -6 22 -20 26 -57 l6 -49 1 52 c2 45 5 52 25 56 12 2
0 5 -28 5 -34 0 -43 -2 -30 -7z"/>
<path d="M6821 4443 c2 -54 2 -55 8 -18 l6 40 19 -34 19 -35 18 35 18 34 1
-37 c0 -21 5 -38 10 -38 6 0 10 25 10 55 0 30 -4 55 -8 55 -4 0 -17 -16 -29
-37 l-21 -36 -16 31 c-27 52 -36 48 -35 -15z"/>
<path d="M6960 4445 l0 -55 38 1 c30 2 32 3 10 6 -26 4 -28 8 -28 54 0 27 -4
49 -10 49 -5 0 -10 -25 -10 -55z"/>
<path d="M6151 4430 c2 -34 3 -37 6 -15 3 17 11 37 18 45 12 14 12 16 -5 16
-17 0 -20 -7 -19 -46z"/>
<path d="M6221 4420 c1 -30 3 -47 6 -37 2 9 9 15 14 11 15 -9 47 5 51 24 3 10
1 28 -3 40 -7 17 -15 22 -39 20 -30 -2 -30 -3 -29 -58z m54 15 c0 -23 -4 -30
-20 -30 -21 0 -31 25 -21 51 11 28 41 12 41 -21z"/>
<path d="M6410 4435 c0 -25 5 -45 10 -45 6 0 10 20 10 45 0 25 -4 45 -10 45
-5 0 -10 -20 -10 -45z"/>
<path d="M6720 4465 c-7 -8 -9 -26 -6 -40 5 -20 13 -25 37 -25 27 0 30 -2 18
-16 -7 -8 -21 -13 -31 -11 -10 3 -16 1 -12 -4 8 -13 38 -11 52 3 7 7 12 32 12
58 0 43 -2 45 -29 47 -16 1 -35 -4 -41 -12z m49 -9 c15 -18 3 -46 -20 -46 -25
0 -35 26 -19 45 15 19 24 19 39 1z"/>
<path d="M6320 4400 c0 -5 5 -10 10 -10 6 0 10 5 10 10 0 6 -4 10 -10 10 -5 0
-10 -4 -10 -10z"/>
<path d="M3870 3515 l0 -265 45 0 45 0 0 129 c0 71 3 137 6 146 15 37 101 58
135 32 32 -25 39 -56 39 -181 l0 -126 40 0 40 0 0 153 c0 131 -3 156 -19 183
-40 65 -143 82 -210 35 l-31 -22 0 90 0 91 -45 0 -45 0 0 -265z"/>
<path d="M7515 3771 c-116 -30 -195 -126 -203 -248 -7 -103 53 -203 153 -256
30 -15 59 -21 115 -21 66 -1 82 3 130 30 30 17 56 38 58 46 1 7 -11 24 -28 36
l-30 23 -30 -23 c-20 -15 -48 -23 -87 -25 -72 -5 -115 16 -158 76 -25 35 -30
52 -30 101 0 49 5 66 30 101 42 59 86 81 156 77 38 -3 66 -11 88 -27 l33 -24
31 32 c31 32 32 32 12 47 -66 51 -168 74 -240 55z"/>
<path d="M8630 3685 l0 -95 -39 26 c-147 97 -310 -39 -270 -225 30 -143 194
-200 288 -100 l21 23 0 -32 c0 -31 1 -32 45 -32 l45 0 0 265 0 265 -45 0 -45
0 0 -95z m-33 -149 c49 -57 38 -161 -20 -196 -80 -49 -177 8 -177 105 0 39 29
94 59 111 40 22 110 12 138 -20z"/>
<path d="M3360 3725 l0 -45 85 0 85 0 0 -215 0 -215 45 0 45 0 0 215 0 215 80
0 80 0 0 45 0 45 -210 0 -210 0 0 -45z"/>
<path d="M5128 3713 l-14 -58 -41 -3 c-32 -2 -42 -8 -47 -25 -11 -41 -7 -47
29 -47 19 0 35 -3 35 -7 -1 -5 -7 -33 -14 -63 -12 -54 -13 -55 -50 -58 -29 -3
-39 -9 -46 -28 -15 -39 -12 -44 25 -44 40 0 41 -3 21 -77 l-14 -53 34 0 c35 0
34 -2 60 103 6 25 10 27 55 27 27 0 49 -3 49 -7 0 -5 -7 -33 -15 -63 -8 -30
-15 -56 -15 -57 0 -2 15 -3 34 -3 29 0 35 4 40 28 26 106 24 102 65 102 32 0
40 4 45 23 11 41 7 47 -30 47 -40 0 -39 -7 -13 93 9 35 12 37 48 37 32 0 40 4
45 23 11 41 7 47 -29 47 -40 0 -39 -2 -21 68 l14 52 -34 0 c-31 0 -34 -3 -44
-42 -6 -24 -13 -51 -16 -60 -4 -14 -16 -18 -55 -18 -49 0 -49 0 -43 28 4 15
11 37 15 50 14 37 11 42 -25 42 -33 0 -34 -2 -48 -57z m128 -160 c-27 -110
-22 -103 -77 -103 -43 0 -50 2 -45 18 3 9 10 38 17 65 l11 47 50 0 c50 0 50 0
44 -27z"/>
<path d="M5555 3724 c-39 -26 -71 -48 -73 -50 -6 -4 28 -64 36 -64 4 0 24 11
43 25 20 13 39 21 43 18 3 -4 6 -96 6 -205 l0 -198 45 0 45 0 0 260 0 260 -38
0 c-28 0 -55 -12 -107 -46z"/>
<path d="M6050 3510 l0 -260 45 0 45 0 2 182 3 182 135 -182 135 -181 48 -1
47 0 0 260 0 260 -45 0 -45 0 -2 -182 -3 -181 -138 181 -138 182 -45 0 -44 0
0 -260z"/>
<path d="M4425 3631 c-79 -37 -115 -95 -115 -187 0 -158 148 -245 305 -180 45
19 54 42 26 69 -21 21 -21 21 -53 3 -70 -42 -157 -17 -185 52 l-13 32 155 0
155 0 -6 43 c-14 91 -45 139 -109 168 -51 24 -109 24 -160 0z m151 -84 c12
-12 25 -32 29 -44 6 -23 6 -23 -104 -23 -101 0 -110 2 -104 18 26 74 128 102
179 49z"/>
<path d="M6752 3639 c-53 -16 -117 -87 -131 -146 -39 -160 125 -301 277 -237
108 45 160 168 113 269 -46 99 -150 145 -259 114z m128 -84 c83 -43 77 -189
-10 -225 -65 -27 -149 16 -166 85 -26 103 82 188 176 140z"/>
<path d="M7972 3639 c-53 -16 -117 -87 -131 -146 -39 -160 125 -301 277 -237
108 45 160 168 113 269 -46 99 -150 145 -259 114z m128 -84 c83 -43 77 -189
-10 -225 -65 -27 -149 16 -166 85 -26 103 82 188 176 140z"/>
<path d="M8936 3636 c-117 -44 -164 -198 -92 -306 30 -46 109 -90 162 -90 38
0 123 26 149 45 19 15 19 16 -7 41 -24 24 -27 25 -54 11 -49 -25 -89 -29 -127
-13 -32 13 -67 58 -67 86 0 6 52 10 151 10 l152 0 -7 47 c-14 105 -76 171
-167 179 -33 3 -69 -1 -93 -10z m147 -96 c48 -54 40 -60 -78 -60 -113 0 -120
4 -89 49 22 31 72 52 109 46 17 -3 42 -19 58 -35z"/>
<path d="M3517 1943 c-11 -11 -8 -20 7 -20 8 0 12 6 9 14 -6 15 -7 15 -16 6z"/>
<path d="M4390 1940 c0 -5 5 -10 11 -10 5 0 7 5 4 10 -3 6 -8 10 -11 10 -2 0
-4 -4 -4 -10z"/>
<path d="M4583 1943 c9 -2 25 -2 35 0 9 3 1 5 -18 5 -19 0 -27 -2 -17 -5z"/>
<path d="M7118 1943 c7 -3 16 -2 19 1 4 3 -2 6 -13 5 -11 0 -14 -3 -6 -6z"/>
<path d="M7293 1885 c0 -38 2 -53 4 -32 2 20 2 52 0 70 -2 17 -4 1 -4 -38z"/>
<path d="M7467 1943 c19 -4 23 -12 26 -66 l3 -62 2 62 c2 55 4 62 25 66 12 2
0 4 -28 4 -27 0 -40 -2 -28 -4z"/>
<path d="M7797 1943 c-11 -11 -8 -20 7 -20 8 0 12 6 9 14 -6 15 -7 15 -16 6z"/>
<path d="M8743 1885 c0 -38 2 -53 4 -32 2 20 2 52 0 70 -2 17 -4 1 -4 -38z"/>
<path d="M3958 1929 c-8 -23 8 -103 20 -105 7 -1 8 0 2 3 -12 6 -13 80 -1 85
5 2 3 8 -4 15 -9 8 -15 9 -17 2z"/>
<path d="M4516 1925 c-9 -26 -7 -32 5 -12 6 10 9 21 6 23 -2 3 -7 -2 -11 -11z"/>
<path d="M4738 1929 c-8 -23 8 -103 20 -105 7 -1 8 0 2 3 -12 6 -13 80 -1 85
5 2 3 8 -4 15 -9 8 -15 9 -17 2z"/>
<path d="M4988 1927 c-2 -7 -1 -30 3 -52 l6 -40 2 37 c0 20 5 38 10 40 5 2 3
8 -4 15 -10 9 -14 9 -17 0z"/>
<path d="M6318 1929 c-8 -23 8 -103 20 -105 7 -1 8 0 2 3 -12 6 -13 80 -1 85
5 2 3 8 -4 15 -9 8 -15 9 -17 2z"/>
<path d="M7079 1923 c-13 -16 -12 -17 4 -4 16 13 21 21 13 21 -2 0 -10 -8 -17
-17z"/>
<path d="M3641 1917 c2 -1 13 -9 24 -17 19 -14 19 -14 6 3 -7 9 -18 17 -24 17
-6 0 -8 -1 -6 -3z"/>
<path d="M3748 1909 c19 -7 23 -15 21 -43 -2 -19 0 -38 4 -42 4 -4 7 11 7 32
0 42 -14 64 -39 63 -10 0 -6 -4 7 -10z"/>
<path d="M4023 1870 c0 -30 2 -43 4 -27 2 15 2 39 0 55 -2 15 -4 2 -4 -28z"/>
<path d="M4178 1913 c7 -3 16 -2 19 1 4 3 -2 6 -13 5 -11 0 -14 -3 -6 -6z"/>
<path d="M4410 1915 c0 -5 5 -17 10 -25 5 -8 10 -10 10 -5 0 6 -5 17 -10 25
-5 8 -10 11 -10 5z"/>
<path d="M4831 1917 c2 -1 13 -9 24 -17 19 -14 19 -14 6 3 -7 9 -18 17 -24 17
-6 0 -8 -1 -6 -3z"/>
<path d="M5053 1870 c0 -30 2 -43 4 -27 2 15 2 39 0 55 -2 15 -4 2 -4 -28z"/>
<path d="M5131 1917 c2 -1 13 -9 24 -17 19 -14 19 -14 6 3 -7 9 -18 17 -24 17
-6 0 -8 -1 -6 -3z"/>
<path d="M5458 1909 c19 -7 23 -15 21 -43 -2 -19 0 -38 4 -42 4 -4 7 11 7 32
0 42 -14 64 -39 63 -10 0 -6 -4 7 -10z"/>
<path d="M5690 1870 c0 -29 2 -51 4 -49 8 8 10 88 3 95 -4 4 -7 -17 -7 -46z"/>
<path d="M5791 1917 c2 -1 13 -9 24 -17 19 -14 19 -14 6 3 -7 9 -18 17 -24 17
-6 0 -8 -1 -6 -3z"/>
<path d="M5863 1913 c9 -2 23 -2 30 0 6 3 -1 5 -18 5 -16 0 -22 -2 -12 -5z"/>
<path d="M6162 1913 c-10 -4 -10 -8 -1 -19 6 -8 9 -22 6 -33 -2 -10 -1 -25 4
-32 6 -9 9 5 9 39 0 28 -1 52 -2 51 -2 0 -9 -3 -16 -6z"/>
<path d="M6383 1870 c0 -30 2 -43 4 -27 2 15 2 39 0 55 -2 15 -4 2 -4 -28z"/>
<path d="M6473 1909 c11 -7 18 -24 19 -52 l1 -42 4 38 c4 38 -9 67 -31 67 -6
0 -3 -5 7 -11z"/>
<path d="M6539 1903 c-12 -16 -12 -17 1 -7 8 6 22 14 30 17 13 5 12 6 -1 6 -9
1 -23 -7 -30 -16z"/>
<path d="M6601 1920 c-7 -14 -5 -118 2 -111 5 5 6 32 4 62 -2 30 -4 52 -6 49z"/>
<path d="M6728 1909 c19 -7 23 -15 21 -43 -2 -19 0 -38 4 -42 4 -4 7 11 7 32
0 42 -14 64 -39 63 -10 0 -6 -4 7 -10z"/>
<path d="M6843 1909 c11 -7 18 -24 19 -52 l1 -42 4 38 c4 38 -9 67 -31 67 -6
0 -3 -5 7 -11z"/>
<path d="M7228 1909 c19 -7 23 -15 21 -43 -2 -19 0 -38 4 -42 4 -4 7 11 7 32
0 42 -14 64 -39 63 -10 0 -6 -4 7 -10z"/>
<path d="M7897 1902 c-10 -10 -17 -25 -17 -33 0 -8 6 -3 13 11 8 15 21 25 35
24 11 0 19 3 16 8 -9 14 -30 9 -47 -10z"/>
<path d="M7983 1913 c9 -2 23 -2 30 0 6 3 -1 5 -18 5 -16 0 -22 -2 -12 -5z"/>
<path d="M8043 1870 c0 -30 2 -43 4 -27 2 15 2 39 0 55 -2 15 -4 2 -4 -28z"/>
<path d="M8097 1902 c-10 -10 -17 -25 -17 -34 0 -18 31 -48 51 -48 8 0 3 6
-11 13 -16 8 -25 21 -25 37 0 16 9 29 25 37 16 8 19 13 9 13 -9 0 -23 -8 -32
-18z"/>
<path d="M8200 1870 c0 -29 2 -51 4 -49 8 8 10 88 3 95 -4 4 -7 -17 -7 -46z"/>
<path d="M8367 1902 c-10 -10 -17 -25 -17 -34 0 -18 31 -48 51 -48 8 0 3 6
-11 13 -16 8 -25 21 -25 37 0 16 9 29 25 37 16 8 19 13 9 13 -9 0 -23 -8 -32
-18z"/>
<path d="M8818 1909 c19 -7 23 -15 21 -43 -2 -19 0 -38 4 -42 4 -4 7 11 7 32
0 42 -14 64 -39 63 -10 0 -6 -4 7 -10z"/>
<path d="M8876 1907 c3 -10 9 -15 12 -12 3 3 0 11 -7 18 -10 9 -11 8 -5 -6z"/>
<path d="M8986 1911 c-4 -5 3 -7 14 -4 23 6 26 13 6 13 -8 0 -17 -4 -20 -9z"/>
<path d="M3492 1885 c-16 -36 -17 -35 28 -35 26 0 43 -6 50 -17 11 -17 11 -17
6 0 -3 10 -6 21 -6 23 0 2 -18 4 -40 4 -38 0 -40 1 -30 21 7 11 10 23 7 25 -2
2 -9 -7 -15 -21z"/>
<path d="M3610 1899 c0 -5 5 -7 10 -4 6 3 10 8 10 11 0 2 -4 4 -10 4 -5 0 -10
-5 -10 -11z"/>
<path d="M4640 1901 c0 -6 -17 -11 -37 -13 l-38 -3 41 -5 c33 -4 40 -2 41 12
1 10 0 18 -3 18 -2 0 -4 -4 -4 -9z"/>
<path d="M4903 1896 c1 -11 9 -21 17 -23 10 -3 11 -2 4 4 -6 4 -14 15 -17 23
-5 11 -6 9 -4 -4z"/>
<path d="M5100 1899 c0 -5 5 -7 10 -4 6 3 10 8 10 11 0 2 -4 4 -10 4 -5 0 -10
-5 -10 -11z"/>
<path d="M5205 1899 c-4 -6 -5 -12 -2 -15 2 -3 7 2 10 11 7 17 1 20 -8 4z"/>
<path d="M5266 1895 c4 -8 8 -15 10 -15 2 0 4 7 4 15 0 8 -4 15 -10 15 -5 0
-7 -7 -4 -15z"/>
<path d="M5525 1899 c-4 -6 -5 -12 -2 -15 2 -3 7 2 10 11 7 17 1 20 -8 4z"/>
<path d="M5586 1895 c4 -8 8 -15 10 -15 2 0 4 7 4 15 0 8 -4 15 -10 15 -5 0
-7 -7 -4 -15z"/>
<path d="M6030 1895 c0 -8 2 -15 4 -15 2 0 6 7 10 15 3 8 1 15 -4 15 -6 0 -10
-7 -10 -15z"/>
<path d="M6215 1899 c-4 -6 -5 -12 -2 -15 2 -3 7 2 10 11 7 17 1 20 -8 4z"/>
<path d="M6905 1899 c-4 -6 -5 -12 -2 -15 2 -3 7 2 10 11 7 17 1 20 -8 4z"/>
<path d="M6966 1895 c4 -8 8 -15 10 -15 2 0 4 7 4 15 0 8 -4 15 -10 15 -5 0
-7 -7 -4 -15z"/>
<path d="M7772 1885 c-16 -36 -17 -35 28 -35 26 0 43 -6 50 -17 11 -17 11 -17
6 0 -3 10 -6 21 -6 23 0 2 -18 4 -40 4 -38 0 -40 1 -30 21 7 11 10 23 7 25 -2
2 -9 -7 -15 -21z"/>
<path d="M8565 1899 c-4 -6 -5 -12 -2 -15 2 -3 7 2 10 11 7 17 1 20 -8 4z"/>
<path d="M8670 1895 c0 -8 2 -15 4 -15 2 0 6 7 10 15 3 8 1 15 -4 15 -6 0 -10
-7 -10 -15z"/>
<path d="M4362 1872 c-9 -27 -9 -27 30 -24 29 3 43 0 54 -14 13 -17 13 -17 4
6 -10 22 -16 25 -47 22 -32 -4 -35 -3 -28 17 10 31 -1 26 -13 -7z"/>
<path d="M6280 1881 c0 -6 -17 -12 -37 -14 l-38 -4 43 -1 c31 -2 42 2 42 13 0
8 -2 15 -5 15 -3 0 -5 -4 -5 -9z"/>
<path d="M8162 1870 c0 -14 2 -19 5 -12 2 6 2 18 0 25 -3 6 -5 1 -5 -13z"/>
<path d="M8432 1870 c0 -14 2 -19 5 -12 2 6 2 18 0 25 -3 6 -5 1 -5 -13z"/>
<path d="M8630 1881 c0 -6 -17 -12 -37 -14 l-38 -4 43 -1 c31 -2 42 2 42 13 0
8 -2 15 -5 15 -3 0 -5 -4 -5 -9z"/>
<path d="M5930 1865 c-6 -8 -10 -20 -7 -27 3 -8 6 -6 6 5 1 10 11 22 24 27 15
6 17 9 6 9 -9 1 -22 -6 -29 -14z"/>
<path d="M9000 1870 c8 -5 20 -10 25 -10 6 0 3 5 -5 10 -8 5 -19 10 -25 10 -5
0 -3 -5 5 -10z"/>
<path d="M4486 1855 c-9 -26 -7 -32 5 -12 6 10 9 21 6 23 -2 3 -7 -2 -11 -11z"/>
<path d="M4813 1863 c15 -2 37 -2 50 0 12 2 0 4 -28 4 -27 0 -38 -2 -22 -4z"/>
<path d="M5200 1864 c0 -17 27 -37 42 -31 8 4 7 6 -4 6 -9 1 -22 9 -27 19 -6
9 -11 12 -11 6z"/>
<path d="M5266 1855 c-3 -8 -1 -15 4 -15 6 0 10 7 10 15 0 8 -2 15 -4 15 -2 0
-6 -7 -10 -15z"/>
<path d="M5773 1863 c15 -2 37 -2 50 0 12 2 0 4 -28 4 -27 0 -38 -2 -22 -4z"/>
<path d="M7388 1863 c6 -2 18 -2 25 0 6 3 1 5 -13 5 -14 0 -19 -2 -12 -5z"/>
<path d="M7688 1863 c6 -2 18 -2 25 0 6 3 1 5 -13 5 -14 0 -19 -2 -12 -5z"/>
<path d="M5520 1851 c0 -6 4 -13 10 -16 6 -3 7 1 4 9 -7 18 -14 21 -14 7z"/>
<path d="M5586 1845 c-3 -8 -1 -15 4 -15 6 0 10 7 10 15 0 8 -2 15 -4 15 -2 0
-6 -7 -10 -15z"/>
<path d="M6542 1844 c9 -9 21 -15 27 -13 6 2 -2 10 -17 17 -25 11 -25 11 -10
-4z"/>
<path d="M6900 1851 c0 -6 4 -13 10 -16 6 -3 7 1 4 9 -7 18 -14 21 -14 7z"/>
<path d="M6966 1845 c-3 -8 -1 -15 4 -15 6 0 10 7 10 15 0 8 -2 15 -4 15 -2 0
-6 -7 -10 -15z"/>
<path d="M7070 1856 c0 -2 8 -10 18 -17 15 -13 16 -12 3 4 -13 16 -21 21 -21
13z"/>
<path d="M8901 1855 c0 -5 4 -19 8 -29 7 -19 8 -19 13 2 4 12 2 20 -2 17 -5
-3 -11 1 -13 7 -3 7 -5 9 -6 3z"/>
<path d="M6108 1838 c6 -6 18 -8 28 -6 14 3 12 5 -9 10 -19 3 -25 2 -19 -4z"/>
<path d="M7899 1838 c15 -20 36 -23 46 -8 3 6 -1 7 -10 4 -8 -4 -23 0 -33 7
-15 13 -16 12 -3 -3z"/>
<path d="M9010 1834 c-17 -9 -20 -14 -9 -14 9 0 22 7 29 15 15 18 13 18 -20
-1z"/>
<path d="M3885 1830 c3 -5 8 -10 11 -10 2 0 4 5 4 10 0 6 -5 10 -11 10 -5 0
-7 -4 -4 -10z"/>
<path d="M4185 1830 c-16 -7 -17 -9 -3 -9 9 -1 20 4 23 9 7 11 7 11 -20 0z"/>
<path d="M4605 1830 l-40 -7 37 -2 c20 0 40 4 43 9 3 6 5 9 3 9 -2 -1 -21 -5
-43 -9z"/>
<path d="M5877 1829 c7 -7 15 -10 18 -7 3 3 -2 9 -12 12 -14 6 -15 5 -6 -5z"/>
<path d="M7198 1828 c5 -5 16 -8 23 -6 8 3 3 7 -10 11 -17 4 -21 3 -13 -5z"/>
<path d="M8490 1829 c0 -5 5 -7 10 -4 6 3 10 8 10 11 0 2 -4 4 -10 4 -5 0 -10
-5 -10 -11z"/>
<path d="M7118 1823 c7 -3 16 -2 19 1 4 3 -2 6 -13 5 -11 0 -14 -3 -6 -6z"/>
<path d="M3870 1800 c-9 -6 -10 -10 -3 -10 6 0 15 5 18 10 8 12 4 12 -15 0z"/>
<path d="M5228 1793 c7 -3 16 -2 19 1 4 3 -2 6 -13 5 -11 0 -14 -3 -6 -6z"/>
<path d="M6128 1793 c7 -3 16 -2 19 1 4 3 -2 6 -13 5 -11 0 -14 -3 -6 -6z"/>
<path d="M6558 1793 c7 -3 16 -2 19 1 4 3 -2 6 -13 5 -11 0 -14 -3 -6 -6z"/>
<path d="M5121 1632 c-14 -27 -14 -43 0 -18 9 15 13 16 20 5 5 -8 9 -9 9 -4 0
6 -4 16 -9 24 -7 11 -11 10 -20 -7z"/>
<path d="M5263 1585 c0 -38 2 -53 4 -32 2 20 2 52 0 70 -2 17 -4 1 -4 -38z"/>
<path d="M5365 1640 c-3 -6 1 -7 9 -4 18 7 21 14 7 14 -6 0 -13 -4 -16 -10z"/>
<path d="M6710 1585 c0 -37 4 -65 10 -65 6 0 10 18 10 40 0 33 3 40 20 40 12
0 21 -8 24 -22 3 -13 7 -32 9 -43 3 -11 5 -1 6 21 1 45 -16 68 -43 58 -12 -4
-16 0 -16 15 0 12 -4 21 -10 21 -6 0 -10 -28 -10 -65z"/>
<path d="M7130 1585 c0 -37 4 -65 10 -65 6 0 10 28 10 65 0 37 -4 65 -10 65
-6 0 -10 -28 -10 -65z"/>
<path d="M7352 1585 c0 -51 2 -64 8 -47 5 12 12 22 16 22 3 0 14 -10 25 -22
22 -27 25 -12 4 16 -13 17 -13 22 2 38 9 10 13 21 9 25 -3 4 -13 -3 -22 -15
-22 -32 -32 -27 -37 16 -2 20 -4 6 -5 -33z"/>
<path d="M7010 1622 c-10 -12 -11 -17 -2 -20 7 -2 12 -19 12 -37 0 -33 15 -54
28 -40 4 4 1 10 -5 12 -17 6 -17 60 -1 65 10 4 9 8 -2 20 -14 13 -17 13 -30 0z"/>
<path d="M5353 1613 c9 -2 23 -2 30 0 6 3 -1 5 -18 5 -16 0 -22 -2 -12 -5z"/>
<path d="M5412 1567 c1 -40 2 -44 5 -17 3 19 9 40 14 46 6 8 4 14 -6 18 -12 4
-15 -4 -13 -47z"/>
<path d="M5978 1613 c7 -3 16 -2 19 1 4 3 -2 6 -13 5 -11 0 -14 -3 -6 -6z"/>
<path d="M6043 1570 c0 -30 2 -43 4 -27 2 15 2 39 0 55 -2 15 -4 2 -4 -28z"/>
<path d="M6133 1609 c11 -7 18 -24 19 -52 l1 -42 4 38 c4 38 -9 67 -31 67 -6
0 -3 -5 7 -11z"/>
<path d="M6180 1616 c0 -2 7 -7 16 -10 8 -3 12 -2 9 4 -6 10 -25 14 -25 6z"/>
<path d="M6250 1560 c0 -35 3 -61 6 -57 8 8 9 105 1 114 -4 3 -7 -22 -7 -57z"/>
<path d="M6290 1613 c8 -3 22 -11 30 -17 13 -10 13 -9 1 7 -7 9 -21 17 -30 16
-13 0 -14 -1 -1 -6z"/>
<path d="M6441 1617 c2 -1 13 -9 24 -17 19 -14 19 -14 6 3 -7 9 -18 17 -24 17
-6 0 -8 -1 -6 -3z"/>
<path d="M6633 1613 c-23 -9 -14 -39 15 -53 l27 -14 -35 -6 c-32 -5 -33 -6
-12 -14 14 -5 28 -3 37 4 23 19 18 39 -10 46 -30 7 -33 24 -4 24 11 0 17 5 14
10 -7 11 -13 11 -32 3z"/>
<path d="M6838 1609 c-25 -14 -24 -65 2 -79 14 -8 26 -8 40 0 27 14 27 65 1
80 -23 12 -22 12 -43 -1z m47 -39 c0 -18 -6 -26 -23 -28 -13 -2 -25 3 -28 12
-10 26 4 48 28 44 17 -2 23 -10 23 -28z"/>
<path d="M6941 1570 c1 -55 1 -55 9 -15 4 22 4 47 -1 55 -5 10 -8 -5 -8 -40z"/>
<path d="M7180 1570 c0 -27 5 -50 10 -50 6 0 10 23 10 50 0 28 -4 50 -10 50
-5 0 -10 -22 -10 -50z"/>
<path d="M7241 1565 l2 -50 6 40 c5 31 10 40 26 40 16 0 21 -9 26 -40 7 -38 7
-38 5 10 -1 49 -1 50 -33 50 l-33 0 1 -50z"/>
<path d="M5485 1599 c-4 -6 -5 -12 -2 -15 2 -3 7 2 10 11 7 17 1 20 -8 4z"/>
<path d="M5650 1600 c0 -5 5 -10 11 -10 5 0 7 5 4 10 -3 6 -8 10 -11 10 -2 0
-4 -4 -4 -10z"/>
<path d="M6090 1599 c0 -5 5 -7 10 -4 6 3 10 8 10 11 0 2 -4 4 -10 4 -5 0 -10
-5 -10 -11z"/>
<path d="M5091 1564 c-6 -15 -9 -29 -6 -32 3 -3 5 0 5 7 0 9 13 12 45 9 48 -3
50 -2 35 22 -6 10 -10 11 -10 3 0 -8 -13 -13 -30 -13 -22 0 -28 4 -24 15 10
26 -2 16 -15 -11z"/>
<path d="M6213 1555 c0 -22 2 -30 4 -17 2 12 2 30 0 40 -3 9 -5 -1 -4 -23z"/>
<path d="M5810 1565 c-6 -8 -10 -20 -7 -27 3 -8 6 -6 6 5 1 10 11 22 24 27 15
6 17 9 6 9 -9 1 -22 -6 -29 -14z"/>
<path d="M6423 1563 c15 -2 37 -2 50 0 12 2 0 4 -28 4 -27 0 -38 -2 -22 -4z"/>
<path d="M5480 1551 c0 -6 4 -13 10 -16 6 -3 7 1 4 9 -7 18 -14 21 -14 7z"/>
<path d="M6300 1534 c-17 -9 -20 -14 -9 -14 9 0 22 7 29 15 15 18 13 18 -20
-1z"/>
<path d="M7456 1541 c-4 -5 -2 -12 3 -15 5 -4 12 -2 15 3 4 5 2 12 -3 15 -5 4
-12 2 -15 -3z"/>
<path d="M5985 1530 c-16 -7 -17 -9 -3 -9 9 -1 20 4 23 9 7 11 7 11 -20 0z"/>
<path d="M6952 673 c0 -38 3 -54 5 -36 4 28 8 32 41 36 l37 4 -37 1 c-33 2
-38 5 -38 26 0 22 5 25 43 29 l42 4 -47 1 -48 2 2 -67z"/>
<path d="M7262 713 c-7 -7 -8 -13 -3 -13 5 0 11 -19 13 -42 2 -23 8 -43 16
-44 7 -1 8 0 2 3 -12 6 -13 80 -1 85 5 2 4 8 -3 14 -8 8 -15 7 -24 -3z"/>
<path d="M7066 694 c-9 -8 -16 -24 -16 -34 0 -36 58 -68 74 -41 3 4 -5 6 -17
4 -14 -3 -29 2 -36 11 -12 14 -9 16 28 16 29 0 41 4 41 14 0 18 -27 46 -45 46
-7 0 -21 -7 -29 -16z m52 -6 c20 -20 14 -28 -23 -28 -33 0 -35 2 -25 20 12 23
30 26 48 8z"/>
<path d="M7176 702 c-3 -5 4 -8 16 -8 12 1 23 -5 25 -11 3 -8 -5 -13 -21 -13
-32 0 -52 -32 -31 -50 8 -6 20 -10 27 -7 8 3 6 6 -5 6 -27 1 -17 35 12 39 20
3 23 0 18 -17 -3 -12 -1 -24 4 -27 5 -3 9 15 9 39 0 32 -5 47 -16 51 -21 8
-32 8 -38 -2z"/>
<path d="M7320 679 c0 -39 16 -69 38 -69 16 1 16 1 0 11 -12 7 -18 22 -18 49
0 22 -4 40 -10 40 -5 0 -10 -14 -10 -31z"/>
<path d="M7388 664 c-2 -25 0 -48 4 -50 5 -3 8 18 8 45 0 64 -7 66 -12 5z"/>
<path d="M7430 659 c0 -27 5 -49 10 -49 6 0 10 18 10 40 0 26 6 42 17 48 13 8
11 10 -10 10 -26 0 -27 -3 -27 -49z"/>
<path d="M7511 696 c-16 -20 -10 -66 11 -79 11 -8 23 -7 40 1 14 8 16 10 4 7
-22 -6 -56 3 -56 15 0 5 18 10 40 12 39 3 39 4 27 28 -15 29 -48 37 -66 16z
m57 -19 c3 -13 -3 -17 -27 -17 -33 0 -39 8 -19 28 17 17 42 11 46 -11z"/>
<path d="M7610 695 c-14 -17 -11 -23 21 -39 29 -15 24 -31 -9 -29 -23 2 -24 1
-9 -8 22 -13 57 -2 57 17 0 8 -11 20 -25 26 -35 16 -34 42 3 34 20 -5 23 -4
12 4 -21 14 -36 12 -50 -5z"/>
</g>
</svg>
