<svg width="30" height="31" viewBox="0 0 30 31" fill="none" xmlns="http://www.w3.org/2000/svg">
<g clip-path="url(#clip0_857_791)">
<path d="M27.7793 0.163086H2.21484C0.990234 0.163086 0 1.12988 0 2.3252V27.9951C0 29.1904 0.990234 30.1631 2.21484 30.1631H27.7793C29.0039 30.1631 30 29.1904 30 28.001V2.3252C30 1.12988 29.0039 0.163086 27.7793 0.163086ZM8.90039 25.7275H4.44727V11.4072H8.90039V25.7275ZM6.67383 9.45605C5.24414 9.45605 4.08984 8.30176 4.08984 6.87793C4.08984 5.4541 5.24414 4.2998 6.67383 4.2998C8.09766 4.2998 9.25195 5.4541 9.25195 6.87793C9.25195 8.2959 8.09766 9.45605 6.67383 9.45605ZM25.5645 25.7275H21.1172V18.7666C21.1172 17.1084 21.0879 14.9697 18.8027 14.9697C16.4883 14.9697 16.1367 16.7803 16.1367 18.6494V25.7275H11.6953V11.4072H15.9609V13.3643H16.0195C16.6113 12.2393 18.0645 11.0498 20.2266 11.0498C24.7324 11.0498 25.5645 14.0146 25.5645 17.8701V25.7275Z" fill="white"/>
</g>
<defs>
<clipPath id="clip0_857_791">
<rect width="30" height="30" fill="white" transform="translate(0 0.163086)"/>
</clipPath>
</defs>
</svg>
