<svg width="779" height="556" viewBox="0 0 779 556" fill="none" xmlns="http://www.w3.org/2000/svg">
<path d="M686.373 130.423L709.553 114.266L724.413 55.208L701.232 71.3646L686.373 130.423Z" fill="url(#paint0_linear_2486_9079)"/>
<path d="M701.232 71.3651L724.413 55.2085L665.703 35.8564L642.512 52.0025L701.232 71.3651Z" fill="url(#paint1_linear_2486_9079)"/>
<g style="mix-blend-mode:color-dodge">
<path d="M627.652 111.061L686.373 130.424L701.232 71.3656L642.512 52.0029L627.652 111.061Z" fill="url(#paint2_linear_2486_9079)"/>
</g>
<path d="M625.229 391.966L643.764 379.061L655.641 331.858L637.114 344.772L625.229 391.966Z" fill="url(#paint3_linear_2486_9079)"/>
<path d="M637.115 344.771L655.642 331.858L608.717 316.382L590.182 329.295L637.115 344.771Z" fill="url(#paint4_linear_2486_9079)"/>
<g style="mix-blend-mode:color-dodge">
<path d="M578.305 376.498L625.229 391.965L637.115 344.771L590.181 329.295L578.305 376.498Z" fill="url(#paint5_linear_2486_9079)"/>
</g>
<path d="M288.291 528.717L266.25 550.98L198.924 556L220.976 533.737L288.291 528.717Z" fill="url(#paint6_linear_2486_9079)"/>
<path d="M220.975 533.737L198.923 556L188.936 488.147L210.987 465.884L220.975 533.737Z" fill="url(#paint7_linear_2486_9079)"/>
<g style="mix-blend-mode:color-dodge">
<path d="M278.314 460.863L288.291 528.717L220.975 533.737L210.988 465.883L278.314 460.863Z" fill="url(#paint8_linear_2486_9079)"/>
</g>
<path d="M113.721 346.617L136.901 330.46L151.76 271.402L128.58 287.559L113.721 346.617Z" fill="url(#paint9_linear_2486_9079)"/>
<path d="M128.58 287.559L151.76 271.403L93.0502 252.051L69.8594 268.197L128.58 287.559Z" fill="url(#paint10_linear_2486_9079)"/>
<g style="mix-blend-mode:color-dodge">
<path d="M55 327.254L113.721 346.617L128.58 287.559L69.8594 268.196L55 327.254Z" fill="url(#paint11_linear_2486_9079)"/>
</g>
<g clip-path="url(#clip0_2486_9079)">
<path d="M439.608 10.1113H291.72C273.926 10.1113 259.5 24.534 259.5 42.3254V390.353C259.5 408.144 273.926 422.567 291.72 422.567H439.608C457.403 422.567 471.829 408.144 471.829 390.353V42.3254C471.829 24.534 457.403 10.1113 439.608 10.1113Z" fill="url(#paint12_linear_2486_9079)"/>
<path style="mix-blend-mode:color-dodge" d="M439.595 10.1113H291.707C283.162 10.1144 274.969 13.5093 268.927 19.55C262.885 25.5906 259.489 33.7826 259.486 42.3254V390.341C259.489 398.884 262.885 407.076 268.927 413.117C274.969 419.157 283.162 422.552 291.707 422.555H439.595C443.827 422.555 448.018 421.722 451.928 420.102C455.837 418.482 459.39 416.109 462.382 413.116C465.374 410.123 467.747 406.571 469.366 402.661C470.984 398.751 471.817 394.561 471.815 390.33V42.3254C471.815 33.7817 468.42 25.5879 462.378 19.5466C456.335 13.5052 448.14 10.1113 439.595 10.1113ZM467.925 391.537C467.901 398.91 464.954 405.973 459.731 411.178C454.508 416.382 447.434 419.305 440.059 419.305H291.207C283.845 419.296 276.788 416.367 271.583 411.161C266.378 405.955 263.452 398.898 263.446 391.537V41.1413C263.455 33.7827 266.383 26.7281 271.587 21.5248C276.791 16.3215 283.847 13.3942 291.207 13.385H440.059C443.712 13.3758 447.332 14.0867 450.71 15.4771C454.088 16.8674 457.159 18.9099 459.747 21.4878C462.335 24.0657 464.39 27.1284 465.793 30.5007C467.196 33.873 467.921 37.4887 467.925 41.1413V391.537Z" fill="url(#paint13_linear_2486_9079)"/>
<path d="M463.7 42.3253V390.341C463.696 396.578 461.274 402.57 456.944 407.06C452.614 411.549 446.712 414.186 440.479 414.418C440.188 414.418 439.91 414.418 439.619 414.418H291.708C291.418 414.418 291.139 414.418 290.849 414.418C284.615 414.186 278.714 411.549 274.383 407.06C270.053 402.57 267.632 396.578 267.627 390.341V42.3253C267.636 35.9396 270.177 29.8181 274.694 25.3027C279.21 20.7873 285.333 18.2465 291.72 18.2373H439.596C445.985 18.2434 452.111 20.7829 456.629 25.2986C461.148 29.8143 463.691 35.9376 463.7 42.3253Z" fill="url(#paint14_linear_2486_9079)"/>
<g style="mix-blend-mode:multiply" opacity="0.45">
<path d="M463.7 42.3253V390.341C463.696 396.578 461.274 402.57 456.944 407.06C452.614 411.549 446.712 414.186 440.479 414.418C440.188 414.418 439.91 414.418 439.619 414.418H291.708C291.418 414.418 291.139 414.418 290.849 414.418C284.615 414.186 278.714 411.549 274.383 407.06C270.053 402.57 267.632 396.578 267.627 390.341V42.3253C267.636 35.9396 270.177 29.8181 274.694 25.3027C279.21 20.7873 285.333 18.2465 291.72 18.2373H439.596C445.985 18.2434 452.111 20.7829 456.629 25.2986C461.148 29.8143 463.691 35.9376 463.7 42.3253Z" fill="#26265F"/>
</g>
<path style="mix-blend-mode:screen" d="M463.7 42.3253V390.341C463.696 396.578 461.274 402.57 456.944 407.06C452.614 411.549 446.712 414.186 440.479 414.418C440.188 414.418 439.91 414.418 439.619 414.418H291.708C291.418 414.418 291.139 414.418 290.849 414.418C284.615 414.186 278.714 411.549 274.383 407.06C270.053 402.57 267.632 396.578 267.627 390.341V42.3253C267.636 35.9396 270.177 29.8181 274.694 25.3027C279.21 20.7873 285.333 18.2465 291.72 18.2373H439.596C445.985 18.2434 452.111 20.7829 456.629 25.2986C461.148 29.8143 463.691 35.9376 463.7 42.3253Z" fill="url(#paint15_linear_2486_9079)"/>
<path style="mix-blend-mode:screen" d="M267.615 42.3253V390.341C267.62 396.578 270.042 402.57 274.372 407.06C278.702 411.549 284.603 414.186 290.837 414.418C291.127 414.418 291.406 414.418 291.696 414.418H439.584C439.875 414.418 440.153 414.418 440.444 414.418C446.677 414.186 452.579 411.549 456.909 407.06C461.239 402.57 463.661 396.578 463.665 390.341V42.3253C463.656 35.9396 461.115 29.8181 456.599 25.3027C452.082 20.7873 445.96 18.2465 439.573 18.2373H291.719C285.331 18.2434 279.205 20.7829 274.686 25.2986C270.167 29.8143 267.624 35.9376 267.615 42.3253Z" fill="url(#paint16_linear_2486_9079)"/>
<path d="M424.571 91.0352H306.755C297.976 91.0352 290.859 98.1504 290.859 106.927V188.397C290.859 197.174 297.976 204.289 306.755 204.289H424.571C433.349 204.289 440.466 197.174 440.466 188.397V106.927C440.466 98.1504 433.349 91.0352 424.571 91.0352Z" fill="#5353CB"/>
<path d="M419.752 78.1604H311.574C309.051 78.1604 306.631 77.1591 304.845 75.3764C303.06 73.5937 302.056 71.1755 302.053 68.6529C302.053 67.4028 302.299 66.165 302.777 65.0101C303.256 63.8552 303.957 62.8058 304.841 61.9219C305.725 61.0379 306.775 60.3368 307.93 59.8584C309.085 59.38 310.323 59.1338 311.574 59.1338H419.752C422.276 59.1369 424.694 60.1411 426.477 61.926C428.26 63.7108 429.262 66.1303 429.262 68.6529C429.262 71.1744 428.26 73.5927 426.477 75.3757C424.693 77.1587 422.275 78.1604 419.752 78.1604Z" stroke="#5353CB" stroke-miterlimit="10"/>
<path d="M447.481 35.1738H436.543C435.966 35.1738 435.498 35.6416 435.498 36.2186V36.4043C435.498 36.9814 435.966 37.4491 436.543 37.4491H447.481C448.058 37.4491 448.525 36.9814 448.525 36.4043V36.2186C448.525 35.6416 448.058 35.1738 447.481 35.1738Z" fill="#5353CB"/>
<path d="M447.481 39.8643H436.543C435.966 39.8643 435.498 40.332 435.498 40.909V41.0948C435.498 41.6718 435.966 42.1396 436.543 42.1396H447.481C448.058 42.1396 448.525 41.6718 448.525 41.0948V40.909C448.525 40.332 448.058 39.8643 447.481 39.8643Z" fill="#5353CB"/>
<path d="M447.481 44.5537H436.543C435.966 44.5537 435.498 45.0215 435.498 45.5985V45.7842C435.498 46.3612 435.966 46.829 436.543 46.829H447.481C448.058 46.829 448.525 46.3612 448.525 45.7842V45.5985C448.525 45.0215 448.058 44.5537 447.481 44.5537Z" fill="#5353CB"/>
<path d="M298.512 40.027L291.383 33.8396C291.308 33.7773 291.214 33.7432 291.116 33.7432C291.019 33.7432 290.924 33.7773 290.849 33.8396L283.72 40.027C283.655 40.0807 283.608 40.1533 283.586 40.2348C283.564 40.3164 283.568 40.4027 283.598 40.4818C283.627 40.561 283.68 40.629 283.75 40.6765C283.82 40.7239 283.903 40.7485 283.987 40.7467H285.52C285.628 40.7467 285.731 40.7895 285.807 40.8657C285.883 40.9419 285.926 41.0453 285.926 41.153V46.8412C285.926 46.9521 285.97 47.0584 286.049 47.1368C286.127 47.2151 286.233 47.2592 286.344 47.2592H289.119C289.228 47.2562 289.331 47.2108 289.407 47.1327C289.483 47.0547 289.526 46.9501 289.526 46.8412V43.6837C289.529 43.5749 289.574 43.4716 289.652 43.3957C289.73 43.3198 289.835 43.2774 289.944 43.2774H292.335C292.443 43.2774 292.547 43.3202 292.623 43.3964C292.699 43.4726 292.742 43.576 292.742 43.6837V46.8412C292.742 46.9501 292.784 47.0547 292.86 47.1327C292.936 47.2108 293.039 47.2562 293.148 47.2592H295.923C296.032 47.2562 296.135 47.2108 296.211 47.1327C296.287 47.0547 296.33 46.9501 296.33 46.8412V41.153C296.33 41.0453 296.372 40.9419 296.449 40.8657C296.525 40.7895 296.628 40.7467 296.736 40.7467H298.269C298.351 40.7438 298.431 40.7159 298.497 40.6666C298.563 40.6174 298.613 40.5491 298.639 40.471C298.666 40.3929 298.668 40.3086 298.645 40.2292C298.622 40.1499 298.576 40.0794 298.512 40.027Z" fill="#5353CB"/>
<path d="M394.49 232.405H336.842C334.994 232.405 333.222 231.671 331.915 230.365C330.609 229.059 329.875 227.287 329.875 225.44C329.875 223.593 330.609 221.821 331.915 220.515C333.222 219.209 334.994 218.475 336.842 218.475H394.49C396.327 218.49 398.084 219.231 399.378 220.535C400.672 221.84 401.398 223.603 401.398 225.44C401.398 227.277 400.672 229.04 399.378 230.345C398.084 231.649 396.327 232.39 394.49 232.405Z" fill="#5353CB"/>
<path d="M386.383 242.946H344.943V246.94H386.383V242.946Z" fill="#5353CB"/>
<path d="M398.762 251.931H332.557V255.924H398.762V251.931Z" fill="#5353CB"/>
<path opacity="0.3" d="M440.456 291.099V414.429C440.166 414.429 439.887 414.429 439.597 414.429H291.709C291.419 414.429 291.14 414.429 290.85 414.429V291.099C290.85 289.437 291.177 287.792 291.813 286.257C292.449 284.721 293.381 283.326 294.556 282.151C295.732 280.976 297.127 280.044 298.662 279.408C300.198 278.773 301.844 278.445 303.506 278.445H427.8C429.462 278.445 431.108 278.773 432.643 279.408C434.179 280.044 435.574 280.976 436.749 282.151C437.925 283.326 438.857 284.721 439.493 286.257C440.129 287.792 440.456 289.437 440.456 291.099Z" fill="#5353CB"/>
<path d="M412.659 296.066H318.657C314.527 296.066 311.18 299.414 311.18 303.542V327.41C311.18 331.539 314.527 334.886 318.657 334.886H412.659C416.789 334.886 420.136 331.539 420.136 327.41V303.542C420.136 299.414 416.789 296.066 412.659 296.066Z" fill="#5353CB"/>
<path d="M412.659 345.846H318.657C314.527 345.846 311.18 349.193 311.18 353.322V377.189C311.18 381.318 314.527 384.665 318.657 384.665H412.659C416.789 384.665 420.136 381.318 420.136 377.189V353.322C420.136 349.193 416.789 345.846 412.659 345.846Z" fill="#5353CB"/>
<path d="M420.136 400.963V414.429H311.18V400.963C311.18 399.982 311.373 399.009 311.749 398.102C312.125 397.195 312.675 396.371 313.37 395.677C314.064 394.983 314.888 394.432 315.796 394.056C316.703 393.681 317.675 393.487 318.657 393.487H412.705C414.68 393.503 416.568 394.297 417.959 395.697C419.351 397.097 420.133 398.99 420.136 400.963Z" fill="#5353CB"/>
<path d="M453.993 390.353C454.362 390.353 454.717 390.206 454.978 389.945C455.239 389.683 455.386 389.329 455.386 388.96V70.9985C455.386 70.629 455.239 70.2747 454.978 70.0134C454.717 69.7522 454.362 69.6055 453.993 69.6055C453.623 69.6055 453.269 69.7522 453.008 70.0134C452.746 70.2747 452.6 70.629 452.6 70.9985V388.96C452.6 389.329 452.746 389.683 453.008 389.945C453.269 390.206 453.623 390.353 453.993 390.353Z" fill="#5353CB"/>
<path d="M453.995 240.125C453.586 240.127 453.182 240.048 452.805 239.893C452.427 239.738 452.084 239.51 451.795 239.222C451.506 238.934 451.276 238.592 451.12 238.215C450.963 237.838 450.883 237.434 450.883 237.026V218.452C450.883 218.044 450.963 217.64 451.12 217.263C451.276 216.886 451.506 216.544 451.795 216.256C452.084 215.968 452.427 215.74 452.805 215.585C453.182 215.43 453.586 215.351 453.995 215.353C454.817 215.353 455.605 215.679 456.187 216.26C456.768 216.842 457.095 217.63 457.095 218.452V237.026C457.095 237.848 456.768 238.636 456.187 239.218C455.605 239.799 454.817 240.125 453.995 240.125Z" fill="#5353CB"/>
<path d="M555.357 0H417.953C410.412 0 404.299 6.11211 404.299 13.6518C404.299 21.1915 410.412 27.3036 417.953 27.3036H555.357C562.898 27.3036 569.011 21.1915 569.011 13.6518C569.011 6.11211 562.898 0 555.357 0Z" fill="white"/>
<path d="M554.126 18.9103L550.793 15.1375C551.529 14.1893 551.911 13.0141 551.873 11.8146C551.834 10.6152 551.379 9.46664 550.584 8.56705C550.137 8.05949 549.594 7.64511 548.987 7.34759C548.379 7.05007 547.719 6.87525 547.044 6.83319C546.369 6.79114 545.692 6.88267 545.052 7.10251C544.413 7.32234 543.823 7.66614 543.316 8.1143C542.294 9.02239 541.674 10.2983 541.592 11.6625C541.509 13.0267 541.97 14.3681 542.875 15.3929C543.674 16.2886 544.76 16.8782 545.946 17.0603C547.133 17.2425 548.346 17.006 549.377 16.3913L552.709 20.1641C552.791 20.2577 552.891 20.3342 553.002 20.389C553.114 20.4438 553.236 20.4759 553.36 20.4835C553.484 20.4911 553.608 20.4739 553.726 20.433C553.843 20.3921 553.952 20.3284 554.044 20.2454C554.138 20.1634 554.214 20.0638 554.269 19.9521C554.324 19.8404 554.356 19.719 554.364 19.5949C554.371 19.4707 554.354 19.3462 554.313 19.2288C554.272 19.1113 554.209 19.003 554.126 18.9103ZM544.047 14.3481C543.422 13.6359 543.103 12.7048 543.162 11.7586C543.221 10.8123 543.652 9.92785 544.361 9.2984C544.712 8.98645 545.122 8.7468 545.566 8.59313C546.01 8.43945 546.48 8.37478 546.949 8.40281C547.418 8.43084 547.877 8.55098 548.299 8.75644C548.722 8.9619 549.1 9.24866 549.412 9.60024C550.041 10.3131 550.362 11.2467 550.303 12.1958C550.244 13.1449 549.811 14.0318 549.098 14.6616C548.386 15.2873 547.455 15.6056 546.508 15.5468C545.562 15.4881 544.677 15.0571 544.047 14.3481Z" fill="#7171F2"/>
<path d="M537.558 232.405H429.402C420.566 232.405 413.402 239.567 413.402 248.402V423.286C413.402 432.121 420.566 439.283 429.402 439.283H537.558C546.394 439.283 553.558 432.121 553.558 423.286V248.402C553.558 239.567 546.394 232.405 537.558 232.405Z" fill="url(#paint17_linear_2486_9079)"/>
<g style="mix-blend-mode:multiply">
<path style="mix-blend-mode:multiply" opacity="0.5" d="M533.725 249.481H433.232C429.744 249.481 426.916 252.309 426.916 255.797V291.563C426.916 295.051 429.744 297.878 433.232 297.878H533.725C537.213 297.878 540.041 295.051 540.041 291.563V255.797C540.041 252.309 537.213 249.481 533.725 249.481Z" fill="url(#paint18_linear_2486_9079)"/>
<path style="mix-blend-mode:multiply" opacity="0.5" d="M533.725 304.866H433.232C429.744 304.866 426.916 307.694 426.916 311.181V346.948C426.916 350.435 429.744 353.263 433.232 353.263H533.725C537.213 353.263 540.041 350.435 540.041 346.948V311.181C540.041 307.694 537.213 304.866 533.725 304.866Z" fill="url(#paint19_linear_2486_9079)"/>
<path style="mix-blend-mode:multiply" opacity="0.5" d="M533.725 360.251H433.232C429.744 360.251 426.916 363.078 426.916 366.566V402.332C426.916 405.82 429.744 408.647 433.232 408.647H533.725C537.213 408.647 540.041 405.82 540.041 402.332V366.566C540.041 363.078 537.213 360.251 533.725 360.251Z" fill="url(#paint20_linear_2486_9079)"/>
</g>
<g style="mix-blend-mode:multiply" opacity="0.5">
<path d="M498.871 263.296H473.896C473.037 263.296 472.213 262.955 471.605 262.347C470.998 261.74 470.656 260.916 470.656 260.057C470.656 259.632 470.74 259.211 470.903 258.818C471.066 258.425 471.304 258.068 471.605 257.767C471.906 257.466 472.263 257.228 472.656 257.065C473.049 256.902 473.47 256.818 473.896 256.818H498.871C499.296 256.818 499.717 256.902 500.11 257.065C500.503 257.228 500.861 257.466 501.161 257.767C501.462 258.068 501.701 258.425 501.864 258.818C502.026 259.211 502.11 259.632 502.11 260.057C502.11 260.916 501.769 261.74 501.161 262.347C500.554 262.955 499.73 263.296 498.871 263.296Z" fill="#AF3E82"/>
</g>
<g style="mix-blend-mode:multiply" opacity="0.5">
<path d="M503.492 269.669H470.656V273.024H503.492V269.669Z" fill="#AF3E82"/>
</g>
<g style="mix-blend-mode:multiply" opacity="0.5">
<path d="M516.461 276.541H470.656V279.896H516.461V276.541Z" fill="#AF3E82"/>
</g>
<path d="M460.285 256.818H438.074C436.182 256.818 434.648 258.352 434.648 260.243V282.45C434.648 284.342 436.182 285.875 438.074 285.875H460.285C462.177 285.875 463.711 284.342 463.711 282.45V260.243C463.711 258.352 462.177 256.818 460.285 256.818Z" fill="url(#paint21_linear_2486_9079)"/>
<path d="M452.961 266.012C452.961 267.01 452.565 267.966 451.86 268.672C451.154 269.377 450.197 269.773 449.2 269.773C448.204 269.77 447.25 269.373 446.547 268.668C445.844 267.963 445.449 267.008 445.449 266.012C445.449 265.017 445.844 264.062 446.547 263.357C447.25 262.652 448.204 262.254 449.2 262.251C450.197 262.251 451.154 262.647 451.86 263.353C452.565 264.058 452.961 265.015 452.961 266.012Z" fill="white"/>
<path d="M447.214 272.363H451.15C452.529 272.363 453.852 272.911 454.828 273.887C455.803 274.862 456.351 276.185 456.351 277.564V279.77C456.351 280.198 456.181 280.608 455.879 280.911C455.576 281.213 455.165 281.383 454.737 281.383H443.637C443.209 281.383 442.799 281.213 442.496 280.911C442.193 280.608 442.023 280.198 442.023 279.77V277.564C442.023 276.187 442.57 274.866 443.543 273.891C444.516 272.916 445.836 272.366 447.214 272.363Z" fill="white"/>
<g style="mix-blend-mode:multiply" opacity="0.5">
<path d="M498.871 311.031H473.896C472.107 311.031 470.656 312.481 470.656 314.27C470.656 316.059 472.107 317.509 473.896 317.509H498.871C500.66 317.509 502.11 316.059 502.11 314.27C502.11 312.481 500.66 311.031 498.871 311.031Z" fill="#AF3E82"/>
</g>
<g style="mix-blend-mode:multiply" opacity="0.5">
<path d="M503.492 323.882H470.656V327.237H503.492V323.882Z" fill="#AF3E82"/>
</g>
<g style="mix-blend-mode:multiply" opacity="0.5">
<path d="M516.461 330.754H470.656V334.109H516.461V330.754Z" fill="#AF3E82"/>
</g>
<path d="M460.285 311.031H438.074C436.182 311.031 434.648 312.564 434.648 314.456V336.663C434.648 338.555 436.182 340.088 438.074 340.088H460.285C462.177 340.088 463.711 338.555 463.711 336.663V314.456C463.711 312.564 462.177 311.031 460.285 311.031Z" fill="url(#paint22_linear_2486_9079)"/>
<path d="M452.961 320.225C452.961 321.223 452.565 322.179 451.86 322.885C451.154 323.59 450.197 323.986 449.2 323.986C448.204 323.983 447.25 323.586 446.547 322.881C445.844 322.175 445.449 321.221 445.449 320.225C445.449 319.23 445.844 318.275 446.547 317.57C447.25 316.865 448.204 316.467 449.2 316.464C450.197 316.464 451.154 316.86 451.86 317.565C452.565 318.271 452.961 319.228 452.961 320.225Z" fill="white"/>
<path d="M447.214 326.575H451.15C452.529 326.575 453.852 327.123 454.828 328.098C455.803 329.074 456.351 330.397 456.351 331.776V333.993C456.351 334.421 456.181 334.831 455.879 335.134C455.576 335.437 455.165 335.607 454.737 335.607H443.637C443.209 335.607 442.799 335.437 442.496 335.134C442.193 334.831 442.023 334.421 442.023 333.993V331.776C442.023 330.397 442.571 329.074 443.547 328.098C444.522 327.123 445.846 326.575 447.225 326.575H447.214Z" fill="white"/>
<g style="mix-blend-mode:multiply" opacity="0.5">
<path d="M498.871 373.589H473.896C473.47 373.589 473.049 373.505 472.656 373.342C472.263 373.18 471.906 372.941 471.605 372.64C471.304 372.34 471.066 371.983 470.903 371.59C470.74 371.197 470.656 370.776 470.656 370.35C470.656 369.491 470.998 368.667 471.605 368.06C472.213 367.453 473.037 367.111 473.896 367.111H498.871C499.73 367.111 500.554 367.453 501.161 368.06C501.769 368.667 502.11 369.491 502.11 370.35C502.11 370.776 502.026 371.197 501.864 371.59C501.701 371.983 501.462 372.34 501.161 372.64C500.861 372.941 500.503 373.18 500.11 373.342C499.717 373.505 499.296 373.589 498.871 373.589Z" fill="#AF3E82"/>
</g>
<g style="mix-blend-mode:multiply" opacity="0.5">
<path d="M503.492 379.963H470.656V383.318H503.492V379.963Z" fill="#AF3E82"/>
</g>
<g style="mix-blend-mode:multiply" opacity="0.5">
<path d="M516.461 386.835H470.656V390.19H516.461V386.835Z" fill="#AF3E82"/>
</g>
<path d="M460.285 367.111H438.074C436.182 367.111 434.648 368.645 434.648 370.536V392.743C434.648 394.635 436.182 396.168 438.074 396.168H460.285C462.177 396.168 463.711 394.635 463.711 392.743V370.536C463.711 368.645 462.177 367.111 460.285 367.111Z" fill="url(#paint23_linear_2486_9079)"/>
<path d="M452.961 376.307C452.961 377.305 452.565 378.261 451.86 378.967C451.154 379.672 450.197 380.068 449.2 380.068C448.204 380.065 447.25 379.668 446.547 378.963C445.844 378.258 445.449 377.303 445.449 376.307C445.449 375.312 445.844 374.357 446.547 373.652C447.25 372.947 448.204 372.549 449.2 372.546C450.197 372.546 451.154 372.942 451.86 373.648C452.565 374.353 452.961 375.31 452.961 376.307Z" fill="white"/>
<path d="M447.214 382.656H451.15C452.529 382.656 453.852 383.204 454.828 384.179C455.803 385.155 456.351 386.477 456.351 387.857V390.051C456.351 390.479 456.181 390.889 455.879 391.192C455.576 391.494 455.165 391.664 454.737 391.664H443.637C443.209 391.664 442.799 391.494 442.496 391.192C442.193 390.889 442.023 390.479 442.023 390.051V387.834C442.023 387.151 442.158 386.474 442.419 385.843C442.681 385.212 443.064 384.639 443.547 384.156C444.03 383.673 444.603 383.29 445.235 383.029C445.866 382.767 446.542 382.633 447.225 382.633L447.214 382.656Z" fill="white"/>
<path d="M309.856 73.1346V180.503C309.857 182.344 309.496 184.166 308.792 185.867C308.088 187.568 307.056 189.113 305.755 190.414C304.453 191.716 302.907 192.748 301.206 193.451C299.505 194.155 297.682 194.516 295.841 194.515H151.274C149.433 194.516 147.61 194.155 145.909 193.451C144.208 192.748 142.663 191.716 141.361 190.414C140.059 189.113 139.027 187.568 138.323 185.867C137.62 184.166 137.258 182.344 137.26 180.503V73.1346C137.258 71.2936 137.62 69.4703 138.323 67.769C139.027 66.0677 140.059 64.5217 141.36 63.2194C142.662 61.917 144.207 60.8839 145.908 60.179C147.609 59.4741 149.433 59.1113 151.274 59.1113H295.841C297.683 59.1113 299.506 59.4741 301.207 60.179C302.908 60.8839 304.454 61.917 305.755 63.2194C307.057 64.5217 308.089 66.0677 308.792 67.769C309.496 69.4703 309.857 71.2936 309.856 73.1346Z" fill="url(#paint24_linear_2486_9079)"/>
<path style="mix-blend-mode:screen" d="M309.856 73.1346V180.503C309.857 182.344 309.496 184.166 308.792 185.867C308.088 187.568 307.056 189.113 305.755 190.414C304.453 191.716 302.907 192.748 301.206 193.451C299.505 194.155 297.682 194.516 295.841 194.515H151.274C149.433 194.516 147.61 194.155 145.909 193.451C144.208 192.748 142.663 191.716 141.361 190.414C140.059 189.113 139.027 187.568 138.323 185.867C137.62 184.166 137.258 182.344 137.26 180.503V73.1346C137.258 71.2936 137.62 69.4703 138.323 67.769C139.027 66.0677 140.059 64.5217 141.36 63.2194C142.662 61.917 144.207 60.8839 145.908 60.179C147.609 59.4741 149.433 59.1113 151.274 59.1113H295.841C297.683 59.1113 299.506 59.4741 301.207 60.179C302.908 60.8839 304.454 61.917 305.755 63.2194C307.057 64.5217 308.089 66.0677 308.792 67.769C309.496 69.4703 309.857 71.2936 309.856 73.1346Z" fill="url(#paint25_radial_2486_9079)"/>
<g style="mix-blend-mode:multiply" opacity="0.55">
<path d="M292.486 167.919C292.486 168.284 292.415 168.644 292.275 168.981C292.136 169.317 291.931 169.623 291.674 169.881C291.416 170.139 291.11 170.343 290.773 170.482C290.437 170.622 290.076 170.694 289.711 170.694H165.103C164.367 170.694 163.661 170.401 163.141 169.881C162.62 169.361 162.328 168.655 162.328 167.919C162.328 167.557 162.399 167.197 162.539 166.863C162.678 166.528 162.883 166.224 163.141 165.969C163.397 165.709 163.703 165.503 164.04 165.364C164.377 165.224 164.738 165.154 165.103 165.156H289.711C290.445 165.156 291.149 165.447 291.67 165.965C292.19 166.483 292.483 167.185 292.486 167.919Z" fill="#BF4B5C"/>
</g>
<path d="M241.944 167.919C241.947 168.284 241.876 168.645 241.736 168.982C241.597 169.319 241.391 169.625 241.131 169.881C240.614 170.4 239.913 170.692 239.181 170.694H165.103C164.367 170.694 163.661 170.401 163.141 169.881C162.62 169.361 162.328 168.655 162.328 167.919C162.328 167.557 162.399 167.197 162.539 166.863C162.678 166.528 162.883 166.224 163.141 165.969C163.397 165.709 163.703 165.503 164.04 165.364C164.377 165.224 164.738 165.154 165.103 165.156H239.192C239.922 165.162 240.62 165.456 241.136 165.973C241.651 166.49 241.941 167.189 241.944 167.919Z" fill="url(#paint26_linear_2486_9079)"/>
<path d="M247.564 167.919C247.564 169.409 246.972 170.838 245.918 171.892C244.864 172.945 243.434 173.537 241.944 173.537C240.456 173.534 239.029 172.941 237.978 171.887C236.926 170.834 236.336 169.407 236.336 167.919C236.336 166.432 236.927 165.005 237.979 163.954C239.03 162.902 240.457 162.312 241.944 162.312C243.432 162.312 244.86 162.902 245.914 163.953C246.967 165.004 247.561 166.43 247.564 167.919Z" fill="#FCF7F8"/>
<path style="mix-blend-mode:multiply" d="M244.718 167.919C244.718 168.655 244.426 169.361 243.905 169.881C243.385 170.401 242.679 170.694 241.943 170.694C241.209 170.691 240.506 170.397 239.988 169.877C239.47 169.357 239.18 168.653 239.18 167.919C239.183 167.187 239.475 166.486 239.992 165.969C240.51 165.451 241.211 165.159 241.943 165.156C242.677 165.156 243.381 165.447 243.901 165.965C244.421 166.482 244.715 167.185 244.718 167.919Z" fill="url(#paint27_linear_2486_9079)"/>
<path d="M222.041 156.983C218.766 156.98 215.625 155.678 213.309 153.362C210.993 151.047 209.691 147.907 209.688 144.632C209.691 141.356 210.993 138.215 213.309 135.897C215.624 133.58 218.765 132.275 222.041 132.269C225.318 132.275 228.459 133.58 230.774 135.897C233.09 138.215 234.392 141.356 234.395 144.632C234.392 147.907 233.09 151.047 230.774 153.362C228.457 155.678 225.317 156.98 222.041 156.983ZM222.041 134.219C219.27 134.219 216.612 135.32 214.652 137.279C212.693 139.238 211.592 141.896 211.592 144.667C211.592 147.438 212.693 150.095 214.652 152.054C216.612 154.014 219.27 155.114 222.041 155.114C224.813 155.114 227.471 154.014 229.431 152.054C231.39 150.095 232.491 147.438 232.491 144.667C232.491 143.295 232.221 141.936 231.696 140.669C231.171 139.401 230.401 138.249 229.431 137.279C228.46 136.309 227.308 135.539 226.04 135.014C224.773 134.489 223.414 134.219 222.041 134.219Z" fill="white"/>
<path d="M227.443 145.537L220.825 149.681C220.662 149.782 220.475 149.838 220.284 149.843C220.093 149.848 219.903 149.802 219.736 149.71C219.568 149.618 219.428 149.483 219.329 149.319C219.231 149.154 219.178 148.967 219.176 148.776V140.464C219.178 140.273 219.231 140.085 219.329 139.921C219.428 139.757 219.568 139.622 219.736 139.53C219.903 139.438 220.093 139.392 220.284 139.397C220.475 139.402 220.662 139.458 220.825 139.559L227.443 143.703C227.599 143.8 227.727 143.935 227.817 144.095C227.906 144.256 227.953 144.436 227.953 144.62C227.953 144.804 227.906 144.984 227.817 145.145C227.727 145.305 227.599 145.44 227.443 145.537Z" fill="white"/>
<path d="M252.196 145.41L246.506 148.962C246.368 149.05 246.208 149.098 246.044 149.102C245.88 149.107 245.718 149.067 245.574 148.988C245.431 148.909 245.311 148.792 245.228 148.651C245.145 148.51 245.101 148.349 245.102 148.185V141.069C245.101 140.905 245.145 140.744 245.228 140.602C245.311 140.461 245.431 140.345 245.574 140.265C245.718 140.186 245.88 140.146 246.044 140.151C246.208 140.155 246.368 140.204 246.506 140.291L252.196 143.843C252.328 143.927 252.436 144.043 252.511 144.18C252.587 144.317 252.626 144.47 252.626 144.627C252.626 144.783 252.587 144.937 252.511 145.074C252.436 145.21 252.328 145.326 252.196 145.41Z" fill="white"/>
<path d="M257.676 145.41L251.987 148.962C251.848 149.05 251.688 149.098 251.524 149.102C251.361 149.107 251.198 149.067 251.055 148.988C250.911 148.909 250.792 148.792 250.709 148.651C250.626 148.51 250.582 148.349 250.582 148.185V141.069C250.582 140.905 250.626 140.744 250.709 140.602C250.792 140.461 250.911 140.345 251.055 140.265C251.198 140.186 251.361 140.146 251.524 140.151C251.688 140.155 251.848 140.204 251.987 140.291L257.676 143.843C257.808 143.927 257.917 144.043 257.992 144.18C258.067 144.317 258.107 144.47 258.107 144.627C258.107 144.783 258.067 144.937 257.992 145.074C257.917 145.21 257.808 145.326 257.676 145.41Z" fill="white"/>
<path d="M194.932 143.843L200.61 140.291C200.75 140.204 200.91 140.157 201.074 140.153C201.238 140.148 201.401 140.188 201.545 140.267C201.689 140.346 201.809 140.462 201.894 140.603C201.979 140.743 202.024 140.904 202.027 141.068V148.185C202.024 148.349 201.979 148.509 201.894 148.65C201.809 148.791 201.689 148.907 201.545 148.986C201.401 149.065 201.238 149.105 201.074 149.1C200.91 149.096 200.75 149.049 200.61 148.962L194.932 145.41C194.8 145.326 194.692 145.21 194.617 145.073C194.541 144.936 194.502 144.783 194.502 144.626C194.502 144.47 194.541 144.317 194.617 144.18C194.692 144.043 194.8 143.927 194.932 143.843Z" fill="white"/>
<path d="M189.45 143.843L195.128 140.291C195.267 140.204 195.428 140.157 195.592 140.153C195.756 140.148 195.918 140.188 196.062 140.267C196.206 140.346 196.327 140.462 196.412 140.603C196.496 140.743 196.542 140.904 196.544 141.068V148.185C196.542 148.349 196.496 148.509 196.412 148.65C196.327 148.791 196.206 148.907 196.062 148.986C195.918 149.065 195.756 149.105 195.592 149.1C195.428 149.096 195.267 149.049 195.128 148.962L189.45 145.41C189.318 145.326 189.209 145.21 189.134 145.073C189.059 144.936 189.02 144.783 189.02 144.626C189.02 144.47 189.059 144.317 189.134 144.18C189.209 144.043 189.318 143.927 189.45 143.843Z" fill="white"/>
<path d="M214.23 78.8691C212.974 78.8691 211.769 79.3681 210.88 80.2564C209.992 81.1446 209.493 82.3493 209.493 83.6055V113.208C208.745 112.952 207.961 112.819 207.171 112.813C203.989 112.813 201.365 114.752 201.365 117.143C201.365 119.534 203.943 121.485 207.171 121.485C210.399 121.485 212.976 119.546 212.976 117.143C212.976 117.038 212.976 116.946 212.976 116.829V87.4132H239.472V113.219C238.704 112.95 237.895 112.813 237.08 112.813C233.899 112.813 231.275 114.752 231.275 117.143C231.275 119.534 233.853 121.485 237.08 121.485C240.308 121.485 242.7 119.616 242.805 117.294V78.8691H214.23Z" fill="white"/>
<path d="M538.591 85.7529H466.011C457.739 85.7529 451.033 92.4575 451.033 100.728V189.534C451.033 197.805 457.739 204.51 466.011 204.51H538.591C546.863 204.51 553.569 197.805 553.569 189.534V100.728C553.569 92.4575 546.863 85.7529 538.591 85.7529Z" fill="url(#paint28_linear_2486_9079)"/>
<path style="mix-blend-mode:screen" d="M553.557 100.728V189.523C553.557 193.495 551.98 197.306 549.171 200.116C546.363 202.926 542.553 204.506 538.579 204.51H466C463.071 204.517 460.207 203.656 457.767 202.037C455.693 200.674 453.991 198.816 452.813 196.632C451.636 194.447 451.02 192.004 451.021 189.523V100.728C451.025 96.7574 452.604 92.9502 455.412 90.1425C458.22 87.3347 462.028 85.756 466 85.7529H538.579C542.551 85.756 546.359 87.3347 549.167 90.1425C551.975 92.9502 553.554 96.7574 553.557 100.728Z" fill="url(#paint29_radial_2486_9079)"/>
<path d="M526.944 125.2C526.948 129.254 525.95 133.246 524.04 136.822C522.13 140.399 519.367 143.448 515.995 145.701C511.943 148.418 507.173 149.865 502.294 149.857C497.412 149.864 492.639 148.417 488.582 145.701C485.212 143.447 482.45 140.397 480.54 136.821C478.63 133.245 477.632 129.254 477.633 125.2C477.633 121.962 478.271 118.757 479.51 115.766C480.75 112.775 482.567 110.058 484.857 107.769C487.147 105.48 489.866 103.665 492.858 102.427C495.85 101.189 499.056 100.553 502.294 100.555C505.532 100.553 508.738 101.19 511.729 102.428C514.721 103.666 517.439 105.481 519.728 107.77C522.017 110.059 523.833 112.776 525.071 115.767C526.309 118.758 526.946 121.963 526.944 125.2Z" fill="url(#paint30_linear_2486_9079)"/>
<path d="M510.608 121.909C511.915 117.295 509.233 112.495 504.618 111.188C500.003 109.882 495.202 112.563 493.896 117.177C492.589 121.792 495.271 126.591 499.886 127.898C504.501 129.205 509.302 126.523 510.608 121.909Z" fill="white"/>
<path d="M515.995 145.7C511.944 148.417 507.173 149.864 502.295 149.856C497.412 149.863 492.639 148.416 488.582 145.7C488.775 142.196 490.304 138.898 492.855 136.486C495.406 134.074 498.784 132.731 502.295 132.733C505.804 132.731 509.181 134.075 511.73 136.487C514.279 138.899 515.805 142.197 515.995 145.7Z" fill="white"/>
<path d="M525.064 169.985H479.538C478.804 169.985 478.076 169.84 477.398 169.559C476.72 169.277 476.104 168.865 475.585 168.345C475.066 167.826 474.655 167.208 474.375 166.53C474.095 165.851 473.952 165.124 473.953 164.389C473.953 162.908 474.542 161.488 475.589 160.441C476.636 159.394 478.057 158.806 479.538 158.806H525.064C526.545 158.809 527.963 159.398 529.01 160.445C530.057 161.491 530.646 162.909 530.649 164.389C530.649 165.871 530.061 167.293 529.014 168.342C527.967 169.391 526.547 169.982 525.064 169.985Z" fill="url(#paint31_linear_2486_9079)"/>
<g style="mix-blend-mode:multiply" opacity="0.5">
<path d="M528.478 177.636H476.113V181.397H528.478V177.636Z" fill="#734EEA"/>
</g>
<g style="mix-blend-mode:multiply" opacity="0.5">
<path d="M517.994 185.936H486.598V189.697H517.994V185.936Z" fill="#734EEA"/>
</g>
<path d="M366.82 50.0917V102.156H364.498V50.0917C364.495 47.0446 363.282 44.1232 361.127 41.9686C358.972 39.814 356.05 38.6021 353.003 38.5991H236.325C233.277 38.6021 230.355 39.814 228.2 41.9686C226.045 44.1232 224.833 47.0446 224.83 50.0917V59.1232H222.508V50.0917C222.514 46.4298 223.972 42.9196 226.561 40.3302C229.151 37.7409 232.662 36.2835 236.325 36.2773H352.98C356.646 36.2773 360.163 37.732 362.758 40.322C365.353 42.912 366.814 46.4258 366.82 50.0917Z" fill="url(#paint32_linear_2486_9079)"/>
<path d="M369.117 102.156C369.117 103.08 368.75 103.966 368.097 104.619C367.443 105.272 366.557 105.639 365.634 105.639C364.71 105.639 363.824 105.272 363.171 104.619C362.517 103.966 362.15 103.08 362.15 102.156C362.15 101.233 362.517 100.347 363.171 99.6938C363.824 99.0407 364.71 98.6738 365.634 98.6738C366.557 98.6738 367.443 99.0407 368.097 99.6938C368.75 100.347 369.117 101.233 369.117 102.156Z" fill="white"/>
<path d="M477.215 460.864H365.402C360.998 460.858 356.775 459.106 353.66 455.992C350.546 452.878 348.793 448.656 348.787 444.252V323.986H351.109V444.252C351.112 448.041 352.619 451.674 355.299 454.353C357.979 457.033 361.613 458.539 365.402 458.542H477.215C481.004 458.536 484.636 457.029 487.315 454.35C489.994 451.671 491.502 448.04 491.508 444.252V439.284H493.831V444.252C493.824 448.656 492.072 452.878 488.957 455.992C485.843 459.106 481.62 460.858 477.215 460.864Z" fill="url(#paint33_linear_2486_9079)"/>
<path d="M350.064 327.341C351.974 327.341 353.524 325.792 353.524 323.881C353.524 321.971 351.974 320.422 350.064 320.422C348.153 320.422 346.604 321.971 346.604 323.881C346.604 325.792 348.153 327.341 350.064 327.341Z" fill="white"/>
<path d="M576.29 274.185H540.041V271.864H576.29C580.348 271.857 584.237 270.242 587.104 267.371C589.972 264.5 591.582 260.609 591.582 256.552V164.089C591.579 160.035 589.967 156.148 587.1 153.281C584.233 150.415 580.345 148.803 576.29 148.8H560.325V146.479H576.29C580.96 146.485 585.436 148.342 588.738 151.643C592.04 154.944 593.898 159.42 593.904 164.089V256.552C593.904 261.224 592.049 265.706 588.746 269.012C585.444 272.319 580.964 274.179 576.29 274.185Z" fill="url(#paint34_linear_2486_9079)"/>
<path d="M561.149 151.18C563.06 151.18 564.61 149.631 564.61 147.72C564.61 145.81 563.06 144.261 561.149 144.261C559.239 144.261 557.689 145.81 557.689 147.72C557.689 149.631 559.239 151.18 561.149 151.18Z" fill="white"/>
<path d="M445.484 65.7394C445.484 66.6631 445.117 67.5489 444.464 68.202C443.811 68.8551 442.925 69.222 442.001 69.222C441.077 69.222 440.191 68.8551 439.538 68.202C438.885 67.5489 438.518 66.6631 438.518 65.7394C438.518 64.8158 438.885 63.93 439.538 63.2768C440.191 62.6237 441.077 62.2568 442.001 62.2568C442.925 62.2568 443.811 62.6237 444.464 63.2768C445.117 63.93 445.484 64.8158 445.484 65.7394Z" fill="white"/>
<path d="M477.483 66.9464H442.023V64.6246H477.483C480.118 64.6216 482.644 63.5737 484.508 61.7108C486.371 59.8479 487.419 57.3221 487.422 54.6876V27.3145H489.744V54.6876C489.741 57.9379 488.448 61.0542 486.15 63.3525C483.851 65.6507 480.734 66.9433 477.483 66.9464Z" fill="url(#paint35_linear_2486_9079)"/>
</g>
<defs>
<linearGradient id="paint0_linear_2486_9079" x1="760.409" y1="105.512" x2="700.917" y2="97.6177" gradientUnits="userSpaceOnUse">
<stop stop-color="#4C45E0"/>
<stop offset="0.19" stop-color="#453FCC" stop-opacity="0.81"/>
<stop offset="1" stop-color="#2A2876" stop-opacity="0"/>
</linearGradient>
<linearGradient id="paint1_linear_2486_9079" x1="675.048" y1="24.0526" x2="690.367" y2="57.4667" gradientUnits="userSpaceOnUse">
<stop stop-color="#4C45E0"/>
<stop offset="0.19" stop-color="#453FCC" stop-opacity="0.81"/>
<stop offset="1" stop-color="#2A2876" stop-opacity="0"/>
</linearGradient>
<linearGradient id="paint2_linear_2486_9079" x1="631.901" y1="58.0579" x2="688.963" y2="113.903" gradientUnits="userSpaceOnUse">
<stop stop-color="#4C45E0"/>
<stop offset="0.19" stop-color="#453FCC" stop-opacity="0.81"/>
<stop offset="1" stop-color="#2A2876" stop-opacity="0"/>
</linearGradient>
<linearGradient id="paint3_linear_2486_9079" x1="686.528" y1="370.148" x2="638.98" y2="363.83" gradientUnits="userSpaceOnUse">
<stop stop-color="#4C45E0"/>
<stop offset="0.19" stop-color="#453FCC" stop-opacity="0.81"/>
<stop offset="1" stop-color="#2A2876" stop-opacity="0"/>
</linearGradient>
<linearGradient id="paint4_linear_2486_9079" x1="618.305" y1="305.031" x2="630.549" y2="331.738" gradientUnits="userSpaceOnUse">
<stop stop-color="#4C45E0"/>
<stop offset="0.19" stop-color="#453FCC" stop-opacity="0.81"/>
<stop offset="1" stop-color="#2A2876" stop-opacity="0"/>
</linearGradient>
<linearGradient id="paint5_linear_2486_9079" x1="583.819" y1="332.209" x2="629.426" y2="376.844" gradientUnits="userSpaceOnUse">
<stop stop-color="#4C45E0"/>
<stop offset="0.19" stop-color="#453FCC" stop-opacity="0.81"/>
<stop offset="1" stop-color="#2A2876" stop-opacity="0"/>
</linearGradient>
<linearGradient id="paint6_linear_2486_9079" x1="241.625" y1="594.429" x2="244.145" y2="528.2" gradientUnits="userSpaceOnUse">
<stop stop-color="#4C45E0"/>
<stop offset="0.19" stop-color="#453FCC" stop-opacity="0.81"/>
<stop offset="1" stop-color="#2A2876" stop-opacity="0"/>
</linearGradient>
<linearGradient id="paint7_linear_2486_9079" x1="168.951" y1="486.312" x2="202.445" y2="509.218" gradientUnits="userSpaceOnUse">
<stop stop-color="#4C45E0"/>
<stop offset="0.19" stop-color="#453FCC" stop-opacity="0.81"/>
<stop offset="1" stop-color="#2A2876" stop-opacity="0"/>
</linearGradient>
<linearGradient id="paint8_linear_2486_9079" x1="213.994" y1="445.719" x2="264.109" y2="518.234" gradientUnits="userSpaceOnUse">
<stop stop-color="#4C45E0"/>
<stop offset="0.19" stop-color="#453FCC" stop-opacity="0.81"/>
<stop offset="1" stop-color="#2A2876" stop-opacity="0"/>
</linearGradient>
<linearGradient id="paint9_linear_2486_9079" x1="187.756" y1="321.706" x2="128.265" y2="313.812" gradientUnits="userSpaceOnUse">
<stop stop-color="#4C45E0"/>
<stop offset="0.19" stop-color="#453FCC" stop-opacity="0.81"/>
<stop offset="1" stop-color="#2A2876" stop-opacity="0"/>
</linearGradient>
<linearGradient id="paint10_linear_2486_9079" x1="102.396" y1="240.247" x2="117.714" y2="273.661" gradientUnits="userSpaceOnUse">
<stop stop-color="#4C45E0"/>
<stop offset="0.19" stop-color="#453FCC" stop-opacity="0.81"/>
<stop offset="1" stop-color="#2A2876" stop-opacity="0"/>
</linearGradient>
<linearGradient id="paint11_linear_2486_9079" x1="59.2488" y1="274.251" x2="116.311" y2="330.096" gradientUnits="userSpaceOnUse">
<stop stop-color="#4C45E0"/>
<stop offset="0.19" stop-color="#453FCC" stop-opacity="0.81"/>
<stop offset="1" stop-color="#2A2876" stop-opacity="0"/>
</linearGradient>
<linearGradient id="paint12_linear_2486_9079" x1="368.643" y1="30.589" x2="362.445" y2="416.647" gradientUnits="userSpaceOnUse">
<stop stop-color="#3F3AB7"/>
<stop offset="1" stop-color="#2A2876"/>
</linearGradient>
<linearGradient id="paint13_linear_2486_9079" x1="301.1" y1="12.375" x2="430.179" y2="420.376" gradientUnits="userSpaceOnUse">
<stop stop-color="#909DFB"/>
<stop offset="0.27" stop-color="#747CD6" stop-opacity="0.72"/>
<stop offset="1" stop-color="#2A2876" stop-opacity="0"/>
</linearGradient>
<linearGradient id="paint14_linear_2486_9079" x1="367.841" y1="-37.6119" x2="363.709" y2="444.02" gradientUnits="userSpaceOnUse">
<stop stop-color="#3C37AC"/>
<stop offset="1" stop-color="#18183C"/>
</linearGradient>
<linearGradient id="paint15_linear_2486_9079" x1="268.138" y1="216.339" x2="279.226" y2="216.339" gradientUnits="userSpaceOnUse">
<stop stop-color="#333090"/>
<stop offset="1" stop-color="#3C37AC" stop-opacity="0"/>
</linearGradient>
<linearGradient id="paint16_linear_2486_9079" x1="463.189" y1="216.339" x2="452.101" y2="216.339" gradientUnits="userSpaceOnUse">
<stop stop-color="#333090"/>
<stop offset="1" stop-color="#3C37AC" stop-opacity="0"/>
</linearGradient>
<linearGradient id="paint17_linear_2486_9079" x1="552.71" y1="439.887" x2="424.456" y2="247.056" gradientUnits="userSpaceOnUse">
<stop stop-color="#DC449A"/>
<stop offset="0.51" stop-color="#DF8ADC"/>
<stop offset="1" stop-color="#F2D1B7"/>
</linearGradient>
<linearGradient id="paint18_linear_2486_9079" x1="483.345" y1="303.125" x2="483.624" y2="244.641" gradientUnits="userSpaceOnUse">
<stop stop-color="#AF3E82"/>
<stop offset="1" stop-color="#DC5CB2" stop-opacity="0.3"/>
</linearGradient>
<linearGradient id="paint19_linear_2486_9079" x1="483.624" y1="353.971" x2="483.345" y2="304.321" gradientUnits="userSpaceOnUse">
<stop stop-color="#AF3E82"/>
<stop offset="1" stop-color="#DC5CB2" stop-opacity="0.3"/>
</linearGradient>
<linearGradient id="paint20_linear_2486_9079" x1="483.763" y1="413.268" x2="483.218" y2="357.279" gradientUnits="userSpaceOnUse">
<stop stop-color="#AF3E82"/>
<stop offset="1" stop-color="#DC5CB2" stop-opacity="0.3"/>
</linearGradient>
<linearGradient id="paint21_linear_2486_9079" x1="449.081" y1="291.284" x2="449.22" y2="262.182" gradientUnits="userSpaceOnUse">
<stop stop-color="#80C3E7"/>
<stop offset="1" stop-color="#A3FFEC"/>
</linearGradient>
<linearGradient id="paint22_linear_2486_9079" x1="449.081" y1="345.497" x2="449.22" y2="316.394" gradientUnits="userSpaceOnUse">
<stop stop-color="#8066EA"/>
<stop offset="1" stop-color="#C28BF7"/>
</linearGradient>
<linearGradient id="paint23_linear_2486_9079" x1="449.081" y1="401.577" x2="449.22" y2="372.475" gradientUnits="userSpaceOnUse">
<stop stop-color="#DE5D83"/>
<stop offset="1" stop-color="#EAAB71"/>
</linearGradient>
<linearGradient id="paint24_linear_2486_9079" x1="263.656" y1="240.926" x2="191.682" y2="36.0478" gradientUnits="userSpaceOnUse">
<stop stop-color="#DE5D83"/>
<stop offset="1" stop-color="#EAAB71"/>
</linearGradient>
<radialGradient id="paint25_radial_2486_9079" cx="0" cy="0" r="1" gradientUnits="userSpaceOnUse" gradientTransform="translate(140.174 49.9521) scale(107.308 107.287)">
<stop stop-color="#EAAB71"/>
<stop offset="1" stop-color="#DE5D83" stop-opacity="0"/>
</radialGradient>
<linearGradient id="paint26_linear_2486_9079" x1="189.695" y1="161.941" x2="266.147" y2="198.717" gradientUnits="userSpaceOnUse">
<stop stop-color="#F3D35B"/>
<stop offset="1" stop-color="#EBB02A" stop-opacity="0.3"/>
</linearGradient>
<linearGradient id="paint27_linear_2486_9079" x1="242.965" y1="169.962" x2="240.852" y2="165.736" gradientUnits="userSpaceOnUse">
<stop stop-color="#454490" stop-opacity="0"/>
<stop offset="1" stop-color="#E1727F"/>
</linearGradient>
<linearGradient id="paint28_linear_2486_9079" x1="546.533" y1="198.322" x2="464.88" y2="100.109" gradientUnits="userSpaceOnUse">
<stop stop-color="#6947E9"/>
<stop offset="1" stop-color="#C28BF7"/>
</linearGradient>
<radialGradient id="paint29_radial_2486_9079" cx="0" cy="0" r="1" gradientUnits="userSpaceOnUse" gradientTransform="translate(452.032 89.5141) scale(92.2486 92.2308)">
<stop stop-color="#EAAB71"/>
<stop offset="1" stop-color="#DE5D83" stop-opacity="0"/>
</radialGradient>
<linearGradient id="paint30_linear_2486_9079" x1="519.56" y1="148.777" x2="489.565" y2="107.805" gradientUnits="userSpaceOnUse">
<stop stop-color="#DC449A"/>
<stop offset="0.51" stop-color="#DF8ADC"/>
<stop offset="1" stop-color="#F2D1B7"/>
</linearGradient>
<linearGradient id="paint31_linear_2486_9079" x1="517.935" y1="193.504" x2="495.382" y2="151.5" gradientUnits="userSpaceOnUse">
<stop stop-color="#DE5D83"/>
<stop offset="1" stop-color="#EAAB71"/>
</linearGradient>
<linearGradient id="paint32_linear_2486_9079" x1="357.032" y1="115.065" x2="239.611" y2="-4.13192" gradientUnits="userSpaceOnUse">
<stop stop-color="white"/>
<stop offset="1" stop-color="#5353CB" stop-opacity="0"/>
</linearGradient>
<linearGradient id="paint33_linear_2486_9079" x1="348.787" y1="392.419" x2="493.796" y2="392.419" gradientUnits="userSpaceOnUse">
<stop stop-color="white"/>
<stop offset="1" stop-color="#5353CB" stop-opacity="0"/>
</linearGradient>
<linearGradient id="paint34_linear_2486_9079" x1="571.611" y1="160.943" x2="565.924" y2="287.86" gradientUnits="userSpaceOnUse">
<stop stop-color="white"/>
<stop offset="1" stop-color="#5353CB" stop-opacity="0"/>
</linearGradient>
<linearGradient id="paint35_linear_2486_9079" x1="456.386" y1="70.9165" x2="503.147" y2="28.9074" gradientUnits="userSpaceOnUse">
<stop stop-color="white"/>
<stop offset="1" stop-color="#5353CB" stop-opacity="0"/>
</linearGradient>
<clipPath id="clip0_2486_9079">
<rect width="456.645" height="460.864" fill="white" transform="translate(137.26)"/>
</clipPath>
</defs>
</svg>
