<?xml version="1.0" standalone="no"?>
<!DOCTYPE svg PUBLIC "-//W3C//DTD SVG 20010904//EN"
 "http://www.w3.org/TR/2001/REC-SVG-20010904/DTD/svg10.dtd">
<svg version="1.0" xmlns="http://www.w3.org/2000/svg"
 width="1282.000000pt" height="927.000000pt" viewBox="0 0 1282.000000 927.000000"
 preserveAspectRatio="xMidYMid meet">

<g transform="translate(0.000000,927.000000) scale(0.100000,-0.100000)"
fill="#000000" stroke="none">
<path d="M0 4635 l0 -4635 1783 0 c1373 0 1786 3 1795 12 17 17 15 30 -5 27
-34 -3 -42 1 -63 31 -17 23 -19 34 -11 44 14 16 24 166 12 166 -5 0 -20 -9
-34 -20 -28 -22 -62 -26 -73 -9 -4 7 -20 9 -40 6 -44 -7 -65 15 -40 42 15 16
15 22 4 40 -10 16 -10 23 0 33 10 10 18 9 41 -5 37 -21 45 -11 47 53 1 50 -10
70 -37 70 -26 0 -33 -18 -18 -46 11 -21 10 -27 -4 -41 -15 -16 -18 -15 -37 2
-18 16 -19 21 -6 40 9 14 11 27 5 36 -22 36 7 73 38 48 10 -9 19 -9 38 1 20
11 30 10 60 -4 33 -16 38 -16 59 -2 20 13 26 13 42 1 16 -12 17 -17 7 -34 -19
-31 -16 -46 12 -61 21 -11 29 -11 51 0 22 12 29 12 52 -1 35 -19 39 -45 10
-69 -30 -25 -31 -25 -68 6 -28 24 -33 25 -47 12 -13 -14 -13 -18 6 -35 32 -30
124 -29 137 1 6 14 20 22 41 24 25 3 34 9 39 28 13 51 72 69 116 34 35 -27 91
-21 154 19 28 17 56 31 63 31 8 0 11 -67 11 -240 l0 -241 188 2 c103 0 192 5
197 9 6 5 15 9 20 9 6 0 11 9 13 21 2 13 11 20 27 20 29 0 43 -18 21 -26 -9
-3 -16 -10 -16 -14 0 -5 10 -3 23 3 19 8 23 20 25 66 2 31 5 57 7 59 1 2 15 0
30 -4 15 -4 23 -9 18 -13 -5 -3 -14 -18 -20 -32 -11 -25 -10 -27 18 -31 37 -6
39 -3 39 43 0 45 7 51 49 39 22 -6 31 -5 32 3 2 38 5 88 7 135 l2 52 40 -6 40
-7 2 54 c1 30 1 71 0 92 -2 35 -1 37 28 37 35 0 38 -15 8 -47 -24 -26 -24 -28
15 -37 27 -6 27 -6 28 46 2 141 -1 133 43 133 38 0 40 1 41 35 0 19 2 56 3 82
l2 47 43 3 c42 3 42 3 42 43 l0 40 40 0 40 0 0 40 0 40 43 3 c42 3 43 4 41 35
-1 18 2 40 6 50 4 9 5 28 3 41 -5 22 -1 24 61 30 87 8 1097 8 1184 -1 l67 -6
-2 -36 -3 -35 43 3 44 3 -3 -34 c-1 -18 1 -40 4 -48 4 -8 5 -31 4 -50 -2 -35
-1 -35 38 -35 l40 0 0 -40 0 -40 43 3 42 3 1 -53 c1 -29 1 -70 0 -91 -2 -30 1
-37 16 -37 37 0 45 15 23 40 -26 30 -21 44 15 48 27 4 28 3 22 -37 -3 -23 -1
-44 4 -47 5 -3 8 -24 7 -46 l-3 -41 80 -2 c86 -2 95 -8 76 -56 l-9 -24 -11 28
c-14 35 -42 33 -52 -5 -9 -34 -3 -40 38 -32 37 7 50 -9 39 -51 -8 -31 -22 -32
-46 -3 -21 26 -27 24 -32 -12 -3 -23 0 -25 37 -25 l40 0 0 -137 c0 -75 4 -140
8 -144 3 -4 4 -18 1 -30 l-6 -24 505 0 505 0 4 276 3 276 34 26 c25 20 46 27
90 28 31 2 66 5 79 8 13 3 70 6 128 8 93 2 107 0 133 -20 17 -12 34 -22 39
-22 25 0 25 -227 0 -324 -15 -62 -70 -107 -174 -141 -104 -35 -164 -70 -164
-96 0 -18 16 -19 374 -19 323 0 375 2 380 15 3 9 18 15 36 15 27 0 30 3 30 30
0 25 4 29 28 29 15 -1 43 3 62 8 30 8 35 13 35 38 0 23 5 30 20 31 11 0 30 6
43 13 12 6 27 9 32 6 6 -3 10 1 10 10 0 9 -7 15 -17 13 -10 -2 -19 4 -21 13
-2 12 10 18 55 25 54 8 58 11 63 39 5 28 8 30 60 35 54 5 55 6 60 40 5 31 9
35 45 42 60 10 135 9 220 -3 73 -11 77 -13 72 -35 -6 -33 9 -42 73 -46 54 -3
55 -3 58 -36 3 -30 6 -33 27 -28 13 3 26 2 29 -3 3 -4 20 -11 38 -15 25 -5 29
-9 19 -16 -12 -7 -11 -12 10 -28 13 -11 21 -24 16 -28 -4 -4 -18 3 -31 15 -28
27 -46 21 -46 -15 0 -32 -27 -42 -45 -18 -13 19 -14 19 -47 0 -18 -11 -41 -27
-51 -38 -10 -10 -21 -18 -25 -18 -4 0 -13 -13 -20 -30 -8 -16 -20 -30 -27 -30
-7 0 -15 -7 -19 -15 -5 -13 163 -15 1474 -15 l1480 0 0 4635 0 4635 -6410 0
-6410 0 0 -4635z m8771 4317 c43 -22 59 -38 81 -81 36 -68 36 -114 0 -182 -22
-43 -38 -59 -81 -81 l-53 -28 -443 0 -443 0 -53 28 c-43 22 -59 38 -81 81 -16
31 -28 69 -28 91 0 22 12 60 28 91 22 43 38 59 81 81 l53 28 443 0 443 0 53
-28z m-3566 -61 c7 -12 -12 -24 -25 -16 -11 7 -4 25 10 25 5 0 11 -4 15 -9z
m145 -89 l0 -97 -46 0 c-51 0 -84 28 -84 69 0 35 43 69 79 64 29 -4 31 -3 31
29 0 18 5 33 10 33 6 0 10 -39 10 -98z m-1055 33 l0 -40 -40 0 c-36 0 -40 2
-43 28 -6 47 4 59 45 55 37 -3 38 -4 38 -43z m99 29 c9 -8 16 -22 16 -29 0
-18 -27 -45 -45 -45 -18 0 -45 27 -45 45 0 18 27 45 45 45 7 0 21 -7 29 -16z
m226 -94 l0 -70 -55 0 -55 0 0 70 0 70 55 0 55 0 0 -70z m130 0 c0 -40 -4 -70
-10 -70 -6 0 -10 27 -10 60 l0 60 -30 0 -30 0 0 -60 c0 -33 -4 -60 -10 -60 -6
0 -10 29 -10 68 l0 69 50 2 50 1 0 -70z m130 50 c11 -11 20 -29 20 -40 0 -16
-8 -19 -57 -22 l-58 -3 27 -18 c21 -15 31 -16 47 -7 23 12 28 1 9 -18 -18 -18
-42 -15 -72 9 -48 38 -22 119 39 119 14 0 34 -9 45 -20z m142 3 c23 -21 23
-65 1 -86 -10 -8 -31 -17 -48 -20 -21 -3 -16 -4 18 -6 l47 -1 0 -45 0 -45 -50
0 -50 0 0 40 c0 22 -3 40 -7 40 -5 0 -9 23 -10 52 -2 36 2 57 14 70 20 23 61
23 85 1z m138 7 c0 -5 -12 -10 -27 -12 -27 -3 -28 -6 -31 -60 -4 -77 -22 -75
-22 2 0 58 -1 60 -26 60 -14 0 -23 4 -19 9 7 12 125 13 125 1z m40 -60 c0 -40
-4 -70 -10 -70 -6 0 -10 30 -10 70 0 40 4 70 10 70 6 0 10 -30 10 -70z m700
55 c17 -21 7 -29 -18 -14 -29 18 -52 5 -52 -30 0 -37 31 -59 50 -36 10 12 9
15 -4 15 -9 0 -16 5 -16 10 0 6 11 10 25 10 17 0 25 -5 25 -18 0 -25 -20 -42
-50 -42 -36 0 -50 17 -50 60 0 20 5 41 12 48 17 17 63 15 78 -3z m110 5 c0 -5
-4 -10 -10 -10 -5 0 -10 5 -10 10 0 6 5 10 10 10 6 0 10 -4 10 -10z m90 -50
c0 -59 0 -60 -28 -60 -33 0 -52 16 -52 45 0 26 18 45 42 45 10 0 18 7 18 15 0
8 5 15 10 15 6 0 10 -27 10 -60z m736 52 c32 -21 17 -72 -21 -72 -18 0 -25 -5
-25 -20 0 -11 -4 -20 -10 -20 -6 0 -10 27 -10 60 0 59 1 60 28 60 15 0 32 -4
38 -8z m264 -53 l0 -60 -37 3 c-33 3 -38 7 -41 31 -4 33 13 57 39 57 11 0 19
7 19 15 0 8 5 15 10 15 6 0 10 -27 10 -61z m236 37 c9 -9 10 -17 4 -21 -14 -9
-12 -62 3 -69 6 -3 3 -5 -8 -3 -15 2 -21 12 -26 42 -6 37 -3 65 8 65 2 0 11
-6 19 -14z m-1356 -16 c0 -5 -7 -10 -15 -10 -10 0 -15 -11 -15 -35 0 -19 -4
-35 -10 -35 -5 0 -10 20 -10 45 0 41 2 45 25 45 14 0 25 -4 25 -10z m30 -35
c0 -25 -4 -45 -10 -45 -5 0 -10 20 -10 45 0 25 5 45 10 45 6 0 10 -20 10 -45z
m178 27 c3 -9 -3 -11 -22 -6 -34 8 -34 -4 0 -16 29 -11 30 -43 1 -48 -25 -5
-50 6 -42 18 5 8 11 7 21 -1 8 -6 18 -8 22 -4 4 4 2 10 -4 12 -52 18 -57 67
-7 61 14 -2 28 -9 31 -16z m732 8 c0 -5 -7 -10 -15 -10 -10 0 -15 -11 -15 -35
0 -19 -4 -35 -10 -35 -5 0 -10 20 -10 45 0 41 2 45 25 45 14 0 25 -4 25 -10z
m81 -11 c16 -30 -3 -69 -34 -69 -29 0 -47 17 -47 45 0 45 60 63 81 24z m141
-16 c2 -21 8 -38 13 -38 6 0 11 17 13 38 5 53 22 46 22 -9 0 -45 0 -45 -32
-42 -31 3 -33 6 -36 46 -2 23 1 42 7 42 5 0 11 -17 13 -37z m138 22 c11 -13 8
-14 -19 -9 -28 6 -31 4 -31 -19 0 -31 16 -43 36 -26 16 13 30 6 19 -10 -10
-17 -62 -13 -69 5 -21 55 29 101 64 59z m-2985 -70 l0 -40 -40 0 c-36 0 -40 2
-43 28 -6 47 4 59 45 55 37 -3 38 -4 38 -43z m110 0 l0 -40 -40 0 c-36 0 -40
2 -43 28 -6 47 4 59 45 55 37 -3 38 -4 38 -43z m-4015 -1040 c0 -163 6 -175
94 -175 83 0 86 6 86 171 l0 139 65 0 65 0 0 -144 c0 -155 -6 -185 -48 -229
-58 -61 -216 -74 -302 -26 -69 39 -80 72 -80 249 l0 150 60 0 60 0 0 -135z
m860 95 l0 -40 -65 0 -65 0 0 40 0 40 65 0 65 0 0 -40z m1920 -170 l0 -210
-60 0 -60 0 -1 33 c0 30 -1 30 -11 10 -24 -49 -123 -68 -188 -35 -50 25 -75
74 -75 147 1 72 18 111 65 143 30 20 44 23 94 20 49 -4 63 -9 83 -32 l23 -27
0 80 0 81 65 0 65 0 0 -210z m150 170 l0 -40 -65 0 -65 0 0 40 0 40 65 0 65 0
0 -40z m2425 -99 l59 -139 32 82 c17 44 41 107 54 139 l23 57 83 0 84 0 0
-210 0 -210 -60 0 -60 0 0 113 -1 112 -42 -102 -42 -103 -72 0 c-83 0 -75 -8
-129 125 l-33 80 -1 -112 0 -113 -60 0 -60 0 0 210 0 210 83 0 83 0 59 -139z
m1915 99 l0 -40 -65 0 -65 0 0 40 0 40 65 0 65 0 0 -40z m2280 -65 c0 -104 0
-105 24 -105 18 0 32 13 56 50 l32 50 75 0 c59 0 73 -3 66 -12 -5 -7 -30 -40
-56 -74 l-46 -61 55 -81 54 -82 -74 0 -74 0 -32 50 c-24 37 -38 50 -56 50 -22
0 -24 -4 -24 -50 l0 -50 -65 0 -65 0 0 210 0 210 65 0 65 0 0 -105z m-8510 25
c0 -29 2 -30 45 -30 l45 0 0 -45 0 -45 -46 0 -45 0 3 -52 3 -53 43 -3 42 -3 0
-55 0 -54 -67 0 c-50 0 -77 5 -100 20 -36 22 -42 37 -45 130 -3 59 -5 65 -25
68 -20 3 -23 9 -23 47 0 38 3 44 23 47 16 2 23 11 25 31 3 26 5 27 63 27 59 0
59 0 59 -30z m6000 0 c0 -28 2 -30 40 -30 l40 0 0 -45 0 -45 -40 0 -40 0 0
-55 0 -55 40 0 40 0 0 -55 0 -55 -71 0 c-67 0 -73 2 -105 34 -33 33 -34 37
-34 110 0 74 -1 76 -25 76 -23 0 -25 4 -25 45 0 41 2 45 25 45 21 0 25 5 25
30 l0 30 65 0 65 0 0 -30z m-6362 -53 c26 -27 27 -31 30 -157 l4 -130 -60 0
-60 0 -4 96 c-4 106 -9 114 -70 114 -50 0 -58 -18 -58 -124 l0 -86 -60 0 -60
0 0 155 0 155 60 0 c59 0 60 -1 61 -27 0 -16 3 -22 6 -15 23 57 161 69 211 19z
m759 7 c44 -33 64 -67 66 -114 l2 -45 -122 -3 c-68 -1 -123 -6 -123 -10 0 -32
105 -47 116 -17 5 11 22 15 65 15 57 0 59 -1 59 -26 0 -61 -98 -111 -198 -101
-95 10 -149 58 -158 142 -8 71 25 132 86 163 58 30 164 28 207 -4z m450 9 c60
-28 73 -62 73 -190 l0 -113 -60 0 c-55 0 -60 2 -60 22 0 21 0 21 -26 -3 -22
-20 -36 -24 -89 -24 -53 0 -67 4 -89 24 -30 28 -34 74 -11 108 16 22 88 43
150 43 45 0 65 9 58 26 -7 20 -82 19 -89 -1 -5 -11 -22 -15 -70 -15 l-64 0 6
28 c12 45 36 74 79 93 51 24 145 25 192 2z m1360 -9 c44 -33 64 -67 66 -114
l2 -45 -122 -3 c-68 -1 -123 -6 -123 -10 0 -32 105 -47 116 -17 5 11 22 15 65
15 57 0 59 -1 59 -26 0 -61 -98 -111 -198 -101 -95 10 -149 58 -158 142 -8 71
25 132 86 163 58 30 164 28 207 -4z m431 -7 c26 -27 27 -31 30 -157 l4 -130
-60 0 -60 0 -4 96 c-4 106 -9 114 -70 114 -50 0 -58 -18 -58 -124 l0 -86 -60
0 -60 0 0 155 0 155 60 0 c59 0 60 -1 61 -27 0 -16 3 -22 6 -15 23 57 161 69
211 19z m339 14 c46 -21 69 -51 79 -99 l7 -32 -66 0 c-56 0 -65 3 -70 20 -4
15 -14 20 -40 20 -56 0 -67 -8 -67 -49 0 -44 14 -61 51 -61 38 0 59 10 59 26
0 11 16 14 66 14 l66 0 -7 -32 c-16 -76 -107 -126 -205 -115 -105 13 -155 65
-155 164 0 74 20 107 85 141 56 28 138 29 197 3z m355 9 c20 -6 50 -26 67 -46
26 -29 31 -43 31 -84 l0 -50 -120 0 c-66 0 -120 -4 -120 -8 0 -32 102 -47 114
-17 4 11 21 15 66 15 58 0 60 -1 60 -26 0 -52 -84 -104 -168 -104 -130 0 -207
81 -188 198 16 100 134 156 258 122z m370 0 c42 -12 78 -52 78 -86 0 -23 -4
-24 -60 -24 -33 0 -60 4 -60 9 0 13 -50 20 -74 11 -28 -11 -11 -17 78 -29 39
-6 81 -18 95 -29 55 -40 47 -108 -17 -145 -40 -24 -134 -33 -188 -18 -49 13
-94 55 -94 87 0 23 4 24 59 24 33 0 63 -4 66 -10 8 -13 85 -13 85 -1 0 6 -21
13 -47 16 -113 14 -127 18 -150 41 -47 47 -18 133 50 153 44 13 134 13 179 1z
m1272 -20 c96 -66 88 -214 -14 -274 -49 -29 -161 -29 -209 -1 -58 34 -76 68
-76 140 0 76 19 109 86 143 61 32 159 28 213 -8z m407 14 c46 -23 59 -67 59
-194 l0 -110 -65 0 -65 0 0 93 c0 105 -6 117 -60 117 -54 0 -60 -12 -60 -117
l0 -93 -65 0 -65 0 0 155 0 155 60 0 60 0 0 -31 0 -32 21 27 c12 15 31 32 43
36 34 14 105 11 137 -6z m359 -6 c52 -26 80 -73 80 -130 l0 -37 -127 -3 c-121
-3 -126 -4 -109 -20 22 -23 94 -25 102 -3 5 11 23 15 71 15 l65 0 -6 -27 c-15
-65 -106 -110 -202 -100 -107 11 -154 61 -154 161 0 41 6 68 20 91 45 72 171
98 260 53z m762 12 c42 -12 78 -52 78 -86 0 -23 -4 -24 -60 -24 -33 0 -60 4
-60 9 0 13 -50 20 -74 11 -28 -11 -11 -17 78 -29 39 -6 81 -18 95 -29 55 -40
47 -108 -17 -145 -40 -24 -134 -33 -188 -18 -49 13 -94 55 -94 87 0 23 4 24
59 24 33 0 63 -4 66 -10 8 -13 85 -13 85 -1 0 6 -21 13 -47 16 -113 14 -127
18 -150 41 -47 47 -18 133 50 153 44 13 134 13 179 1z m385 -10 c53 -23 83
-70 83 -127 l0 -43 -120 0 c-96 0 -120 -3 -120 -14 0 -28 96 -38 106 -11 5 11
22 15 70 15 58 0 64 -2 64 -21 0 -32 -60 -86 -111 -99 -55 -15 -140 -7 -182
17 -41 24 -67 76 -67 136 0 71 39 131 100 156 42 16 131 12 177 -9z m1053 -2
c81 -42 109 -117 75 -204 -45 -118 -234 -141 -325 -38 -27 31 -30 42 -30 97 0
43 6 71 19 93 43 71 173 96 261 52z m401 -7 c25 -26 29 -37 29 -85 l0 -56 -58
0 c-57 0 -58 1 -67 32 -11 35 -37 47 -60 28 -11 -9 -15 -37 -15 -111 l0 -99
-60 0 -60 0 0 155 0 155 60 0 c55 0 60 -2 60 -22 0 -19 2 -20 13 -6 38 48 115
52 158 9z m-8521 -136 l0 -155 -65 0 -65 0 0 155 0 155 65 0 65 0 0 -155z
m1250 66 c0 -102 10 -121 65 -121 55 0 65 19 65 121 l0 89 60 0 60 0 0 -155 0
-155 -55 0 -55 0 0 38 -1 37 -17 -27 c-50 -81 -192 -74 -234 12 -14 27 -18 60
-18 143 l0 107 65 0 65 0 0 -89z m820 -66 l0 -155 -65 0 -65 0 0 155 0 155 65
0 65 0 0 -155z m4340 0 l0 -155 -65 0 -65 0 0 155 0 155 65 0 65 0 0 -155z
m964 139 c3 -9 12 -56 18 -105 l12 -89 26 103 25 102 85 0 85 0 26 -102 25
-103 12 90 c17 125 13 120 87 120 l63 0 -39 -147 c-21 -82 -39 -151 -39 -155
0 -5 -36 -8 -80 -8 l-79 0 -27 88 c-34 114 -36 119 -39 107 -2 -5 -16 -52 -31
-102 l-27 -93 -78 0 -77 0 -11 33 c-5 17 -22 79 -36 137 -14 58 -28 113 -31
123 -5 15 2 17 59 17 50 0 66 -4 71 -16z m-3224 -234 l0 -60 -80 0 -80 0 0 60
0 60 80 0 80 0 0 -60z m4970 0 l0 -60 -80 0 -80 0 0 60 0 60 80 0 80 0 0 -60z
m-9779 -350 c110 -31 133 -176 36 -224 -37 -18 -38 -19 -17 -33 11 -8 36 -46
55 -84 l35 -69 -73 0 -73 0 -29 61 c-33 67 -47 79 -99 79 l-36 0 0 -70 0 -70
-60 0 -60 0 0 210 0 210 143 0 c78 0 158 -5 178 -10z m2179 -200 l0 -210 -60
0 -60 0 -1 33 c0 30 -1 30 -11 10 -24 -49 -123 -68 -188 -35 -50 25 -75 74
-75 147 1 72 18 111 65 143 30 20 44 23 94 20 49 -4 63 -9 83 -32 l23 -27 0
80 0 81 65 0 65 0 0 -210z m340 165 l0 -45 -40 0 c-22 0 -40 -4 -40 -10 0 -5
18 -10 40 -10 l40 0 0 -45 0 -45 -40 0 -40 0 0 -110 0 -110 -60 0 -59 0 -3
108 c-3 102 -4 107 -25 110 -20 3 -23 9 -23 48 0 39 2 44 23 44 16 0 28 9 36
27 21 46 88 81 159 82 31 1 32 0 32 -44z m-2113 -81 c44 -33 64 -67 66 -114
l2 -45 -122 -3 c-68 -1 -123 -6 -123 -10 0 -32 105 -47 116 -17 5 11 22 15 65
15 57 0 59 -1 59 -26 0 -61 -98 -111 -198 -101 -95 10 -149 58 -158 142 -8 71
25 132 86 163 58 30 164 28 207 -4z m938 12 c60 -25 75 -64 75 -193 l0 -113
-60 0 c-55 0 -60 2 -60 22 l0 21 -25 -23 c-55 -52 -185 -29 -201 35 -17 68 25
103 136 112 74 6 96 15 86 32 -11 17 -86 14 -92 -4 -5 -11 -22 -15 -65 -15
-53 0 -59 2 -59 20 0 38 29 77 72 99 51 25 141 28 193 7z m378 3 c32 -15 47
-49 47 -109 l0 -50 -60 0 c-56 0 -60 2 -60 23 0 45 -50 65 -70 28 -5 -11 -10
-60 -10 -110 l0 -91 -60 0 -60 0 0 155 0 155 60 0 c54 0 60 -2 60 -21 0 -20 1
-20 31 5 33 28 81 34 122 15z m1086 -7 c63 -32 74 -58 79 -187 l5 -115 -62 0
c-60 0 -61 1 -61 27 0 27 0 27 -15 6 -31 -44 -135 -55 -190 -19 -31 21 -42 69
-21 101 23 36 48 45 134 53 59 5 77 11 77 22 0 22 -75 27 -87 6 -7 -12 -25
-16 -70 -16 l-60 0 6 32 c8 40 47 82 89 96 52 16 138 14 176 -6z m442 -20 c29
-32 29 -34 29 -157 l0 -125 -60 0 -60 0 0 79 c0 44 -4 91 -10 105 -8 23 -15
26 -55 26 -40 0 -47 -3 -55 -26 -6 -14 -10 -61 -10 -105 l0 -79 -60 0 -60 0 0
155 0 155 60 0 c59 0 60 -1 60 -27 1 -24 2 -26 13 -13 31 40 61 51 121 47 51
-3 63 -8 87 -35z m312 24 c39 -16 63 -42 72 -78 l7 -28 -66 0 c-36 0 -66 4
-66 9 0 11 -49 21 -67 14 -28 -11 -11 -22 45 -28 113 -12 162 -44 162 -105 0
-51 -81 -100 -164 -100 -93 0 -176 47 -176 101 0 17 7 19 59 19 33 0 63 -4 66
-10 8 -13 85 -13 85 -1 0 6 -21 13 -47 16 -27 3 -66 9 -87 12 -85 12 -116 97
-56 153 17 16 41 31 53 33 50 10 150 6 180 -7z m-2944 -48 c5 -29 13 -75 17
-103 l7 -50 12 55 c7 30 18 76 26 103 l13 47 82 0 83 0 15 -52 c8 -29 19 -72
25 -96 12 -55 21 -65 21 -24 0 17 5 63 12 102 l12 70 63 0 c44 0 63 -4 63 -12
0 -7 -17 -76 -38 -153 l-38 -140 -77 -3 c-89 -3 -79 -14 -121 131 l-23 78 -20
-78 c-38 -142 -31 -133 -121 -133 l-78 0 -33 138 c-19 75 -36 145 -39 155 -4
15 4 17 61 17 l66 0 10 -52z m3211 -198 l0 -60 -80 0 -80 0 0 60 0 60 80 0 80
0 0 -60z m-3928 -455 c0 -5 -5 -11 -11 -13 -6 -2 -11 4 -11 13 0 9 5 15 11 13
6 -2 11 -8 11 -13z m1608 0 c0 -8 -4 -15 -10 -15 -5 0 -10 7 -10 15 0 8 5 15
10 15 6 0 10 -7 10 -15z m435 -1 c-17 -13 -18 -16 -5 -25 11 -8 12 -12 3 -16
-8 -2 -13 -22 -13 -44 0 -21 -4 -39 -10 -39 -5 0 -10 18 -10 39 0 22 -5 42
-12 44 -9 4 -10 8 -2 14 6 4 13 16 17 26 4 9 16 17 29 17 23 -1 23 -1 3 -16z
m1859 -5 c-3 -5 -10 -7 -15 -3 -5 3 -7 10 -3 15 3 5 10 7 15 3 5 -3 7 -10 3
-15z m368 6 c0 -5 -5 -11 -11 -13 -6 -2 -11 4 -11 13 0 9 5 15 11 13 6 -2 11
-8 11 -13z m410 0 c0 -5 -5 -11 -11 -13 -6 -2 -11 4 -11 13 0 9 5 15 11 13 6
-2 11 -8 11 -13z m148 0 c0 -8 -4 -15 -10 -15 -5 0 -10 7 -10 15 0 8 5 15 10
15 6 0 10 -7 10 -15z m-4982 -57 l-3 -63 -34 0 c-19 0 -36 6 -38 12 -3 9 4 11
26 7 l31 -6 0 56 c0 32 4 56 10 56 7 0 10 -24 8 -62z m422 48 c0 -9 12 -16 28
-18 25 -3 27 -7 30 -50 2 -29 -1 -48 -7 -48 -6 0 -11 18 -11 40 0 33 -3 40
-20 40 -17 0 -20 -7 -20 -40 0 -22 -4 -40 -10 -40 -6 0 -10 28 -10 65 0 37 4
65 10 65 6 0 10 -6 10 -14z m1870 -1 c0 -9 9 -15 24 -15 32 0 48 -22 44 -62
-3 -31 -5 -33 -45 -36 l-43 -3 0 65 c0 37 4 66 10 66 6 0 10 -7 10 -15z m450
-50 l0 -65 -33 0 c-40 0 -57 15 -57 50 0 32 17 50 47 50 14 0 23 6 23 15 0 8
5 15 10 15 6 0 10 -28 10 -65z m470 -1 l0 -65 -41 3 c-51 4 -68 24 -53 65 7
20 17 29 37 31 15 2 27 9 27 18 0 8 7 14 15 14 12 0 15 -14 15 -66z m2080 52
c0 -9 12 -16 28 -18 25 -3 27 -7 30 -50 2 -29 -1 -48 -7 -48 -6 0 -11 18 -11
40 0 33 -3 40 -20 40 -17 0 -20 -7 -20 -40 0 -22 -4 -40 -10 -40 -6 0 -10 28
-10 65 0 37 4 65 10 65 6 0 10 -6 10 -14z m470 -1 c0 -9 9 -15 23 -15 33 0 47
-19 47 -62 0 -27 -4 -38 -15 -38 -11 0 -15 11 -15 41 0 33 -3 40 -17 37 -13
-2 -19 -14 -21 -41 -5 -62 -22 -41 -22 28 0 37 4 65 10 65 6 0 10 -7 10 -15z
m-5392 -12 c12 -12 13 -18 4 -21 -14 -4 -17 -62 -2 -62 6 0 10 -4 10 -10 0 -5
-9 -10 -20 -10 -17 0 -20 7 -20 39 0 22 -5 41 -12 43 -9 3 -8 9 2 21 19 20 18
20 38 0z m630 0 c12 -12 13 -18 4 -21 -14 -4 -17 -62 -2 -62 6 0 10 -5 10 -11
0 -6 -8 -9 -17 -7 -25 5 -40 118 -16 118 2 0 12 -8 21 -17z m710 0 c12 -12 13
-18 4 -21 -14 -4 -17 -62 -2 -62 6 0 10 -5 10 -11 0 -6 -8 -9 -17 -7 -25 5
-40 118 -16 118 2 0 12 -8 21 -17z m1980 0 c12 -12 13 -18 4 -21 -14 -4 -17
-62 -2 -62 6 0 10 -4 10 -10 0 -5 -9 -10 -20 -10 -17 0 -20 7 -20 39 0 22 -5
41 -12 43 -9 3 -8 9 2 21 19 20 18 20 38 0z m2020 0 c12 -12 13 -18 4 -21 -14
-4 -17 -62 -2 -62 6 0 10 -5 10 -11 0 -6 -8 -9 -17 -7 -25 5 -40 118 -16 118
2 0 12 -8 21 -17z m-5603 -27 c23 -35 5 -76 -33 -76 -35 0 -52 16 -52 50 0 52
57 69 85 26z m45 -26 c0 -27 -4 -50 -10 -50 -5 0 -10 23 -10 50 0 28 5 50 10
50 6 0 10 -22 10 -50z m104 34 c9 -25 7 -84 -3 -84 -6 0 -11 17 -13 37 -2 27
-8 39 -20 41 -15 3 -18 -4 -18 -37 0 -30 -4 -41 -15 -41 -11 0 -15 12 -15 50
l0 50 39 0 c26 0 41 -5 45 -16z m324 4 c7 -7 12 -20 12 -30 0 -14 -8 -18 -36
-18 -23 0 -33 -4 -28 -11 4 -6 19 -9 36 -5 21 4 28 2 26 -7 -6 -17 -56 -21
-74 -6 -17 14 -19 60 -2 77 7 7 21 12 33 12 12 0 26 -5 33 -12z m160 -40 c2
-29 -1 -48 -7 -48 -6 0 -11 18 -11 41 0 33 -3 40 -17 37 -13 -2 -19 -14 -21
-41 -5 -55 -22 -45 -22 14 l0 50 38 -3 c37 -3 37 -3 40 -50z m100 40 c7 -7 12
-20 12 -30 0 -14 -8 -18 -36 -18 -23 0 -33 -4 -28 -11 4 -6 19 -9 36 -5 21 4
28 2 26 -7 -6 -17 -56 -21 -74 -6 -17 14 -19 60 -2 77 7 7 21 12 33 12 12 0
26 -5 33 -12z m58 -5 c12 -17 13 -17 19 0 4 9 14 17 21 17 12 0 12 -4 -2 -25
-15 -23 -15 -27 0 -50 14 -21 14 -25 2 -25 -8 0 -19 8 -25 18 -9 16 -10 16
-16 0 -4 -10 -14 -18 -21 -18 -12 0 -12 4 1 24 15 23 15 27 0 50 -20 30 -1 38
21 9z m272 -46 c-3 -67 -18 -84 -61 -73 -37 9 -34 24 4 22 18 0 34 4 36 11 3
7 -3 9 -16 6 -28 -7 -51 14 -51 46 0 36 17 51 57 49 l34 -1 -3 -60z m102 44
c17 -32 12 -41 -25 -41 -19 0 -35 -4 -35 -9 0 -14 27 -20 39 -8 6 6 14 8 18 4
12 -13 -14 -29 -43 -25 -25 3 -29 8 -32 36 -2 18 2 40 9 48 17 20 57 17 69 -5z
m104 3 c9 -25 7 -84 -3 -84 -6 0 -11 17 -13 37 -2 27 -8 39 -20 41 -15 3 -18
-4 -18 -37 0 -30 -4 -41 -15 -41 -11 0 -15 12 -15 50 l0 50 39 0 c26 0 41 -5
45 -16z m106 -3 c17 -32 12 -41 -25 -41 -19 0 -35 -4 -35 -9 0 -14 27 -20 39
-8 6 6 14 8 18 4 12 -13 -14 -29 -43 -25 -25 3 -29 8 -32 36 -2 18 2 40 9 48
17 20 57 17 69 -5z m80 9 c0 -5 -7 -10 -15 -10 -11 0 -15 -11 -15 -40 0 -29
-4 -40 -15 -40 -11 0 -15 12 -15 50 0 49 1 50 30 50 17 0 30 -4 30 -10z m88
-43 l3 -48 -38 3 c-31 2 -39 7 -41 26 -3 18 2 23 27 28 17 4 31 11 31 17 0 5
-13 7 -30 4 -16 -4 -30 -3 -30 2 0 15 15 22 45 19 28 -3 30 -6 33 -51z m112 3
c0 -27 -4 -50 -10 -50 -5 0 -10 23 -10 50 0 28 5 50 10 50 6 0 10 -22 10 -50z
m98 38 c7 -7 12 -24 12 -38 0 -31 -17 -50 -45 -50 -28 0 -45 19 -45 50 0 31
17 50 45 50 12 0 26 -5 33 -12z m110 -40 c2 -29 -1 -48 -7 -48 -6 0 -11 18
-11 41 0 33 -3 40 -17 37 -13 -2 -19 -14 -21 -41 -5 -55 -22 -45 -22 14 l0 50
38 -3 c37 -3 37 -3 40 -50z m157 28 c23 -35 5 -76 -33 -76 -35 0 -52 16 -52
50 0 52 57 69 85 26z m315 15 c0 -5 -9 -11 -20 -14 -15 -4 -20 -14 -20 -41 0
-20 -4 -36 -10 -36 -5 0 -10 23 -10 50 0 49 1 50 30 50 17 0 30 -4 30 -9z m78
-3 c7 -7 12 -29 12 -50 0 -38 0 -38 -40 -38 -27 0 -43 5 -46 15 -8 20 13 45
37 45 11 0 19 5 19 11 0 7 -10 9 -25 5 -24 -6 -33 3 -18 17 11 11 48 8 61 -5z
m110 -40 c2 -29 -1 -48 -7 -48 -6 0 -11 18 -11 41 0 33 -3 40 -17 37 -13 -2
-19 -14 -21 -41 -5 -55 -22 -45 -22 14 l0 50 38 -3 c37 -3 37 -3 40 -50z m210
34 c3 -9 -3 -11 -22 -6 -15 3 -26 2 -26 -4 0 -5 12 -13 26 -16 19 -5 25 -12
22 -29 -2 -18 -10 -22 -37 -22 -21 0 -36 6 -39 14 -3 10 0 12 14 7 30 -12 36
-12 41 2 3 7 -4 12 -16 12 -24 0 -36 21 -27 46 7 18 57 16 64 -4z m150 -34 l3
-48 -41 0 c-39 0 -41 1 -38 28 2 21 9 28 31 30 15 2 27 8 27 14 0 6 -12 8 -30
5 -16 -4 -30 -3 -30 2 0 15 15 22 45 19 28 -3 30 -6 33 -50z m102 33 c16 -30
13 -81 -5 -81 -11 0 -15 11 -15 41 0 33 -3 40 -17 37 -13 -2 -19 -14 -21 -41
-5 -55 -22 -45 -22 13 l0 50 35 0 c24 0 37 -6 45 -19z m268 2 c2 -9 -5 -11
-27 -7 -29 6 -31 5 -31 -24 0 -32 20 -48 39 -29 6 6 14 8 18 4 12 -13 -14 -29
-43 -25 -25 3 -29 8 -32 36 -2 18 2 40 9 48 14 17 61 15 67 -3z m82 8 c0 -5
-9 -11 -20 -14 -15 -4 -20 -14 -20 -41 0 -20 -4 -36 -10 -36 -5 0 -10 23 -10
50 0 49 1 50 30 50 17 0 30 -4 30 -9z m78 -3 c7 -7 12 -20 12 -30 0 -14 -8
-18 -36 -18 -23 0 -33 -4 -28 -11 4 -6 19 -9 36 -5 21 4 28 2 26 -7 -6 -17
-56 -21 -74 -6 -17 14 -19 60 -2 77 7 7 21 12 33 12 12 0 26 -5 33 -12z m110
-40 l3 -48 -41 0 c-39 0 -41 1 -38 28 2 21 9 28 31 30 15 2 27 8 27 14 0 6
-12 8 -30 5 -16 -4 -30 -3 -30 2 0 15 15 22 45 19 28 -3 30 -6 33 -50z m167
28 c23 -35 5 -76 -33 -76 -35 0 -52 16 -52 50 0 52 57 69 85 26z m85 15 c0 -5
-9 -11 -20 -14 -15 -4 -20 -14 -20 -41 0 -20 -4 -36 -10 -36 -5 0 -10 23 -10
50 0 49 1 50 30 50 17 0 30 -4 30 -9z m78 -9 c3 -9 -3 -11 -22 -6 -16 4 -26 2
-26 -5 0 -6 6 -11 13 -11 24 0 48 -25 41 -43 -7 -19 -59 -24 -69 -6 -10 16 3
23 18 11 8 -7 17 -9 20 -5 13 12 7 21 -18 27 -24 6 -34 34 -18 50 11 11 56 2
61 -12z m102 -32 c0 -38 -4 -50 -15 -50 -11 0 -15 12 -15 50 0 38 4 50 15 50
11 0 15 -12 15 -50z m98 -2 c4 -56 -15 -66 -20 -11 -2 27 -8 39 -20 41 -15 3
-18 -4 -18 -37 0 -23 -4 -41 -10 -41 -5 0 -10 23 -10 51 l0 50 38 -3 c37 -3
37 -3 40 -50z m132 43 c0 -5 -9 -11 -20 -14 -15 -4 -20 -14 -20 -41 0 -20 -4
-36 -10 -36 -5 0 -10 23 -10 50 0 49 1 50 30 50 17 0 30 -4 30 -9z m84 -7 c13
-35 7 -44 -31 -44 -35 -1 -37 -2 -19 -15 15 -11 23 -12 33 -3 15 12 28 5 18
-11 -3 -6 -20 -11 -36 -11 -38 0 -58 37 -41 75 14 29 66 36 76 9z m46 -34 c0
-27 -4 -50 -10 -50 -5 0 -10 23 -10 50 0 28 5 50 10 50 6 0 10 -22 10 -50z
m158 -2 c2 -29 -1 -48 -7 -48 -6 0 -11 18 -11 41 0 33 -3 40 -17 37 -13 -2
-19 -14 -21 -41 -4 -50 -22 -48 -22 3 0 29 -4 40 -15 40 -11 0 -15 -11 -15
-40 0 -29 -4 -40 -15 -40 -11 0 -15 12 -15 50 l0 50 68 -2 67 -3 3 -47z m100
0 l3 -48 -41 0 c-39 0 -41 1 -38 28 2 21 9 28 31 30 15 2 27 8 27 14 0 6 -12
8 -30 5 -16 -4 -30 -3 -30 2 0 15 15 22 45 19 28 -3 30 -6 33 -50z m110 -11
c-3 -67 -18 -84 -61 -73 -37 9 -34 24 4 22 18 0 34 4 36 11 3 7 -3 9 -16 6
-28 -7 -51 14 -51 46 0 36 17 51 57 49 l34 -1 -3 -60z m42 13 c0 -27 -4 -50
-10 -50 -5 0 -10 23 -10 50 0 28 5 50 10 50 6 0 10 -22 10 -50z m104 34 c9
-25 7 -84 -3 -84 -6 0 -11 17 -13 37 -2 27 -8 39 -20 41 -15 3 -18 -4 -18 -37
0 -30 -4 -41 -15 -41 -11 0 -15 12 -15 50 l0 50 39 0 c26 0 41 -5 45 -16z m46
-34 c0 -27 -4 -50 -10 -50 -5 0 -10 23 -10 50 0 28 5 50 10 50 6 0 10 -22 10
-50z m100 31 c16 -30 13 -81 -5 -81 -11 0 -15 11 -15 41 0 33 -3 40 -17 37
-13 -2 -19 -14 -21 -41 -5 -55 -22 -45 -22 13 l0 50 35 0 c24 0 37 -6 45 -19z
m120 -34 c0 -65 -16 -90 -55 -85 -16 1 -30 9 -33 15 -2 9 5 11 27 7 20 -4 31
-2 31 5 0 6 -11 11 -25 11 -34 0 -53 39 -37 75 10 21 19 25 52 25 l40 0 0 -53z
m255 29 c23 -35 5 -76 -33 -76 -35 0 -52 16 -52 50 0 52 57 69 85 26z m50 -8
l7 -33 9 33 c12 39 26 41 40 5 l11 -28 10 28 c12 34 33 36 24 2 -20 -78 -38
-94 -54 -47 l-10 27 -11 -27 c-6 -16 -15 -28 -21 -28 -5 0 -10 1 -10 3 0 1 -7
23 -15 50 -11 38 -12 47 -1 47 8 0 17 -15 21 -32z m425 13 c17 -32 12 -41 -25
-41 -19 0 -35 -4 -35 -9 0 -14 27 -20 39 -8 6 6 14 8 18 4 12 -13 -14 -29 -43
-25 -25 3 -29 8 -32 36 -2 18 2 40 9 48 17 20 57 17 69 -5z m49 -13 l13 -33
11 33 c5 17 16 32 23 32 17 0 -27 -120 -49 -134 -23 -14 -34 2 -13 17 17 12
17 15 -2 65 -22 58 -6 76 17 20z m-4089 -223 c0 -8 -4 -15 -10 -15 -5 0 -10 7
-10 15 0 8 5 15 10 15 6 0 10 -7 10 -15z m544 -6 c-3 -5 -10 -7 -15 -3 -5 3
-7 10 -3 15 3 5 10 7 15 3 5 -3 7 -10 3 -15z m478 6 c0 -5 -5 -11 -11 -13 -6
-2 -11 4 -11 13 0 9 5 15 11 13 6 -2 11 -8 11 -13z m818 0 c0 -8 -4 -15 -10
-15 -5 0 -10 7 -10 15 0 8 5 15 10 15 6 0 10 -7 10 -15z m742 0 c0 -5 -5 -11
-11 -13 -6 -2 -11 4 -11 13 0 9 5 15 11 13 6 -2 11 -8 11 -13z m-3512 -60 l0
-65 -33 0 c-40 0 -57 15 -57 50 0 32 17 50 47 50 14 0 23 6 23 15 0 8 5 15 10
15 6 0 10 -28 10 -65z m1040 50 c0 -9 9 -15 25 -15 18 0 28 -7 35 -26 15 -38
12 -74 -5 -74 -11 0 -15 11 -15 41 0 33 -3 40 -17 37 -13 -2 -19 -14 -21 -41
-5 -62 -22 -41 -22 28 0 37 4 65 10 65 6 0 10 -7 10 -15z m230 0 c0 -9 9 -15
24 -15 27 0 36 -16 36 -66 0 -46 -18 -43 -22 3 -2 27 -8 39 -20 41 -15 3 -18
-4 -18 -37 0 -30 -4 -41 -15 -41 -12 0 -15 14 -15 65 0 51 3 65 15 65 8 0 15
-7 15 -15z m640 -50 l0 -65 -39 0 c-41 0 -51 11 -51 55 0 29 24 49 50 42 15
-4 20 0 20 14 0 10 5 19 10 19 6 0 10 -28 10 -65z m667 3 c23 -66 21 -88 -4
-50 -19 28 -53 29 -60 2 -3 -11 -11 -20 -19 -20 -11 0 -10 10 5 48 10 26 21
55 24 65 12 33 32 16 54 -45z m53 -3 c0 -37 -4 -65 -10 -65 -6 0 -10 28 -10
65 0 37 4 65 10 65 6 0 10 -28 10 -65z m50 0 c0 -51 -3 -65 -15 -65 -12 0 -15
14 -15 65 0 51 3 65 15 65 12 0 15 -14 15 -65z m940 0 l0 -65 -33 0 c-40 0
-57 15 -57 50 0 32 17 50 47 50 14 0 23 6 23 15 0 8 5 15 10 15 6 0 10 -28 10
-65z m-3992 38 c12 -12 13 -18 4 -21 -14 -4 -17 -62 -2 -62 6 0 10 -4 10 -10
0 -5 -9 -10 -20 -10 -17 0 -20 7 -20 39 0 22 -5 41 -12 43 -9 3 -8 9 2 21 19
20 18 20 38 0z m1360 0 c12 -12 13 -18 4 -21 -14 -4 -17 -62 -2 -62 6 0 10 -4
10 -10 0 -5 -9 -10 -20 -10 -17 0 -20 7 -20 39 0 22 -5 41 -12 43 -9 3 -8 9 2
21 19 20 18 20 38 0z m212 7 c0 -5 8 -10 18 -10 16 -1 16 -1 0 -14 -10 -7 -18
-23 -18 -36 0 -13 8 -29 18 -37 16 -12 15 -13 -8 -11 -21 3 -26 9 -31 48 -3
25 -4 51 -2 58 6 14 23 16 23 2z m-2157 -25 c5 -11 0 -13 -22 -9 -30 6 -46
-12 -34 -42 4 -12 14 -14 35 -10 21 4 28 2 26 -7 -3 -6 -19 -13 -36 -15 -26
-3 -34 1 -44 22 -17 39 3 76 41 76 16 0 31 -6 34 -15z m109 -10 c17 -39 -3
-75 -42 -75 -23 0 -33 6 -42 25 -17 39 3 75 42 75 23 0 33 -6 42 -25z m102 9
c9 -25 7 -84 -3 -84 -6 0 -11 17 -13 37 -2 27 -8 39 -20 41 -15 3 -18 -4 -18
-37 0 -30 -4 -41 -15 -41 -11 0 -15 12 -15 50 l0 50 39 0 c26 0 41 -5 45 -16z
m104 -36 c2 -29 -1 -48 -7 -48 -6 0 -11 18 -11 41 0 33 -3 40 -17 37 -13 -2
-19 -14 -21 -41 -5 -55 -22 -45 -22 14 l0 50 38 -3 c37 -3 37 -3 40 -50z m100
40 c7 -7 12 -20 12 -30 0 -14 -8 -18 -36 -18 -23 0 -33 -4 -28 -11 4 -6 19 -9
36 -5 21 4 28 2 26 -7 -6 -17 -56 -21 -74 -6 -17 14 -19 60 -2 77 7 7 21 12
33 12 12 0 26 -5 33 -12z m110 -5 c2 -9 -5 -11 -27 -7 -29 6 -31 5 -31 -24 0
-32 20 -48 39 -29 6 6 14 8 18 4 12 -13 -14 -29 -43 -25 -25 3 -29 8 -32 36
-2 18 2 40 9 48 14 17 61 15 67 -3z m210 5 c7 -7 12 -29 12 -50 0 -38 0 -38
-40 -38 -27 0 -43 5 -46 15 -8 20 13 45 37 45 11 0 19 5 19 11 0 7 -10 9 -25
5 -24 -6 -33 3 -18 17 11 11 48 8 61 -5z m110 -40 c2 -29 -1 -48 -7 -48 -6 0
-11 18 -11 41 0 33 -3 40 -17 37 -13 -2 -19 -14 -21 -41 -5 -55 -22 -45 -22
14 l0 50 38 -3 c37 -3 37 -3 40 -50z m266 36 c13 -35 7 -44 -31 -44 -35 -1
-37 -2 -19 -15 15 -11 23 -12 33 -3 15 12 28 5 18 -11 -3 -6 -20 -11 -36 -11
-38 0 -58 37 -41 75 14 29 66 36 76 9z m106 -3 c16 -30 13 -81 -5 -81 -11 0
-15 11 -15 41 0 33 -3 40 -17 37 -13 -2 -19 -14 -21 -41 -5 -55 -22 -45 -22
13 l0 50 35 0 c24 0 37 -6 45 -19z m120 -34 c0 -65 -16 -90 -55 -85 -16 1 -30
9 -33 15 -2 9 5 11 27 7 20 -4 31 -2 31 5 0 6 -11 11 -25 11 -34 0 -53 39 -37
75 10 21 19 25 52 25 l40 0 0 -53z m88 41 c7 -7 12 -29 12 -50 0 -38 0 -38
-40 -38 -27 0 -43 5 -46 15 -8 20 13 45 37 45 11 0 19 5 19 11 0 7 -10 9 -25
5 -24 -6 -33 3 -18 17 11 11 48 8 61 -5z m122 -41 c0 -65 -16 -90 -55 -85 -16
1 -30 9 -33 15 -2 9 5 11 27 7 20 -4 31 -2 31 5 0 6 -11 11 -25 11 -34 0 -53
39 -37 75 10 21 19 25 52 25 l40 0 0 -53z m94 37 c13 -35 7 -44 -31 -44 -35
-1 -37 -2 -19 -15 15 -11 23 -12 33 -3 15 12 28 5 18 -11 -3 -6 -20 -11 -36
-11 -38 0 -58 37 -41 75 14 29 66 36 76 9z m103 -16 l10 -33 7 33 c4 17 13 32
21 32 7 0 16 -15 20 -32 l7 -33 9 33 c5 17 14 32 19 32 12 0 12 -2 -1 -56 -13
-52 -34 -57 -45 -11 l-7 32 -10 -32 c-14 -47 -31 -41 -49 17 -12 39 -13 50 -4
50 7 0 17 -15 23 -32z m143 -18 c0 -27 -4 -50 -10 -50 -5 0 -10 23 -10 50 0
28 5 50 10 50 6 0 10 -22 10 -50z m500 31 c17 -32 12 -41 -25 -41 -19 0 -35
-4 -35 -9 0 -14 27 -20 39 -8 6 6 14 8 18 4 12 -13 -14 -29 -43 -25 -25 3 -29
8 -32 36 -2 18 2 40 9 48 17 20 57 17 69 -5z m50 -31 c0 -38 -4 -50 -15 -50
-11 0 -15 12 -15 50 0 38 4 50 15 50 11 0 15 -12 15 -50z m70 40 c0 -5 -7 -10
-15 -10 -11 0 -15 -11 -15 -40 0 -22 -4 -40 -10 -40 -5 0 -10 23 -10 50 0 47
2 50 25 50 14 0 25 -4 25 -10z m140 -9 c5 -11 10 -34 10 -51 0 -30 -1 -31 -42
-28 -36 2 -44 7 -46 26 -3 18 2 23 27 28 17 4 31 11 31 16 0 6 -14 7 -32 2
-29 -6 -31 -5 -19 10 18 22 58 20 71 -3z m50 -22 c0 -33 3 -40 18 -37 12 2 18
14 20 41 5 55 22 45 22 -14 l0 -50 -37 3 c-38 3 -38 3 -41 51 -2 28 1 47 7 47
6 0 11 -18 11 -41z m210 -9 c0 -27 -4 -50 -10 -50 -5 0 -10 23 -10 50 0 28 5
50 10 50 6 0 10 -22 10 -50z m98 38 c7 -7 12 -20 12 -30 0 -14 -8 -18 -36 -18
-23 0 -33 -4 -28 -11 4 -6 19 -9 36 -5 21 4 28 2 26 -7 -6 -17 -56 -21 -74 -6
-17 14 -19 60 -2 77 7 7 21 12 33 12 12 0 26 -5 33 -12z m110 -40 c2 -29 -1
-48 -7 -48 -6 0 -11 18 -11 41 0 33 -3 40 -17 37 -13 -2 -19 -14 -21 -41 -5
-55 -22 -45 -22 14 l0 50 38 -3 c37 -3 37 -3 40 -50z m105 37 c5 -11 0 -13
-22 -9 -30 6 -46 -12 -34 -42 4 -12 14 -14 35 -10 21 4 28 2 26 -7 -3 -6 -19
-13 -36 -15 -26 -3 -34 1 -44 22 -17 39 3 76 41 76 16 0 31 -6 34 -15z m101
-1 c13 -35 7 -44 -31 -44 -35 -1 -37 -2 -19 -15 15 -11 23 -12 33 -3 15 12 28
5 18 -11 -3 -6 -20 -11 -36 -11 -38 0 -58 37 -41 75 14 29 66 36 76 9z m406
-34 c0 -27 -4 -50 -10 -50 -5 0 -10 23 -10 50 0 28 5 50 10 50 6 0 10 -22 10
-50z m100 31 c16 -30 13 -81 -5 -81 -11 0 -15 11 -15 41 0 33 -3 40 -17 37
-13 -2 -19 -14 -21 -41 -5 -55 -22 -45 -22 13 l0 50 35 0 c24 0 37 -6 45 -19z
m162 -6 c17 -39 -3 -75 -42 -75 -39 0 -59 36 -42 75 9 19 19 25 42 25 23 0 33
-6 42 -25z m102 9 c9 -25 7 -84 -3 -84 -6 0 -11 17 -13 37 -2 27 -8 39 -20 41
-15 3 -18 -4 -18 -37 0 -30 -4 -41 -15 -41 -11 0 -15 12 -15 50 l0 50 39 0
c26 0 41 -5 45 -16z m106 -3 c17 -32 12 -41 -25 -41 -19 0 -35 -4 -35 -9 0
-14 27 -20 39 -8 6 6 14 8 18 4 12 -13 -14 -29 -43 -25 -25 3 -29 8 -32 36 -2
18 2 40 9 48 17 20 57 17 69 -5z m170 -34 c0 -65 -16 -90 -55 -85 -16 1 -30 9
-33 15 -2 9 5 11 27 7 20 -4 31 -2 31 5 0 6 -11 11 -25 11 -34 0 -53 39 -37
75 10 21 19 25 52 25 l40 0 0 -53z m70 43 c0 -5 -7 -10 -15 -10 -11 0 -15 -11
-15 -40 0 -29 -4 -40 -15 -40 -11 0 -15 12 -15 50 0 49 1 50 30 50 17 0 30 -4
30 -10z m30 -40 c0 -27 -4 -50 -10 -50 -5 0 -10 23 -10 50 0 28 5 50 10 50 6
0 10 -22 10 -50z m-1090 -40 c0 -5 -7 -10 -15 -10 -8 0 -15 5 -15 10 0 6 7 10
15 10 8 0 15 -4 15 -10z m1250 0 c0 -5 -4 -10 -10 -10 -5 0 -10 5 -10 10 0 6
5 10 10 10 6 0 10 -4 10 -10z m-759 -949 c64 -65 20 -171 -71 -171 -33 0 -48
6 -71 29 -23 23 -29 38 -29 71 0 33 6 48 29 71 23 23 38 29 71 29 33 0 48 -6
71 -29z m3 -387 c13 -5 16 -22 16 -80 0 -61 -3 -75 -19 -83 -13 -7 -23 -6 -36
3 -22 16 -16 48 13 61 27 12 31 49 5 41 -10 -3 -30 -8 -45 -11 -25 -6 -27 -11
-30 -63 -3 -56 -4 -57 -33 -57 -27 0 -30 3 -30 30 0 23 5 31 23 33 19 3 22 9
22 46 0 48 9 60 60 74 19 6 36 11 37 11 1 1 8 -2 17 -5z m2107 -312 c123 -64
156 -226 68 -327 -34 -38 -56 -47 -39 -15 11 20 10 21 -12 24 -7 0 -14 7 -14
14 -3 29 -4 32 -14 32 -5 0 -7 -13 -3 -30 4 -21 0 -36 -12 -50 -9 -10 -14 -23
-11 -29 4 -5 -9 -14 -29 -20 -66 -18 -124 17 -97 59 8 13 9 26 4 37 -8 13 -11
10 -20 -15 -12 -34 -46 -50 -67 -32 -8 7 -25 28 -36 47 -50 81 -42 187 20 256
72 80 168 98 262 49z m690 -6 c62 -42 99 -107 99 -178 0 -32 -6 -74 -14 -92
-34 -82 -144 -144 -231 -130 l-40 6 0 -149 c0 -169 -4 -161 88 -162 71 -1 95
-19 81 -59 -9 -26 -13 -27 -79 -27 -63 0 -70 2 -70 20 0 13 -7 19 -19 18 -13
-1 -16 4 -13 19 7 25 -18 35 -38 15 -11 -12 -12 -17 -2 -20 6 -3 2 -6 -10 -6
-14 -1 -23 5 -23 14 0 18 -26 20 -33 3 -3 -7 -6 67 -6 165 l-1 177 45 0 45 0
-44 40 c-25 24 -47 55 -54 78 -15 49 -15 132 -1 169 15 40 67 92 114 115 57
27 151 20 206 -16z m627 18 c43 -17 97 -67 118 -106 8 -15 14 -55 14 -93 0
-61 -2 -66 -26 -75 -49 -19 -53 -15 -37 41 15 51 15 51 -14 87 -16 21 -37 50
-47 66 -17 27 -21 28 -70 23 -29 -3 -69 -12 -89 -21 -32 -13 -37 -20 -37 -48
-1 -18 -7 -44 -15 -58 -18 -32 -19 -70 -1 -70 7 0 21 -11 30 -25 13 -20 13
-25 2 -32 -7 -4 -19 -19 -25 -31 l-13 -24 -24 23 c-37 34 -57 100 -52 164 6
75 45 131 117 168 62 31 114 34 169 11z m662 6 c49 -13 109 -66 131 -114 33
-74 17 -187 -35 -238 -14 -15 -19 -15 -46 -2 -16 9 -30 23 -30 33 0 12 -17 23
-56 37 -53 18 -58 22 -69 61 -9 31 -10 44 -1 53 8 8 6 9 -8 4 -13 -5 -17 -4
-12 4 4 7 14 12 22 12 8 0 13 6 12 13 -2 8 14 12 55 12 61 0 62 1 47 39 -11
31 -78 53 -109 36 -29 -15 -51 -51 -51 -82 0 -16 -4 -28 -10 -28 -5 0 -10 -15
-10 -34 0 -25 6 -38 25 -50 33 -22 32 -28 -14 -47 -26 -11 -40 -24 -43 -38 -5
-32 -20 -30 -45 7 -68 101 -25 249 88 306 56 27 101 32 159 16z m673 -1 c48
-13 102 -61 129 -112 29 -59 23 -159 -15 -216 -30 -45 -53 -55 -41 -18 7 22 6
22 -14 4 -23 -21 -42 -15 -42 11 0 19 -53 56 -64 45 -3 -3 -6 -15 -6 -25 0
-17 -2 -17 -24 -3 -13 9 -29 29 -36 44 l-12 29 -22 -22 c-12 -11 -20 -28 -19
-36 4 -21 -12 -44 -25 -36 -6 4 -8 14 -5 24 5 14 3 14 -16 -3 -23 -20 -23 -20
-37 0 -22 30 -37 95 -31 137 8 63 56 129 116 160 57 30 102 35 164 17z m685
-5 c165 -68 183 -291 32 -381 -44 -27 -65 -33 -110 -33 -123 0 -228 110 -217
226 6 60 23 98 64 138 60 61 155 82 231 50z m670 1 c121 -51 171 -188 111
-306 -28 -56 -44 -65 -82 -47 -32 15 -75 16 -116 3 -15 -5 -29 -1 -42 11 -20
18 -22 18 -90 -10 -20 -9 -57 45 -70 102 -38 160 138 310 289 247z m-2689
-106 c18 -51 15 -55 -54 -67 -35 -7 -85 -21 -110 -32 l-45 -19 15 36 c8 19 15
48 15 64 0 23 5 30 28 35 15 3 32 7 37 9 6 2 31 4 57 4 43 1 47 -1 57 -30z
m-3410 -44 c-18 -19 -19 -19 -32 0 -12 15 -12 21 1 36 15 17 17 17 33 1 16
-16 16 -18 -2 -37z m-69 16 c0 -6 -21 -11 -47 -13 l-48 -3 -3 -64 c-4 -74 2
-81 68 -81 60 0 68 7 72 60 2 26 7 43 13 40 9 -5 8 -86 -2 -102 -7 -13 -148
-9 -161 4 -16 16 -16 140 0 156 14 14 108 16 108 3z m-9 -61 l24 -20 -24 -20
c-13 -12 -29 -19 -35 -17 -22 7 -19 77 3 77 5 0 19 -9 32 -20z m3439 -16 c0
-7 -8 -18 -17 -23 -20 -12 -13 -14 11 -5 9 3 16 17 16 30 0 21 5 24 39 24 27
0 41 -5 45 -17 10 -25 -12 -80 -40 -98 -13 -9 -22 -20 -19 -25 3 -4 2 -15 -1
-24 -4 -12 -20 -16 -56 -16 -27 0 -47 4 -44 8 3 5 -1 9 -9 9 -10 0 -12 -4 -5
-12 6 -7 8 -19 4 -28 -4 -12 -1 -14 14 -10 11 2 23 -1 27 -8 10 -15 -66 -5
-95 14 -24 14 -25 26 -4 55 14 21 52 33 40 13 -5 -7 8 -8 32 -2 1 1 -13 15
-33 32 -39 35 -45 63 -16 79 33 17 44 12 39 -20 -3 -16 -1 -30 4 -30 4 0 8 9
8 21 0 11 5 17 10 14 6 -3 10 2 10 13 0 10 3 21 6 25 10 9 34 -4 34 -19z m683
-135 c-6 -22 -8 -23 -34 -9 -22 12 -25 30 -7 48 17 17 48 -13 41 -39z m-573
-20 c0 -12 -48 -34 -56 -26 -3 3 0 23 6 43 l13 38 18 -23 c11 -13 19 -27 19
-32z m1157 -21 c-3 -7 -5 -2 -5 12 0 14 2 19 5 13 2 -7 2 -19 0 -25z m133 18
c0 -9 -40 -13 -46 -5 -3 5 6 9 20 9 14 0 26 -2 26 -4z m-1383 -38 c-3 -8 -6
-5 -6 6 -1 11 2 17 5 13 3 -3 4 -12 1 -19z m1338 2 c-3 -5 -12 -10 -18 -10 -7
0 -6 4 3 10 19 12 23 12 15 0z m-2405 -67 c0 -78 -6 -90 -40 -88 -14 1 -44 2
-67 3 l-43 2 0 75 0 75 75 0 75 0 0 -67z m-2320 -63 c16 -16 20 -33 20 -82 0
-84 -14 -98 -98 -98 -88 0 -102 13 -102 97 0 85 17 103 100 103 47 0 64 -4 80
-20z m1870 -89 c0 -72 -11 -82 -81 -79 l-54 3 -3 68 -3 67 71 0 70 0 0 -59z
m1046 21 c-6 -43 -23 -92 -32 -92 -3 0 -4 6 -1 14 3 8 -1 17 -9 20 -10 4 -14
-2 -14 -20 0 -14 -4 -23 -9 -20 -5 3 -7 15 -4 25 3 10 0 22 -6 25 -6 4 -11 3
-11 -3 0 -19 -48 10 -54 33 -14 54 -11 56 70 56 l76 0 -6 -38z m-117 -109 c0
-25 -1 -26 -9 -8 -12 27 -12 35 0 35 6 0 10 -12 9 -27z m-2479 -53 c0 -21 -4
-42 -10 -45 -6 -4 -10 13 -10 45 0 32 4 49 10 45 6 -3 10 -24 10 -45z m1854
44 c11 -4 13 -11 5 -31 -5 -13 -9 -39 -9 -58 0 -40 -5 -44 -66 -50 -64 -7 -74
4 -74 81 l0 64 64 0 c35 0 71 -3 80 -6z m346 -79 c0 -18 -4 -23 -15 -19 -25
10 -19 33 13 43 1 1 2 -10 2 -24z m833 -39 c3 -8 3 -17 0 -20 -16 -16 -60 5
-49 23 10 16 43 14 49 -3z m-740 -30 c3 -8 -1 -20 -9 -26 -8 -7 -14 -22 -14
-33 0 -19 -5 -20 -85 -15 -47 3 -83 2 -80 -2 3 -4 -1 -10 -9 -13 -8 -3 -17 1
-20 9 -8 21 -23 17 -29 -8 -7 -24 -16 -21 -21 8 -3 11 -9 31 -15 46 -6 15 -7
29 -3 32 4 2 56 4 116 4 59 0 110 3 114 6 11 12 50 6 55 -8z m260 8 c13 -13
-7 -34 -33 -34 -30 0 -45 13 -35 30 7 11 58 14 68 4z m212 -14 c0 -19 -41 -25
-60 -10 -22 18 -8 32 28 28 20 -2 32 -8 32 -18z m-2767 -59 c-3 -39 -2 -73 2
-78 4 -4 10 -51 13 -103 7 -140 -13 -953 -24 -965 -5 -5 -9 224 -9 603 0 450
3 612 11 612 8 0 10 -21 7 -69z m1701 60 c11 -7 12 -17 2 -55 -6 -26 -9 -52
-5 -58 5 -7 -16 -9 -64 -6 -55 3 -73 0 -77 -10 -4 -11 -8 -12 -20 -2 -12 10
-18 10 -32 -1 -12 -10 -17 -11 -20 -2 -2 7 -11 9 -19 6 -8 -3 -14 -1 -14 5 0
5 -8 9 -17 8 -15 -1 -19 9 -21 56 l-3 57 68 4 c142 7 208 6 222 -2z m1144 2
c-13 -2 -33 -2 -45 0 -13 2 -3 4 22 4 25 0 35 -2 23 -4z m278 -4 c-16 -6 -28
-6 -35 1 -7 7 1 10 25 9 32 0 33 -1 10 -10z m-3433 -71 c15 -15 15 -43 0 -69
-10 -17 -10 -23 0 -26 20 -7 15 -61 -7 -73 -11 -5 -47 -10 -81 -10 -34 0 -70
5 -81 10 -22 12 -27 66 -6 73 10 3 10 9 0 26 -16 26 -16 54 -1 69 16 16 160
16 176 0z m2957 -48 c0 -18 -43 -26 -57 -12 -16 16 2 33 30 30 16 -2 27 -9 27
-18z m-2320 -50 c-2 -30 -22 -47 -37 -32 -8 8 -15 9 -25 1 -9 -8 -13 -8 -13 0
0 7 -8 8 -25 1 -15 -6 -26 -6 -30 0 -8 13 -35 -14 -35 -34 0 -12 -11 -16 -49
-16 -28 0 -53 -4 -56 -10 -15 -25 -25 -5 -25 50 l0 60 148 0 c143 0 149 -1
147 -20z m315 8 c0 -28 -17 -36 -78 -39 -62 -4 -62 -4 -62 24 0 27 0 27 70 27
49 0 70 -4 70 -12z m300 -13 c0 -29 -5 -32 -77 -39 l-53 -4 0 34 0 34 65 0
c63 0 65 -1 65 -25z m300 -10 c0 -34 -1 -35 -37 -35 -55 0 -85 10 -79 26 3 7
-2 20 -10 29 -14 13 -8 15 55 15 l71 0 0 -35z m540 25 c0 -5 -3 -9 -7 -8 -5 1
-18 -3 -29 -10 -19 -10 -23 -9 -27 8 -4 17 0 20 29 20 19 0 34 -4 34 -10z
m162 3 c-61 -3 -102 -9 -116 -18 -23 -16 -36 -11 -36 12 0 10 26 13 123 11
116 -2 117 -2 29 -5z m228 -68 c17 -21 3 -35 -36 -35 -23 0 -37 6 -41 16 -12
31 53 47 77 19z m-1572 -2 c-16 -2 -40 -2 -55 0 -16 2 -3 4 27 4 30 0 43 -2
28 -4z m1852 -8 c0 -10 -11 -15 -35 -15 -24 0 -35 5 -35 15 0 10 11 15 35 15
24 0 35 -5 35 -15z m-1223 -1 c-3 -3 -12 -4 -19 -1 -8 3 -5 6 6 6 11 1 17 -2
13 -5z m1063 -59 c0 -44 1 -45 31 -45 55 0 27 -25 -32 -28 -92 -4 -99 0 -99
63 l0 55 50 0 50 0 0 -45z m-1302 -11 c50 -4 89 -10 87 -14 -3 -4 -27 -6 -55
-4 l-49 3 -11 -40 c-6 -22 -15 -37 -20 -34 -4 3 -10 1 -12 -4 -1 -5 -23 -11
-48 -13 -38 -2 -45 0 -48 17 -3 11 -10 24 -17 30 -18 14 -25 53 -11 59 17 7
83 7 184 0z m567 -3 c3 -6 2 -29 -1 -52 -6 -36 -8 -39 -15 -21 -7 18 -15 21
-65 20 -51 -2 -58 1 -66 21 -4 13 -6 27 -2 32 7 12 141 12 149 0z m195 -21 c0
-11 -7 -20 -15 -20 -8 0 -15 9 -15 20 0 11 7 20 15 20 8 0 15 -9 15 -20z m70
11 c0 -6 -4 -13 -10 -16 -5 -3 -10 1 -10 9 0 9 5 16 10 16 6 0 10 -4 10 -9z
m349 -27 c8 -7 -12 -24 -29 -24 -22 0 -34 15 -25 30 6 9 41 5 54 -6z m-79 -69
c0 -54 -1 -55 -28 -55 -38 0 -52 17 -52 61 0 36 2 38 38 42 20 2 38 4 40 5 1
1 2 -23 2 -53z m-2503 -56 c8 -8 17 -7 32 3 20 11 24 11 36 -7 8 -11 22 -28
31 -37 14 -15 15 -22 6 -43 -7 -14 -12 -41 -12 -60 0 -41 -20 -55 -80 -55 -62
0 -80 13 -80 60 0 22 -6 49 -12 61 -11 17 -10 22 3 32 9 7 21 22 28 35 13 24
31 28 48 11z m2413 -48 c0 -53 -13 -66 -56 -55 -21 5 -24 12 -24 55 l0 49 40
0 40 0 0 -49z m-463 -48 c5 -14 -35 -24 -43 -11 -7 11 15 29 30 25 6 -2 11 -8
13 -14z m303 -4 c0 -5 -13 -9 -30 -9 -35 0 -41 17 -7 22 26 5 37 1 37 -13z
m-452 -106 c-2 -12 -11 -17 -23 -15 -25 5 -29 8 -20 21 11 19 47 13 43 -6z
m232 -4 c0 -5 -11 -9 -25 -9 -26 0 -34 15 -12 23 16 5 37 -3 37 -14z m180 -5
c0 -2 -7 -4 -15 -4 -8 0 -15 4 -15 10 0 5 7 7 15 4 8 -4 15 -8 15 -10z m100 7
c0 -5 -9 -7 -20 -4 -11 3 -20 7 -20 9 0 2 9 4 20 4 11 0 20 -4 20 -9z m-221
-78 c9 -17 11 -17 26 2 11 14 18 16 21 8 4 -9 10 -10 23 -1 40 25 81 -25 62
-75 -8 -21 -17 -27 -41 -27 -26 0 -33 5 -43 33 l-11 32 -6 -29 c-10 -57 -24
-44 -57 57 -3 9 -1 17 5 17 6 0 15 -8 21 -17z m179 -32 c2 -23 7 -39 12 -36 4
3 6 14 3 24 -6 23 14 64 28 56 13 -9 11 -68 -4 -89 -8 -11 -23 -17 -38 -14
-22 3 -24 8 -27 57 -2 40 0 52 10 49 7 -3 14 -23 16 -47z m130 37 c13 -17 10
-98 -4 -98 -6 0 -16 10 -22 23 l-11 22 0 -22 c-1 -14 -7 -23 -16 -23 -11 0
-15 12 -15 48 0 27 3 52 7 55 11 12 50 8 61 -5z m-688 -39 c0 -5 -9 -9 -20 -9
-19 0 -26 11 -14 23 8 8 34 -3 34 -14z m-60 -124 c40 -21 57 -74 36 -117 -14
-28 -14 -33 -1 -48 8 -9 15 -35 15 -59 0 -77 -62 -111 -175 -96 -30 3 -55 9
-55 13 -1 4 -3 75 -5 159 -6 173 -13 160 93 162 38 1 74 -5 92 -14z m331 -23
c41 -46 41 -102 -1 -144 -16 -16 -30 -32 -30 -35 0 -3 14 -28 30 -55 17 -26
30 -50 30 -53 0 -3 -18 -5 -39 -5 -38 0 -41 3 -68 52 -15 29 -36 54 -45 56
-15 3 -18 -5 -18 -52 l0 -56 -40 0 -40 0 0 159 c0 118 3 161 13 165 6 3 49 4
95 3 81 -2 85 -3 113 -35z m855 22 c49 -23 67 -65 67 -149 0 -134 -58 -187
-188 -170 l-55 6 0 159 0 159 28 4 c62 9 116 6 148 -9z m-606 -36 c7 -24 27
-96 45 -160 l33 -118 -39 0 c-35 0 -39 3 -47 33 -7 29 -12 32 -50 35 -39 3
-42 2 -50 -30 -7 -30 -12 -33 -49 -36 l-41 -3 24 83 c13 46 34 118 45 161 l21
77 49 0 48 0 11 -42z m246 -67 c24 -57 46 -106 50 -110 3 -3 3 45 -1 107 l-7
112 36 0 36 0 0 -160 0 -160 -47 0 -48 0 -44 105 c-24 58 -46 105 -48 105 -3
0 -3 -46 -2 -102 l3 -103 -32 -3 -32 -3 0 161 0 161 47 -3 47 -3 42 -104z
m544 -181 c0 -28 -2 -30 -40 -30 -38 0 -40 2 -40 30 0 28 2 30 40 30 38 0 40
-2 40 -30z m-320 -805 c-11 -13 -9 -20 10 -40 29 -31 20 -45 -10 -15 -14 14
-28 19 -41 15 -16 -5 -19 -2 -19 24 0 29 2 31 36 31 32 0 35 -2 24 -15z m168
-19 c3 -26 1 -28 -19 -23 -16 4 -31 0 -46 -15 -30 -28 -31 -3 -1 29 12 13 16
23 10 23 -7 0 -12 5 -12 11 0 6 14 9 33 7 27 -3 33 -7 35 -32z m-2655 -26 c-4
-13 0 -20 10 -20 8 0 17 9 20 20 3 11 11 20 17 20 7 0 10 -6 7 -14 -3 -7 0
-19 6 -25 9 -9 8 -15 -6 -22 -15 -9 -16 -13 -6 -26 11 -12 10 -17 -4 -24 -9
-6 -17 -17 -17 -24 0 -8 -4 -15 -10 -15 -5 0 -10 9 -10 20 0 11 -5 20 -11 20
-6 0 -13 -9 -16 -20 -3 -11 -9 -20 -13 -20 -11 0 -20 54 -9 58 12 5 12 32 -1
32 -5 0 -10 5 -10 10 0 6 7 10 15 10 8 0 15 8 15 18 0 10 3 22 6 25 12 12 22
-3 17 -23z m179 13 c26 -23 22 -47 -13 -88 l-31 -35 31 0 c17 0 31 -4 31 -10
0 -5 -25 -10 -55 -10 -30 0 -55 4 -55 8 0 5 18 23 40 41 27 22 40 40 40 57 0
35 -28 43 -50 14 -11 -14 -20 -19 -24 -12 -9 14 28 52 51 52 9 0 25 -7 35 -17z
m140 0 c25 -29 30 -70 14 -108 -13 -31 -19 -35 -50 -35 -43 0 -66 29 -66 82 0
65 65 103 102 61z m141 10 c4 -3 -3 -17 -15 -30 l-22 -23 22 -16 c24 -17 29
-53 10 -72 -20 -20 -76 -15 -88 9 -15 26 -3 40 14 16 15 -20 52 -23 59 -4 6
18 -11 47 -28 47 -19 0 -19 14 0 33 17 18 10 27 -22 27 -12 0 -23 5 -23 10 0
11 83 14 93 3z m357 -79 c0 -43 -4 -74 -10 -74 -5 0 -10 21 -10 46 0 53 -11
51 -30 -5 -7 -23 -19 -41 -26 -41 -6 0 -20 19 -30 43 l-19 42 -3 -42 c-5 -72
-22 -47 -22 33 0 90 14 95 45 16 11 -29 23 -52 26 -52 4 0 18 27 33 61 14 33
30 57 36 54 5 -3 10 -40 10 -81z m144 65 c14 -11 24 -25 20 -30 -3 -5 -17 0
-31 11 -27 21 -60 19 -75 -4 -12 -17 -9 -71 4 -84 17 -17 54 -15 72 4 23 22
42 7 20 -17 -22 -25 -85 -26 -106 -1 -49 55 -18 138 53 141 9 1 28 -8 43 -20z
m94 -61 c2 -66 0 -78 -13 -78 -14 0 -16 11 -14 68 2 56 0 68 -14 70 -25 5 -9
24 16 20 20 -3 22 -10 25 -80z m-428 -3 c0 -43 -4 -75 -10 -75 -6 0 -10 32
-10 75 0 43 4 75 10 75 6 0 10 -32 10 -75z m1974 -42 c4 -11 14 -13 32 -9 23
6 25 4 22 -21 -2 -23 -8 -29 -35 -31 -19 -2 -33 1 -33 7 0 6 5 11 12 11 6 0 2
10 -10 23 -12 13 -22 28 -22 35 0 16 27 4 34 -15z m-84 10 c0 -4 -10 -17 -22
-30 -12 -13 -16 -23 -10 -23 7 0 12 -4 12 -10 0 -5 -16 -10 -35 -10 -32 0 -35
2 -35 31 0 25 3 29 19 24 10 -3 24 1 31 10 13 15 40 21 40 8z m-810 -112 c0
-11 -4 -23 -10 -26 -5 -3 -10 -1 -10 5 0 7 -9 9 -22 5 -22 -6 -22 -5 -5 9 18
14 18 14 0 19 -10 3 -4 5 15 6 25 1 32 -3 32 -18z m-770 -151 c0 -14 -28 -19
-33 -5 -3 7 -3 15 0 18 7 7 33 -3 33 -13z m5260 -5 c0 -8 -7 -15 -15 -15 -8 0
-15 7 -15 15 0 8 7 15 15 15 8 0 15 -7 15 -15z m120 0 c0 -8 -7 -15 -15 -15
-8 0 -15 7 -15 15 0 8 7 15 15 15 8 0 15 -7 15 -15z m-1716 -11 c22 -8 20 -47
-4 -75 -15 -19 -19 -20 -20 -8 0 9 -7 19 -15 23 -15 5 -21 47 -8 59 8 9 27 9
47 1z m90 0 c21 -8 20 -33 -1 -57 -13 -15 -15 -21 -5 -24 23 -9 12 -23 -18
-23 -37 0 -38 9 -5 40 14 13 25 29 25 36 0 20 -19 27 -35 14 -8 -7 -15 -8 -15
-3 0 22 23 29 54 17z m96 -1 c0 -16 -35 -93 -43 -93 -4 0 0 16 8 36 19 46 19
43 -7 54 -21 8 -20 9 10 9 17 1 32 -2 32 -6z m177 -15 l23 -22 20 22 c21 23
54 29 64 13 4 -5 -3 -7 -14 -4 -45 12 -70 -55 -29 -77 28 -15 56 5 37 27 -10
13 -9 15 7 12 31 -6 25 -41 -9 -52 -26 -9 -32 -7 -54 18 -21 25 -25 27 -34 12
-15 -27 -45 -39 -67 -27 -28 15 -35 47 -17 75 20 31 43 32 73 3z m217 6 c22
-21 20 -57 -4 -79 -23 -21 -46 -14 -62 19 -9 20 -8 30 6 51 19 29 38 32 60 9z
m99 -26 c3 -23 4 -45 2 -49 -7 -11 -56 3 -62 17 -5 13 34 74 48 74 3 0 9 -19
12 -42z m-762 17 c3 -25 -4 -51 -17 -65 -10 -11 -14 -11 -14 -1 0 8 -7 10 -21
6 -19 -6 -20 -4 -14 27 4 18 9 35 10 38 6 9 55 5 56 -5z m-4786 -5 c3 -5 1
-10 -4 -10 -6 0 -11 5 -11 10 0 6 2 10 4 10 3 0 8 -4 11 -10z m-1617 -52 c2
-20 -2 -28 -19 -33 -24 -8 -40 9 -31 34 14 38 45 38 50 -1z m4342 7 c0 -29
-15 -33 -29 -6 -11 20 -5 31 16 31 7 0 13 -11 13 -25z m-1610 8 c0 -10 -19
-40 -21 -33 0 3 -2 13 -4 23 -2 9 3 17 11 17 8 0 14 -3 14 -7z m5353 -43 c-6
-22 -18 -26 -28 -10 -8 13 3 30 20 30 8 0 11 -7 8 -20z m115 -1 c-2 -6 -8 -10
-13 -10 -5 0 -11 4 -13 10 -2 6 4 11 13 11 9 0 15 -5 13 -11z m-6578 -23 c0
-3 -4 -8 -10 -11 -5 -3 -10 -1 -10 4 0 6 5 11 10 11 6 0 10 -2 10 -4z m2806
-22 c-3 -9 -6 -20 -6 -26 0 -6 -9 -3 -20 7 -27 24 -25 35 6 35 20 0 25 -4 20
-16z m84 -76 c-1 -30 -16 -38 -33 -18 -22 27 -22 30 8 30 14 0 25 -6 25 -12z
m-3534 -19 c3 -6 2 -15 -2 -19 -12 -12 -38 5 -30 19 9 14 23 14 32 0z m-276
-15 c0 -9 -7 -14 -17 -12 -25 5 -28 28 -4 28 12 0 21 -6 21 -16z m1870 -59
c-7 -8 -9 -15 -4 -15 11 0 -18 -20 -28 -20 -5 0 -8 11 -8 25 0 20 5 25 26 25
22 0 25 -2 14 -15z m2020 -1 c0 -8 -4 -12 -10 -9 -5 3 -10 10 -10 16 0 5 5 9
10 9 6 0 10 -7 10 -16z m-3705 -4 c-3 -5 -10 -10 -16 -10 -5 0 -9 5 -9 10 0 6
7 10 16 10 8 0 12 -4 9 -10z m165 0 c0 -5 -7 -10 -15 -10 -8 0 -15 5 -15 10 0
6 7 10 15 10 8 0 15 -4 15 -10z m-450 -16 c0 -9 -5 -14 -12 -12 -18 6 -21 28
-4 28 9 0 16 -7 16 -16z m494 -29 c21 -16 16 -42 -10 -52 -8 -3 -22 1 -31 9
-12 12 -13 20 -4 37 14 25 19 25 45 6z m-104 -15 c0 -27 -27 -37 -47 -17 -20
19 -9 37 23 37 17 0 24 -5 24 -20z m-181 -14 c10 -12 8 -17 -7 -25 -15 -8 -23
-7 -32 4 -13 16 -6 35 14 35 8 0 19 -6 25 -14z m95 5 c8 -12 -21 -34 -34 -26
-17 11 -11 35 9 35 11 0 22 -4 25 -9z m3696 -8 c0 -37 -15 -45 -43 -22 -32 25
-27 39 14 39 21 0 29 -5 29 -17z m-4100 -8 c0 -8 -7 -15 -15 -15 -8 0 -15 7
-15 15 0 8 7 15 15 15 8 0 15 -7 15 -15z m4170 5 c0 -5 -2 -10 -4 -10 -3 0 -8
5 -11 10 -3 6 -1 10 4 10 6 0 11 -4 11 -10z m-3456 -65 c7 -19 -27 -38 -42
-23 -6 6 -8 17 -5 24 7 19 39 18 47 -1z m107 5 c36 -20 17 -70 -26 -70 -41 0
-58 36 -29 64 18 19 28 20 55 6z m-944 -26 c-9 -9 -28 6 -21 18 4 6 10 6 17
-1 6 -6 8 -13 4 -17z m319 15 c10 -17 -13 -36 -27 -22 -12 12 -4 33 11 33 5 0
12 -5 16 -11z m130 -71 c3 -5 -2 -18 -12 -29 -16 -17 -16 -20 -1 -37 18 -20
12 -33 -22 -52 -21 -11 -26 -10 -41 9 -14 20 -19 21 -44 10 -25 -12 -30 -11
-42 6 -30 41 11 60 57 26 l28 -21 11 20 c6 12 8 30 5 41 -4 11 -2 26 5 33 11
14 46 11 56 -6z m-211 -30 c33 -15 32 -34 -2 -42 -35 -9 -63 15 -43 38 15 19
13 19 45 4z m-334 -81 c-13 -13 -26 -3 -16 12 3 6 11 8 17 5 6 -4 6 -10 -1
-17z m437 -49 c4 -19 -35 -35 -50 -20 -6 6 -8 18 -4 27 8 21 50 16 54 -7z
m1595 -73 c-27 -34 -28 -34 -35 -13 -12 43 -9 48 27 48 l36 0 -28 -35z"/>
<path d="M7936 8828 c-32 -46 -7 -108 43 -108 16 0 34 7 41 15 17 21 7 29 -18
14 -38 -24 -70 8 -58 56 5 19 13 25 35 25 16 0 31 -6 34 -12 2 -7 8 -10 12 -6
14 13 -16 38 -46 38 -17 0 -34 -8 -43 -22z"/>
<path d="M8590 8822 c-10 -12 -11 -17 -2 -20 7 -2 12 -19 12 -37 0 -33 15 -54
28 -40 4 4 1 10 -5 12 -17 6 -17 60 -1 65 10 4 9 8 -2 20 -14 13 -17 13 -30 0z"/>
<path d="M8064 8795 c-22 -34 -6 -75 29 -75 30 0 47 18 47 50 0 52 -48 68 -76
25z m54 -27 c-3 -36 -24 -44 -41 -17 -14 23 -2 49 23 49 18 0 21 -5 18 -32z"/>
<path d="M8170 8768 c0 -27 5 -48 10 -48 6 0 10 18 10 40 0 33 3 40 20 40 17
0 20 -7 20 -40 0 -22 5 -40 10 -40 14 0 12 76 -2 88 -7 6 -25 10 -40 9 -26 -2
-28 -5 -28 -49z"/>
<path d="M8275 8811 c-9 -9 -5 -91 4 -91 6 0 11 17 13 38 2 29 7 37 23 37 16
0 21 -8 23 -37 2 -21 7 -38 13 -38 12 0 12 61 -1 80 -8 14 -65 22 -75 11z"/>
<path d="M8392 8808 c-17 -17 -15 -63 2 -78 18 -15 58 -10 64 8 3 11 0 12 -17
3 -12 -7 -26 -9 -31 -6 -19 12 -9 24 23 27 26 2 31 7 29 23 -6 34 -46 47 -70
23z m53 -18 c4 -6 -5 -10 -19 -10 -14 0 -26 5 -26 10 0 6 9 10 19 10 11 0 23
-4 26 -10z"/>
<path d="M8494 8795 c-33 -50 28 -105 66 -60 15 18 -1 20 -18 3 -16 -16 -44 9
-40 36 2 17 10 21 36 19 27 -1 31 1 21 13 -18 22 -47 17 -65 -11z"/>
<path d="M5257 8802 c-24 -26 -21 -49 7 -67 33 -22 66 -5 66 33 0 50 -42 69
-73 34z"/>
<path d="M4230 8835 c0 -20 5 -25 25 -25 20 0 25 5 25 25 0 20 -5 25 -25 25
-20 0 -25 -5 -25 -25z"/>
<path d="M4340 8835 c0 -20 5 -25 25 -25 20 0 25 5 25 25 0 20 -5 25 -25 25
-20 0 -25 -5 -25 -25z"/>
<path d="M4530 8775 c0 -45 0 -45 35 -45 35 0 35 0 35 45 0 45 0 45 -35 45
-35 0 -35 0 -35 -45z"/>
<path d="M4804 8803 c-17 -17 -17 -18 4 -21 12 -2 34 -2 49 0 26 3 26 4 9 21
-10 9 -24 17 -31 17 -7 0 -21 -8 -31 -17z"/>
<path d="M4950 8805 c-26 -32 13 -81 48 -59 34 22 22 74 -18 74 -10 0 -23 -7
-30 -15z"/>
<path d="M4960 8660 c0 -16 7 -20 30 -20 23 0 30 4 30 20 0 16 -7 20 -30 20
-23 0 -30 -4 -30 -20z"/>
<path d="M6044 8775 c-8 -21 3 -48 19 -43 19 7 22 58 2 58 -8 0 -18 -7 -21
-15z"/>
<path d="M6790 8800 c0 -13 7 -20 20 -20 13 0 20 7 20 20 0 13 -7 20 -20 20
-13 0 -20 -7 -20 -20z"/>
<path d="M7042 8763 c4 -36 33 -39 33 -3 0 16 -6 26 -18 28 -15 3 -18 -2 -15
-25z"/>
<path d="M6947 8783 c-11 -10 -8 -41 4 -49 16 -9 41 20 33 39 -6 17 -25 22
-37 10z"/>
<path d="M4230 8725 c0 -20 5 -25 25 -25 20 0 25 5 25 25 0 20 -5 25 -25 25
-20 0 -25 -5 -25 -25z"/>
<path d="M4340 8725 c0 -20 5 -25 25 -25 20 0 25 5 25 25 0 20 -5 25 -25 25
-20 0 -25 -5 -25 -25z"/>
<path d="M2918 7599 c-19 -10 -24 -54 -10 -77 14 -22 78 -27 107 -8 31 21 35
70 6 86 -25 13 -81 13 -103 -1z"/>
<path d="M1678 7623 c-38 -10 -15 -23 40 -23 52 1 55 2 38 15 -19 15 -44 17
-78 8z"/>
<path d="M2130 7490 c0 -5 18 -10 39 -10 22 0 43 5 46 10 4 6 -12 10 -39 10
-25 0 -46 -4 -46 -10z"/>
<path d="M3488 7623 c-38 -10 -15 -23 40 -23 52 1 55 2 38 15 -19 15 -44 17
-78 8z"/>
<path d="M4643 7620 c-37 -15 -27 -20 39 -20 41 0 59 3 52 10 -15 15 -66 21
-91 10z"/>
<path d="M6230 7584 c-22 -57 9 -90 76 -82 36 4 53 44 36 83 -10 21 -18 25
-57 25 -40 0 -47 -3 -55 -26z"/>
<path d="M7024 7615 c-17 -13 -14 -14 39 -15 57 0 76 13 35 24 -36 9 -53 7
-74 -9z"/>
<path d="M8183 7620 c-37 -15 -27 -20 39 -20 41 0 59 3 52 10 -15 15 -66 21
-91 10z"/>
<path d="M9222 7598 c-15 -15 -16 -70 0 -86 17 -17 83 -15 97 2 7 8 11 32 9
53 -3 37 -4 38 -48 41 -26 2 -50 -2 -58 -10z"/>
<path d="M390 6970 l0 -40 74 0 c85 0 107 13 88 55 -11 23 -17 25 -87 25 l-75
0 0 -40z"/>
<path d="M2518 6899 c-19 -10 -24 -54 -10 -77 14 -22 78 -27 107 -8 31 21 35
70 6 86 -25 13 -81 13 -103 -1z"/>
<path d="M848 6923 c-38 -10 -15 -23 40 -23 52 1 55 2 38 15 -19 15 -44 17
-78 8z"/>
<path d="M1790 6790 c0 -5 18 -10 39 -10 22 0 43 5 46 10 4 6 -12 10 -39 10
-25 0 -46 -4 -46 -10z"/>
<path d="M3305 6802 c-55 -4 -70 -22 -19 -22 35 0 76 14 64 22 -3 2 -23 2 -45
0z"/>
<path d="M2635 6241 c-8 -27 1 -41 26 -41 16 0 20 6 17 27 -4 34 -33 43 -43
14z"/>
<path d="M3017 6254 c-11 -12 -8 -41 6 -52 18 -16 39 1 35 29 -3 23 -27 37
-41 23z"/>
<path d="M3476 6245 c-8 -23 4 -45 25 -45 14 0 19 7 19 30 0 23 -5 30 -19 30
-10 0 -21 -7 -25 -15z"/>
<path d="M387 6253 c-11 -10 -8 -38 4 -50 18 -18 39 -3 39 28 0 21 -5 29 -18
29 -10 0 -22 -3 -25 -7z"/>
<path d="M865 6250 c-4 -6 5 -10 20 -10 15 0 24 4 20 10 -3 6 -12 10 -20 10
-8 0 -17 -4 -20 -10z"/>
<path d="M1125 6250 c-4 -6 5 -10 20 -10 15 0 24 4 20 10 -3 6 -12 10 -20 10
-8 0 -17 -4 -20 -10z"/>
<path d="M1444 6246 c-9 -24 4 -48 23 -44 12 2 18 12 18 28 0 29 -32 41 -41
16z"/>
<path d="M1550 6250 c0 -5 9 -10 20 -10 11 0 20 5 20 10 0 6 -9 10 -20 10 -11
0 -20 -4 -20 -10z"/>
<path d="M1760 6250 c0 -5 9 -10 20 -10 11 0 20 5 20 10 0 6 -9 10 -20 10 -11
0 -20 -4 -20 -10z"/>
<path d="M1930 6212 c0 -14 11 -21 26 -15 21 8 17 23 -6 23 -11 0 -20 -4 -20
-8z"/>
<path d="M2147 6254 c-12 -13 -7 -52 7 -57 18 -7 39 17 34 40 -3 18 -29 29
-41 17z"/>
<path d="M2407 6253 c-11 -10 -8 -38 4 -50 18 -18 39 -3 39 28 0 21 -5 29 -18
29 -10 0 -22 -3 -25 -7z"/>
<path d="M2806 6211 c-10 -15 22 -20 34 -5 10 11 9 14 -8 14 -12 0 -23 -4 -26
-9z"/>
<path d="M3270 6212 c0 -14 11 -21 26 -15 21 8 17 23 -6 23 -11 0 -20 -4 -20
-8z"/>
<path d="M3805 6250 c-4 -6 5 -10 20 -10 15 0 24 4 20 10 -3 6 -12 10 -20 10
-8 0 -17 -4 -20 -10z"/>
<path d="M3910 6212 c0 -14 11 -21 26 -15 21 8 17 23 -6 23 -11 0 -20 -4 -20
-8z"/>
<path d="M4077 6253 c-11 -10 -8 -38 4 -50 18 -18 39 -3 39 28 0 21 -5 29 -18
29 -10 0 -22 -3 -25 -7z"/>
<path d="M4655 6250 c-4 -6 5 -10 19 -10 14 0 26 5 26 10 0 6 -9 10 -19 10
-11 0 -23 -4 -26 -10z"/>
<path d="M4960 6212 c0 -14 11 -21 26 -15 21 8 17 23 -6 23 -11 0 -20 -4 -20
-8z"/>
<path d="M5064 6246 c-9 -24 4 -48 23 -44 12 2 18 12 18 28 0 29 -32 41 -41
16z"/>
<path d="M5466 6245 c-8 -23 4 -45 25 -45 14 0 19 7 19 30 0 23 -5 30 -19 30
-10 0 -21 -7 -25 -15z"/>
<path d="M5737 6253 c-11 -10 -8 -38 4 -50 18 -18 39 -3 39 28 0 21 -5 29 -18
29 -10 0 -22 -3 -25 -7z"/>
<path d="M6210 6250 c0 -5 9 -10 20 -10 11 0 20 5 20 10 0 6 -9 10 -20 10 -11
0 -20 -4 -20 -10z"/>
<path d="M1237 5974 c-11 -12 -8 -41 6 -52 18 -16 39 1 35 29 -3 23 -27 37
-41 23z"/>
<path d="M3147 5974 c-12 -13 -7 -52 7 -57 18 -7 39 17 34 40 -3 18 -29 29
-41 17z"/>
<path d="M3835 5977 c-8 -19 -2 -31 13 -26 5 2 6 13 2 24 -7 19 -8 19 -15 2z"/>
<path d="M4857 5974 c-11 -12 -8 -41 6 -52 18 -16 39 1 35 29 -3 23 -27 37
-41 23z"/>
<path d="M386 5965 c-8 -22 4 -45 24 -45 20 0 32 23 24 45 -4 8 -14 15 -24 15
-10 0 -20 -7 -24 -15z"/>
<path d="M705 5970 c-4 -6 5 -10 20 -10 15 0 24 4 20 10 -3 6 -12 10 -20 10
-8 0 -17 -4 -20 -10z"/>
<path d="M1026 5931 c-10 -15 22 -20 34 -5 10 11 9 14 -8 14 -12 0 -23 -4 -26
-9z"/>
<path d="M1395 5970 c-4 -6 5 -10 19 -10 14 0 26 5 26 10 0 6 -9 10 -19 10
-11 0 -23 -4 -26 -10z"/>
<path d="M1606 5965 c-8 -23 4 -45 25 -45 14 0 19 7 19 30 0 23 -5 30 -19 30
-10 0 -21 -7 -25 -15z"/>
<path d="M1716 5931 c-10 -15 22 -20 34 -5 10 11 9 14 -8 14 -12 0 -23 -4 -26
-9z"/>
<path d="M1816 5965 c-8 -23 4 -45 25 -45 14 0 19 7 19 30 0 23 -5 30 -19 30
-10 0 -21 -7 -25 -15z"/>
<path d="M1925 5970 c-4 -6 5 -10 19 -10 14 0 26 5 26 10 0 6 -9 10 -19 10
-11 0 -23 -4 -26 -10z"/>
<path d="M2670 5970 c0 -5 9 -10 20 -10 11 0 20 5 20 10 0 6 -9 10 -20 10 -11
0 -20 -4 -20 -10z"/>
<path d="M2930 5931 c0 -11 26 -22 34 -14 12 12 5 23 -14 23 -11 0 -20 -4 -20
-9z"/>
<path d="M3295 5970 c-4 -6 5 -10 20 -10 15 0 24 4 20 10 -3 6 -12 10 -20 10
-8 0 -17 -4 -20 -10z"/>
<path d="M3605 5970 c-4 -6 5 -10 19 -10 14 0 26 5 26 10 0 6 -9 10 -19 10
-11 0 -23 -4 -26 -10z"/>
<path d="M4266 5965 c-8 -22 4 -45 24 -45 20 0 32 23 24 45 -4 8 -14 15 -24
15 -10 0 -20 -7 -24 -15z"/>
<path d="M4480 5970 c0 -5 9 -10 20 -10 11 0 20 5 20 10 0 6 -9 10 -20 10 -11
0 -20 -4 -20 -10z"/>
<path d="M4636 5965 c-8 -23 4 -45 25 -45 14 0 19 7 19 30 0 23 -5 30 -19 30
-10 0 -21 -7 -25 -15z"/>
<path d="M4082 4947 c-50 -53 -13 -137 59 -137 47 0 79 34 79 81 0 71 -90 107
-138 56z m77 -14 c21 -17 19 -39 -2 -26 -7 3 -3 -3 7 -16 20 -22 20 -22 -1
-43 l-21 -21 -23 22 c-12 11 -19 24 -15 28 4 4 11 1 16 -7 8 -12 10 -12 10 -1
0 8 -8 20 -17 27 -17 12 -17 14 2 33 25 25 21 24 44 4z"/>
<path d="M4158 4548 c-21 -6 -38 -14 -38 -19 0 -11 6 -11 53 2 20 5 37 14 37
19 0 11 -2 11 -52 -2z"/>
<path d="M4182 4444 c4 -21 22 -23 26 -1 2 10 -3 17 -13 17 -10 0 -15 -6 -13
-16z"/>
<path d="M4070 4415 c0 -8 7 -15 15 -15 8 0 15 7 15 15 0 8 -7 15 -15 15 -8 0
-15 -7 -15 -15z"/>
<path d="M6164 4251 c-42 -26 -60 -72 -46 -118 6 -19 8 -41 5 -49 -3 -8 0 -14
6 -14 7 0 8 21 4 64 -5 58 -4 64 18 80 14 10 43 16 75 16 42 0 54 -4 67 -22 9
-13 16 -18 16 -13 0 17 -36 54 -64 65 -36 14 -45 13 -81 -9z"/>
<path d="M6311 4168 c-1 -13 -10 -18 -32 -18 -16 0 -28 -4 -25 -9 3 -4 17 -6
31 -3 25 4 29 -2 26 -38 -1 -13 0 -13 8 0 5 9 6 30 1 50 -4 19 -8 27 -9 18z"/>
<path d="M6155 4141 c-6 -11 33 -26 42 -17 4 3 0 6 -8 7 -8 0 -6 4 6 9 18 8
17 9 -7 9 -15 1 -29 -3 -33 -8z"/>
<path d="M6300 4048 c0 -7 -14 -28 -31 -45 -32 -35 -26 -45 9 -15 20 16 41 72
28 72 -3 0 -6 -6 -6 -12z"/>
<path d="M6146 4030 c7 -27 38 -56 68 -64 12 -3 5 7 -17 25 -20 17 -41 38 -47
47 -9 14 -10 12 -4 -8z"/>
<path d="M6926 4214 c-19 -18 -20 -28 -5 -55 10 -20 8 -20 -37 -13 -26 4 -54
7 -62 8 -11 1 -20 -22 -33 -89 -10 -49 -18 -97 -18 -106 -1 -12 22 -19 100
-33 56 -10 104 -14 109 -9 4 4 13 42 19 83 7 41 14 85 17 96 4 16 0 23 -17 27
-20 5 -20 7 -5 22 19 19 21 56 4 73 -17 17 -54 15 -72 -4z"/>
<path d="M8252 4108 c3 -7 13 -15 23 -17 17 -3 17 -2 3 13 -20 19 -31 21 -26
4z"/>
<path d="M8318 4102 c-3 -9 -1 -26 3 -37 6 -15 8 -11 8 18 1 40 -4 48 -11 19z"/>
<path d="M8268 4043 c6 -2 18 -2 25 0 6 3 1 5 -13 5 -14 0 -19 -2 -12 -5z"/>
<path d="M8836 4207 c-27 -22 -29 -28 -24 -71 7 -55 25 -80 48 -66 10 7 11 10
3 10 -7 0 -13 9 -13 20 0 11 3 19 8 18 4 -1 23 12 42 30 40 37 50 39 57 12 7
-26 23 -15 23 15 0 54 -91 74 -144 32z"/>
<path d="M9533 4210 c-29 -18 -50 -64 -42 -95 1 -6 -2 -19 -6 -29 -6 -13 -3
-22 7 -30 9 -7 18 -23 20 -36 2 -19 12 -26 41 -33 25 -6 46 -6 60 1 22 11 22
11 -3 12 l-25 2 25 9 c20 7 18 8 -15 5 -22 -2 -34 -2 -28 1 9 3 10 10 3 23
-16 30 -3 49 32 44 17 -2 39 1 49 7 41 21 11 109 -42 128 -41 14 -38 14 -76
-9z"/>
<path d="M9609 4039 c16 -6 28 -6 35 1 7 7 -1 10 -24 9 -33 0 -34 -1 -11 -10z"/>
<path d="M9440 3960 c0 -15 21 -23 32 -12 6 6 2 11 -11 15 -12 3 -21 1 -21 -3z"/>
<path d="M10186 4125 c-11 -8 -17 -18 -13 -22 12 -11 65 -13 93 -3 18 7 30 7
39 0 17 -14 45 -2 45 21 0 17 -8 19 -72 19 -48 -1 -80 -6 -92 -15z"/>
<path d="M10288 4043 c7 -3 16 -2 19 1 4 3 -2 6 -13 5 -11 0 -14 -3 -6 -6z"/>
<path d="M10200 4027 c0 -7 18 -23 40 -36 33 -19 40 -20 40 -7 0 9 -9 16 -20
16 -11 0 -29 9 -40 20 -13 13 -20 15 -20 7z"/>
<path d="M7518 4134 c-51 -15 -68 -31 -20 -19 15 4 54 13 87 20 55 12 57 13
20 13 -22 0 -61 -6 -87 -14z"/>
<path d="M4120 4054 c0 -8 5 -12 10 -9 6 3 10 10 10 16 0 5 -4 9 -10 9 -5 0
-10 -7 -10 -16z"/>
<path d="M7645 4070 c-3 -5 1 -10 10 -10 9 0 13 5 10 10 -3 6 -8 10 -10 10 -2
0 -7 -4 -10 -10z"/>
<path d="M7581 4016 c-15 -18 -5 -23 37 -20 46 2 46 2 32 19 -16 19 -54 19
-69 1z m29 0 c0 -3 -4 -8 -10 -11 -5 -3 -10 -1 -10 4 0 6 5 11 10 11 6 0 10
-2 10 -4z m30 -6 c0 -5 -2 -10 -4 -10 -3 0 -8 5 -11 10 -3 6 -1 10 4 10 6 0
11 -4 11 -10z"/>
<path d="M4072 3728 c-7 -7 -12 -34 -12 -62 l0 -49 23 21 c29 27 39 27 62 2
14 -15 21 -17 31 -9 8 6 21 9 29 5 12 -4 15 3 15 37 0 24 -5 48 -12 55 -16 16
-120 16 -136 0z m131 -20 c7 -21 -4 -38 -23 -38 -23 0 -34 16 -26 35 7 18 43
20 49 3z"/>
<path d="M4087 3622 c-33 -36 -16 -52 56 -52 l41 0 -34 35 c-39 41 -41 41 -63
17z"/>
<path d="M4180 3611 c0 -13 26 -32 33 -24 8 7 -11 33 -24 33 -5 0 -9 -4 -9 -9z"/>
<path d="M4060 3301 c0 -11 5 -23 10 -26 14 -8 13 -48 -1 -62 -7 -7 -9 -19 -6
-27 5 -13 22 -16 77 -16 55 0 72 3 77 16 3 8 1 20 -6 27 -14 14 -15 54 -1 62
6 3 10 15 10 26 0 17 -7 19 -80 19 -73 0 -80 -2 -80 -19z m60 -6 c0 -8 -4 -15
-10 -15 -5 0 -10 7 -10 15 0 8 5 15 10 15 6 0 10 -7 10 -15z m0 -50 c0 -8 -4
-15 -10 -15 -5 0 -10 7 -10 15 0 8 5 15 10 15 6 0 10 -7 10 -15z m-4 -52 c-10
-10 -19 5 -10 18 6 11 8 11 12 0 2 -7 1 -15 -2 -18z"/>
<path d="M4097 2914 c-9 -10 2 -24 18 -24 9 0 12 6 9 15 -6 16 -17 19 -27 9z"/>
<path d="M4156 2905 c-4 -12 -1 -16 11 -13 18 3 21 20 5 26 -5 1 -12 -4 -16
-13z"/>
<path d="M4060 2860 c0 -5 16 -10 35 -10 19 0 35 5 35 10 0 6 -16 10 -35 10
-19 0 -35 -4 -35 -10z"/>
<path d="M4150 2860 c0 -5 13 -10 29 -10 17 0 33 5 36 10 4 6 -8 10 -29 10
-20 0 -36 -4 -36 -10z"/>
<path d="M4082 2798 c2 -36 7 -44 26 -46 20 -3 22 1 22 42 0 43 -2 46 -26 46
-23 0 -25 -3 -22 -42z"/>
<path d="M4150 2794 c0 -41 2 -45 23 -42 18 2 23 10 25 46 3 39 1 42 -22 42
-24 0 -26 -3 -26 -46z"/>
<path d="M6307 2624 c-10 -11 -8 -44 2 -44 6 0 13 4 16 10 8 12 -9 43 -18 34z"/>
<path d="M6490 2620 c0 -5 5 -10 10 -10 6 0 10 5 10 10 0 6 -4 10 -10 10 -5 0
-10 -4 -10 -10z"/>
<path d="M5674 2415 c-11 -27 4 -45 36 -45 27 0 30 3 30 30 0 27 -3 30 -30 30
-18 0 -33 -6 -36 -15z"/>
<path d="M5680 2265 c0 -35 1 -36 33 -33 28 3 32 6 32 33 0 27 -4 30 -32 33
-32 3 -33 2 -33 -33z"/>
<path d="M5970 2391 c0 -35 4 -42 24 -47 39 -10 68 12 64 49 -3 30 -6 32 -45
35 l-43 3 0 -40z"/>
<path d="M6860 2330 l0 -100 40 0 c49 0 60 17 60 100 0 83 -11 100 -60 100
l-40 0 0 -100z"/>
<path d="M6291 2367 c-18 -46 -14 -67 13 -67 23 0 24 2 15 38 -6 20 -12 42
-13 47 -2 6 -9 -3 -15 -18z"/>
<path d="M4332 1298 c6 -18 28 -21 28 -4 0 9 -7 16 -16 16 -9 0 -14 -5 -12
-12z"/>
<path d="M4596 1344 c-30 -29 -13 -104 22 -104 28 0 42 21 42 60 0 55 -32 77
-64 44z"/>
<path d="M8904 965 c-4 -9 -2 -21 4 -27 15 -15 44 -1 40 19 -4 23 -36 29 -44
8z"/>
<path d="M9238 955 c-10 -22 -9 -29 9 -46 17 -17 24 -19 42 -10 12 7 21 22 21
34 0 49 -53 64 -72 22z"/>
<path d="M9471 959 c-10 -28 -4 -56 13 -62 23 -9 38 9 34 44 -4 41 -34 53 -47
18z"/>
<path d="M9585 939 c-4 -6 -5 -13 -2 -16 7 -7 27 6 27 18 0 12 -17 12 -25 -2z"/>
<path d="M6560 1029 c0 -5 5 -7 10 -4 6 3 10 8 10 11 0 2 -4 4 -10 4 -5 0 -10
-5 -10 -11z"/>
<path d="M6640 966 c0 -19 4 -22 25 -18 30 5 28 22 -3 33 -19 7 -22 5 -22 -15z"/>
<path d="M6640 870 c0 -5 5 -10 11 -10 5 0 7 5 4 10 -3 6 -8 10 -11 10 -2 0
-4 -4 -4 -10z"/>
<path d="M6730 795 c0 -10 9 -15 28 -14 16 1 20 3 10 6 -10 2 -18 9 -18 14 0
5 -4 9 -10 9 -5 0 -10 -7 -10 -15z"/>
<path d="M6810 706 c0 -10 9 -16 21 -16 24 0 21 23 -4 28 -10 2 -17 -3 -17
-12z"/>
<path d="M5120 700 c0 -5 5 -10 10 -10 6 0 10 5 10 10 0 6 -4 10 -10 10 -5 0
-10 -4 -10 -10z"/>
<path d="M6810 609 c0 -5 5 -7 10 -4 6 3 10 8 10 11 0 2 -4 4 -10 4 -5 0 -10
-5 -10 -11z"/>
<path d="M6890 536 c0 -19 4 -24 15 -19 18 6 16 34 -2 41 -8 2 -13 -6 -13 -22z"/>
<path d="M5046 541 c-4 -7 -5 -15 -2 -18 9 -9 19 4 14 18 -4 11 -6 11 -12 0z"/>
<path d="M6976 453 c-11 -11 -6 -23 9 -23 8 0 15 4 15 9 0 13 -16 22 -24 14z"/>
<path d="M6890 440 c0 -5 5 -10 10 -10 6 0 10 5 10 10 0 6 -4 10 -10 10 -5 0
-10 -4 -10 -10z"/>
<path d="M6976 355 c-4 -10 1 -15 16 -15 17 0 18 2 8 15 -7 8 -14 15 -15 15
-2 0 -5 -7 -9 -15z"/>
<path d="M3360 325 c-10 -13 -9 -15 9 -15 12 0 21 6 21 15 0 8 -4 15 -9 15 -5
0 -14 -7 -21 -15z"/>
<path d="M4859 279 l-26 -27 29 -4 c33 -5 43 7 31 38 -8 20 -9 19 -34 -7z"/>
<path d="M7060 267 c0 -17 5 -27 15 -27 19 0 19 9 0 34 -14 19 -15 19 -15 -7z"/>
<path d="M6978 253 c7 -3 16 -2 19 1 4 3 -2 6 -13 5 -11 0 -14 -3 -6 -6z"/>
<path d="M7060 170 c0 -13 5 -20 13 -17 6 2 12 10 12 17 0 7 -6 15 -12 18 -8
2 -13 -5 -13 -18z"/>
<path d="M3581 166 c-10 -12 -8 -17 8 -25 22 -12 37 0 27 24 -7 19 -20 19 -35
1z"/>
<path d="M7060 81 c0 -11 4 -21 9 -21 18 0 21 18 6 30 -13 10 -15 9 -15 -9z"/>
<path d="M7065 10 c-3 -5 -1 -10 4 -10 6 0 11 5 11 10 0 6 -2 10 -4 10 -3 0
-8 -4 -11 -10z"/>
</g>
</svg>
