<svg width="30" height="31" viewBox="0 0 30 31" fill="none" xmlns="http://www.w3.org/2000/svg">
<g clip-path="url(#clip0_857_772)">
<path fill-rule="evenodd" clip-rule="evenodd" d="M30 15.1631C30 23.4474 23.2843 30.1631 15 30.1631C6.71573 30.1631 0 23.4474 0 15.1631C0 6.87881 6.71573 0.163086 15 0.163086C23.2843 0.163086 30 6.87881 30 15.1631ZM15.5375 11.2367C14.0786 11.8436 11.1627 13.0996 6.78987 15.0047C6.0798 15.2871 5.70783 15.5633 5.67397 15.8335C5.61674 16.29 6.18839 16.4697 6.96684 16.7145C7.07273 16.7478 7.18245 16.7823 7.29493 16.8188C8.0608 17.0678 9.09104 17.359 9.62662 17.3706C10.1124 17.3811 10.6547 17.1808 11.2533 16.7698C15.339 14.0118 17.448 12.6178 17.5804 12.5878C17.6738 12.5666 17.8033 12.5399 17.891 12.6179C17.9787 12.6958 17.97 12.8435 17.9608 12.8831C17.9041 13.1245 15.6602 15.2107 14.4989 16.2903C14.1369 16.6269 13.8801 16.8656 13.8276 16.9201C13.71 17.0423 13.5902 17.1578 13.475 17.2688C12.7635 17.9547 12.2299 18.4691 13.5045 19.3091C14.1171 19.7127 14.6072 20.0465 15.0962 20.3795C15.6302 20.7432 16.1629 21.1059 16.852 21.5577C17.0276 21.6728 17.1953 21.7923 17.3586 21.9087C17.9801 22.3518 18.5384 22.7498 19.2282 22.6864C19.6291 22.6495 20.0431 22.2726 20.2534 21.1485C20.7503 18.492 21.727 12.7362 21.9528 10.3643C21.9726 10.1565 21.9477 9.89054 21.9277 9.7738C21.9077 9.65705 21.866 9.49072 21.7142 9.36758C21.5345 9.22175 21.257 9.191 21.133 9.19319C20.5688 9.20312 19.7032 9.5041 15.5375 11.2367Z" fill="white"/>
</g>
<defs>
<clipPath id="clip0_857_772">
<rect width="30" height="30" fill="white" transform="translate(0 0.163086)"/>
</clipPath>
</defs>
</svg>
